<svg version="1.1" id="Layer_1" xmlns="http://www.w3.org/2000/svg" xmlns:xlink="http://www.w3.org/1999/xlink" x="0px" y="0px"
	 width="100%" viewBox="0 0 221 219" enable-background="new 0 0 221 219" xml:space="preserve">
<path fill="#FEFFFF" opacity="1.000000" stroke="none" 
	d="
M222.000000,83.000000 
	C222.000000,129.000000 222.000000,174.500000 222.000000,220.000000 
	C148.333328,220.000000 74.666664,220.000000 1.000000,220.000000 
	C1.000000,147.000000 1.000000,74.000000 1.000000,1.000000 
	C74.666664,1.000000 148.333328,1.000000 222.000000,1.000000 
	C222.000000,28.166666 222.000000,55.333332 222.000000,83.000000 
M74.366676,108.225296 
	C75.282852,109.150604 76.199028,110.075912 76.907448,111.653885 
	C52.803307,134.231506 28.699165,156.809128 3.841384,180.092667 
	C19.101561,180.092667 33.236401,180.219498 47.364498,179.967804 
	C49.719177,179.925858 52.558174,178.803436 54.303207,177.220825 
	C70.096909,162.897049 85.708107,148.371765 101.348976,133.879837 
	C109.349434,126.467079 117.301399,119.001976 125.744202,111.122932 
	C122.091751,108.223854 118.693497,105.885574 115.715553,103.098228 
	C105.068741,93.132851 94.564491,83.015175 83.639778,72.423569 
	C82.139374,71.178177 80.638977,69.932793 79.024742,68.265846 
	C78.842857,68.004288 78.592674,67.876434 77.943077,67.271324 
	C77.111130,66.598465 76.279175,65.925598 75.261086,64.800972 
	C74.888390,64.515472 74.515694,64.229973 73.880898,63.360580 
	C72.907280,62.552670 71.933662,61.744759 70.519867,60.297482 
	C68.683464,60.287125 66.847069,60.276768 64.187981,60.117065 
	C62.800724,60.174923 61.413464,60.232780 59.232468,60.122246 
	C58.156986,60.173386 57.081501,60.224529 55.332077,60.057476 
	C49.777260,55.098377 44.267136,50.087627 38.636768,45.215843 
	C37.196594,43.969704 35.399727,42.338387 33.726479,42.290485 
	C24.013372,42.012463 14.288242,42.154533 2.985601,42.154533 
	C16.731617,54.756657 29.371996,66.345154 42.234985,78.475273 
	C42.841305,78.944954 43.447624,79.414635 44.239380,80.379211 
	C44.686123,80.633392 45.132870,80.887581 45.871754,81.705765 
	C46.828049,82.510147 47.784340,83.314529 49.013912,84.701485 
	C49.988140,85.517700 50.962368,86.333923 52.166363,87.683739 
	C52.764217,88.161293 53.362072,88.638855 54.091110,89.602318 
	C54.380882,89.743477 54.670658,89.884636 55.249649,90.585434 
	C56.221077,91.373398 57.192505,92.161362 58.412273,93.534805 
	C59.565571,94.471718 60.718872,95.408638 62.105263,96.869713 
	C62.704960,97.326263 63.304657,97.782806 64.118408,98.779770 
	C64.733971,99.224365 65.349541,99.668953 66.179756,100.651047 
	C66.784691,101.108513 67.389633,101.565971 68.194214,102.589661 
	C68.818275,103.065353 69.442337,103.541046 70.280128,104.591858 
	C71.530663,105.617821 72.781197,106.643776 74.366676,108.225296 
M139.475433,116.626953 
	C138.017578,118.085167 136.559723,119.543373 134.496918,121.170898 
	C133.649811,122.066765 132.802704,122.962639 131.389374,124.100670 
	C130.566605,124.991142 129.743835,125.881622 128.300140,127.025040 
	C126.873756,128.361542 125.447372,129.698059 123.489639,131.404663 
	C121.984734,132.926208 120.479820,134.447754 118.423447,136.143921 
	C117.932396,136.716721 117.441353,137.289536 116.373764,138.072662 
	C115.542244,138.954102 114.710732,139.835556 113.274925,140.977631 
	C112.371185,141.922134 111.467438,142.866638 110.050728,143.943390 
	C109.710617,144.326401 109.370506,144.709427 108.429802,145.300156 
	C107.264183,146.519043 106.098557,147.737930 104.352440,149.135223 
	C103.540443,150.019470 102.728439,150.903732 101.306023,152.053360 
	C99.899086,153.432175 98.492149,154.810974 96.517677,156.398727 
	C95.703392,157.273346 94.889114,158.147964 93.518898,159.215866 
	C93.007469,159.795700 92.496040,160.375534 91.351715,161.184830 
	C71.623466,179.528564 51.895222,197.872314 31.325003,216.998947 
	C55.925159,216.998947 79.168022,217.023666 102.410454,216.935089 
	C103.749443,216.930008 105.399155,216.343994 106.371468,215.449310 
	C113.083191,209.273392 119.653282,202.943542 126.793976,196.204712 
	C127.908684,195.159073 129.023392,194.113434 130.717972,192.833618 
	C131.560104,191.922028 132.402237,191.010437 133.830872,189.880768 
	C134.697006,188.982162 135.563156,188.083572 136.885986,186.758774 
	C138.177780,185.500900 139.469589,184.243027 141.104797,182.415024 
	C142.098526,181.617386 143.092255,180.819733 144.672913,179.801712 
	C145.524979,178.894623 146.377045,177.987534 147.780014,176.883316 
	C148.278748,176.297546 148.777481,175.711777 149.843842,174.909393 
	C150.807724,173.909149 151.771606,172.908905 152.913361,171.944077 
	C152.913361,171.944077 152.924957,171.763062 153.382080,171.701859 
	C153.641205,171.523041 153.840576,171.292511 154.630493,170.827606 
	C175.856384,151.015900 197.082275,131.204193 218.299637,111.400467 
	C204.631470,98.668243 190.925858,86.997246 178.576294,74.034378 
	C169.453949,64.459007 159.575500,59.859127 146.557358,62.055122 
	C145.105377,62.300056 143.569336,62.046726 141.449341,62.009254 
	C141.034409,62.021317 140.619492,62.033379 139.954391,61.393375 
	C130.386230,52.299511 120.818077,43.205650 112.145309,34.095051 
	C119.280655,34.095051 126.416008,34.095051 133.551346,34.095051 
	C124.733658,24.517593 115.737076,16.143139 106.694817,7.818295 
	C105.873993,7.062592 104.769081,6.138071 103.779953,6.118757 
	C96.431976,5.975278 89.079926,6.040935 80.556084,6.040935 
	C83.361908,8.634233 85.197456,10.283966 86.981430,11.987701 
	C94.651718,19.313011 102.306870,26.654181 109.034523,34.010822 
	C101.866341,34.010822 94.698166,34.010822 86.275246,34.010822 
	C96.842262,43.998291 106.334908,52.970310 114.914391,62.017967 
	C107.946701,62.114624 100.979012,62.211281 93.496140,62.308212 
	C93.684410,62.804966 93.872681,63.301716 94.402718,64.375961 
	C99.393463,69.009468 104.409439,73.616158 109.369919,78.281853 
	C121.220436,89.428146 133.044785,100.602249 144.292816,112.085777 
	C142.871597,113.512093 141.450363,114.938400 139.475433,116.626953 
M44.503464,5.995320 
	C40.595913,5.995320 36.688358,5.995320 31.487232,5.995320 
	C41.939781,15.690081 51.403717,24.473539 60.884445,33.238823 
	C61.231907,33.560059 61.742882,33.898144 62.179417,33.900490 
	C69.685585,33.940819 77.192032,33.929485 85.961571,33.929485 
	C77.823296,26.347576 70.371880,20.152443 63.853031,13.095801 
	C58.648193,7.461573 53.019299,4.720616 44.503464,5.995320 
z"/>
<path fill="#55C5CF" opacity="1.000000" stroke="none" 
	d="
M144.879715,111.765121 
	C133.044785,100.602249 121.220436,89.428146 109.369919,78.281853 
	C104.409439,73.616158 99.393463,69.009468 94.214569,63.839272 
	C94.013634,62.971157 94.008598,62.639606 94.011322,62.307938 
	C100.979012,62.211281 107.946701,62.114624 115.704002,62.010612 
	C116.715309,62.023289 116.937004,62.043324 117.241821,62.377914 
	C125.789925,70.646194 134.243591,78.612030 142.731735,86.540962 
	C144.050964,87.773270 145.486710,89.759415 146.938416,89.823868 
	C154.443665,90.157097 161.971619,89.978683 170.851547,89.978683 
	C165.387207,84.881020 160.965439,80.898399 156.708130,76.747116 
	C151.754333,71.916664 146.944565,66.938515 142.072281,62.024467 
	C143.569336,62.046726 145.105377,62.300056 146.557358,62.055122 
	C159.575500,59.859127 169.453949,64.459007 178.576294,74.034378 
	C190.925858,86.997246 204.631470,98.668243 218.299637,111.400467 
	C197.082275,131.204193 175.856384,151.015900 154.256378,170.679932 
	C153.882248,170.532272 153.786148,170.054199 153.953461,169.808090 
	C154.378250,169.036957 154.635757,168.511932 155.009338,167.667587 
	C155.992035,165.559235 156.858658,163.770203 157.868622,161.622452 
	C158.358337,159.511108 158.704727,157.758499 159.213501,155.660263 
	C159.532883,153.540024 159.689865,151.765396 159.913269,149.547394 
	C159.831100,146.733994 159.682495,144.363983 159.581467,141.626129 
	C158.912674,138.464661 158.196304,135.671066 157.391434,132.503555 
	C154.567139,124.484200 151.582733,116.990395 144.879715,111.765121 
z"/>
<path fill="#55C5CF" opacity="1.000000" stroke="none" 
	d="
M84.006310,72.955109 
	C94.564491,83.015175 105.068741,93.132851 115.715553,103.098228 
	C118.693497,105.885574 122.091751,108.223854 125.744202,111.122932 
	C117.301399,119.001976 109.349434,126.467079 101.348976,133.879837 
	C85.708107,148.371765 70.096909,162.897049 54.303207,177.220825 
	C52.558174,178.803436 49.719177,179.925858 47.364498,179.967804 
	C33.236401,180.219498 19.101561,180.092667 3.841384,180.092667 
	C28.699165,156.809128 52.803307,134.231506 77.336365,111.254929 
	C81.763802,107.074135 84.891113,102.828461 85.444397,96.855804 
	C86.176826,94.448235 86.585815,92.225006 87.090164,89.580894 
	C87.099716,87.442741 87.013908,85.725456 86.966171,83.656616 
	C86.652397,82.205681 86.300545,81.106300 85.993530,79.655060 
	C85.616669,78.227142 85.194962,77.151093 84.730507,75.792160 
	C84.399445,75.013031 84.111130,74.516785 83.872055,73.754761 
	C83.949631,73.311028 83.977966,73.133064 84.006310,72.955109 
z"/>
<path fill="#01AEEF" opacity="1.000000" stroke="none" 
	d="
M126.268906,196.663162 
	C119.653282,202.943542 113.083191,209.273392 106.371468,215.449310 
	C105.399155,216.343994 103.749443,216.930008 102.410454,216.935089 
	C79.168022,217.023666 55.925159,216.998947 31.325003,216.998947 
	C51.895222,197.872314 71.623466,179.528564 91.705139,161.417633 
	C94.989120,164.742035 97.874626,167.877914 100.858841,170.916855 
	C109.307228,179.520187 117.796021,188.083862 126.268906,196.663162 
z"/>
<path fill="#06AFEF" opacity="1.000000" stroke="none" 
	d="
M42.012375,77.933647 
	C29.371996,66.345154 16.731617,54.756657 2.985601,42.154533 
	C14.288242,42.154533 24.013372,42.012463 33.726479,42.290485 
	C35.399727,42.338387 37.196594,43.969704 38.636768,45.215843 
	C44.267136,50.087627 49.777260,55.098377 55.621178,60.499374 
	C53.075314,64.324181 50.215935,67.687027 47.414043,71.097115 
	C45.570595,73.340714 43.810043,75.652435 42.012375,77.933647 
z"/>
<path fill="#FBFEFE" opacity="1.000000" stroke="none" 
	d="
M141.760803,62.016861 
	C146.944565,66.938515 151.754333,71.916664 156.708130,76.747116 
	C160.965439,80.898399 165.387207,84.881020 170.851547,89.978683 
	C161.971619,89.978683 154.443665,90.157097 146.938416,89.823868 
	C145.486710,89.759415 144.050964,87.773270 142.731735,86.540962 
	C134.243591,78.612030 125.789925,70.646194 117.697144,62.393860 
	C125.447762,62.078644 132.826157,62.062042 140.204559,62.045441 
	C140.619492,62.033379 141.034409,62.021317 141.760803,62.016861 
z"/>
<path fill="#58C6D0" opacity="1.000000" stroke="none" 
	d="
M140.079468,61.719406 
	C132.826157,62.062042 125.447762,62.078644 117.614029,62.079300 
	C116.937004,62.043324 116.715309,62.023289 116.160583,61.972794 
	C106.334908,52.970310 96.842262,43.998291 86.275246,34.010822 
	C94.698166,34.010822 101.866341,34.010822 109.822456,34.022377 
	C110.823563,34.059879 111.036743,34.085835 111.249924,34.111786 
	C120.818077,43.205650 130.386230,52.299511 140.079468,61.719406 
z"/>
<path fill="#56C6D0" opacity="1.000000" stroke="none" 
	d="
M44.992580,5.995318 
	C53.019299,4.720616 58.648193,7.461573 63.853031,13.095801 
	C70.371880,20.152443 77.823296,26.347576 85.961571,33.929485 
	C77.192032,33.929485 69.685585,33.940819 62.179417,33.900490 
	C61.742882,33.898144 61.231907,33.560059 60.884445,33.238823 
	C51.403717,24.473539 41.939781,15.690081 31.487232,5.995320 
	C36.688358,5.995320 40.595913,5.995320 44.992580,5.995318 
z"/>
<path fill="#56C6D0" opacity="1.000000" stroke="none" 
	d="
M111.697617,34.103416 
	C111.036743,34.085835 110.823563,34.059879 110.288956,34.011749 
	C102.306870,26.654181 94.651718,19.313011 86.981430,11.987701 
	C85.197456,10.283966 83.361908,8.634233 80.556084,6.040935 
	C89.079926,6.040935 96.431976,5.975278 103.779953,6.118757 
	C104.769081,6.138071 105.873993,7.062592 106.694817,7.818295 
	C115.737076,16.143139 124.733658,24.517593 133.551346,34.095051 
	C126.416008,34.095051 119.280655,34.095051 111.697617,34.103416 
z"/>
<path fill="#015490" opacity="1.000000" stroke="none" 
	d="
M157.725281,161.981171 
	C156.858658,163.770203 155.992035,165.559235 154.663666,167.630936 
	C152.941772,167.174026 151.467361,166.653091 150.454849,165.660858 
	C140.918701,156.315643 131.477997,146.873077 121.949837,137.519638 
	C121.186501,136.770294 119.977051,136.475388 118.974915,135.969299 
	C120.479820,134.447754 121.984734,132.926208 123.902962,131.514862 
	C132.614410,139.920517 140.805740,148.327545 149.278915,156.440186 
	C151.670441,158.729935 154.887085,160.157928 157.725281,161.981171 
z"/>
<path fill="#0186C4" opacity="1.000000" stroke="none" 
	d="
M101.916443,151.787994 
	C102.728439,150.903732 103.540443,150.019470 104.919815,149.234253 
	C112.015907,156.079712 118.376144,163.000839 125.129440,169.514465 
	C130.072510,174.282120 135.532059,178.514313 140.761398,182.985168 
	C139.469589,184.243027 138.177780,185.500900 136.320007,186.829803 
	C124.954468,176.213837 114.138596,165.543167 103.390495,154.804657 
	C102.641815,154.056656 102.396072,152.805283 101.916443,151.787994 
z"/>
<path fill="#0091D0" opacity="1.000000" stroke="none" 
	d="
M101.611237,151.920685 
	C102.396072,152.805283 102.641815,154.056656 103.390495,154.804657 
	C114.138596,165.543167 124.954468,176.213837 136.091675,187.042908 
	C135.563156,188.083572 134.697006,188.982162 133.176987,189.938446 
	C131.931091,189.719788 131.207779,189.578064 130.766251,189.147430 
	C119.521286,178.179932 108.305824,167.182220 97.085205,156.189774 
	C98.492149,154.810974 99.899086,153.432175 101.611237,151.920685 
z"/>
<path fill="#005D9A" opacity="1.000000" stroke="none" 
	d="
M118.699181,136.056610 
	C119.977051,136.475388 121.186501,136.770294 121.949837,137.519638 
	C131.477997,146.873077 140.918701,156.315643 150.454849,165.660858 
	C151.467361,166.653091 152.941772,167.174026 154.547577,167.950256 
	C154.635757,168.511932 154.378250,169.036957 153.755569,169.957230 
	C153.235245,170.822678 153.080093,171.292862 152.924957,171.763062 
	C152.924957,171.763062 152.913361,171.944077 152.477966,171.941757 
	C151.035965,171.465073 149.817368,171.212296 149.054871,170.482788 
	C139.034943,160.896561 129.055801,151.267181 119.144142,141.569199 
	C118.152870,140.599304 117.669434,139.110382 116.950302,137.862335 
	C117.441353,137.289536 117.932396,136.716721 118.699181,136.056610 
z"/>
<path fill="#004A86" opacity="1.000000" stroke="none" 
	d="
M157.868622,161.622452 
	C154.887085,160.157928 151.670441,158.729935 149.278915,156.440186 
	C140.805740,148.327545 132.614410,139.920517 124.168640,131.329819 
	C125.447372,129.698059 126.873756,128.361542 128.657364,127.266357 
	C130.141754,129.303513 130.975357,131.397629 132.445694,132.844772 
	C139.761337,140.044983 147.198364,147.124710 154.720215,154.109467 
	C155.810608,155.122009 157.590363,155.392181 159.051117,156.005875 
	C158.704727,157.758499 158.358337,159.511108 157.868622,161.622452 
z"/>
<path fill="#017BBA" opacity="1.000000" stroke="none" 
	d="
M140.933105,182.700104 
	C135.532059,178.514313 130.072510,174.282120 125.129440,169.514465 
	C118.376144,163.000839 112.015907,156.079712 105.210052,149.145050 
	C106.098557,147.737930 107.264183,146.519043 108.728157,145.556000 
	C110.181496,147.538132 111.081757,149.523865 112.532928,150.948425 
	C121.736961,159.983612 131.041077,168.917511 140.379532,177.814163 
	C141.394745,178.781326 142.840118,179.296997 144.085968,180.022079 
	C143.092255,180.819733 142.098526,181.617386 140.933105,182.700104 
z"/>
<path fill="#01407E" opacity="1.000000" stroke="none" 
	d="
M159.213501,155.660263 
	C157.590363,155.392181 155.810608,155.122009 154.720215,154.109467 
	C147.198364,147.124710 139.761337,140.044983 132.445694,132.844772 
	C130.975357,131.397629 130.141754,129.303513 128.967834,127.139893 
	C129.743835,125.881622 130.566605,124.991142 131.716873,124.334152 
	C140.230331,132.730042 148.388519,140.920822 156.651627,149.004364 
	C157.360229,149.697556 158.765305,149.678802 159.846832,149.990768 
	C159.689865,151.765396 159.532883,153.540024 159.213501,155.660263 
z"/>
<path fill="#023776" opacity="1.000000" stroke="none" 
	d="
M159.913269,149.547394 
	C158.765305,149.678802 157.360229,149.697556 156.651627,149.004364 
	C148.388519,140.920822 140.230331,132.730042 131.999985,124.213074 
	C132.802704,122.962639 133.649811,122.066765 135.138184,121.124298 
	C139.451141,124.587669 143.011795,128.224014 146.824585,131.573380 
	C150.938065,135.186874 155.287430,138.531860 159.533905,141.993973 
	C159.682495,144.363983 159.831100,146.733994 159.913269,149.547394 
z"/>
<path fill="#0173B1" opacity="1.000000" stroke="none" 
	d="
M144.379440,179.911896 
	C142.840118,179.296997 141.394745,178.781326 140.379532,177.814163 
	C131.041077,168.917511 121.736961,159.983612 112.532928,150.948425 
	C111.081757,149.523865 110.181496,147.538132 109.028458,145.452148 
	C109.370506,144.709427 109.710617,144.326401 110.644676,144.018555 
	C121.624809,154.028259 131.984711,163.990616 142.428818,173.863922 
	C143.809036,175.168701 145.618469,176.019440 147.229111,177.080444 
	C146.377045,177.987534 145.524979,178.894623 144.379440,179.911896 
z"/>
<path fill="#019BDB" opacity="1.000000" stroke="none" 
	d="
M96.801437,156.294250 
	C108.305824,167.182220 119.521286,178.179932 130.766251,189.147430 
	C131.207779,189.578064 131.931091,189.719788 132.883728,190.047485 
	C132.402237,191.010437 131.560104,191.922028 130.116211,192.805588 
	C121.507248,185.182617 113.492775,177.595337 105.495995,169.989426 
	C101.671631,166.352005 97.880829,162.679306 94.074829,159.022583 
	C94.889114,158.147964 95.703392,157.273346 96.801437,156.294250 
z"/>
<path fill="#01A5E5" opacity="1.000000" stroke="none" 
	d="
M93.796860,159.119232 
	C97.880829,162.679306 101.671631,166.352005 105.495995,169.989426 
	C113.492775,177.595337 121.507248,185.182617 129.826279,192.922668 
	C129.023392,194.113434 127.908684,195.159073 126.531441,196.433929 
	C117.796021,188.083862 109.307228,179.520187 100.858841,170.916855 
	C97.874626,167.877914 94.989120,164.742035 92.021584,161.302902 
	C92.496040,160.375534 93.007469,159.795700 93.796860,159.119232 
z"/>
<path fill="#0166A3" opacity="1.000000" stroke="none" 
	d="
M116.662033,137.967499 
	C117.669434,139.110382 118.152870,140.599304 119.144142,141.569199 
	C129.055801,151.267181 139.034943,160.896561 149.054871,170.482788 
	C149.817368,171.212296 151.035965,171.465073 152.389008,171.924042 
	C151.771606,172.908905 150.807724,173.909149 149.228806,174.879822 
	C137.035583,163.472488 125.457405,152.094742 113.879219,140.716995 
	C114.710732,139.835556 115.542244,138.954102 116.662033,137.967499 
z"/>
<path fill="#062F70" opacity="1.000000" stroke="none" 
	d="
M159.581467,141.626129 
	C155.287430,138.531860 150.938065,135.186874 146.824585,131.573380 
	C143.011795,128.224014 139.451141,124.587669 135.440674,121.039642 
	C136.559723,119.543373 138.017578,118.085167 139.801743,116.816666 
	C143.272064,120.530312 146.216980,124.263969 149.630203,127.504333 
	C151.900726,129.659882 154.839996,131.111023 157.479935,132.877457 
	C158.196304,135.671066 158.912674,138.464661 159.581467,141.626129 
z"/>
<path fill="#006CA9" opacity="1.000000" stroke="none" 
	d="
M113.577072,140.847321 
	C125.457405,152.094742 137.035583,163.472488 148.944992,174.988129 
	C148.777481,175.711777 148.278748,176.297546 147.504562,176.981873 
	C145.618469,176.019440 143.809036,175.168701 142.428818,173.863922 
	C131.984711,163.990616 121.624809,154.028259 110.901154,143.952423 
	C111.467438,142.866638 112.371185,141.922134 113.577072,140.847321 
z"/>
<path fill="#072468" opacity="1.000000" stroke="none" 
	d="
M157.391434,132.503555 
	C154.839996,131.111023 151.900726,129.659882 149.630203,127.504333 
	C146.216980,124.263969 143.272064,120.530312 140.078598,116.685547 
	C141.450363,114.938400 142.871597,113.512093 144.586273,111.925446 
	C151.582733,116.990395 154.567139,124.484200 157.391434,132.503555 
z"/>
<path fill="#035F9B" opacity="1.000000" stroke="none" 
	d="
M83.823044,72.689339 
	C83.977966,73.133064 83.949631,73.311028 83.522430,73.754669 
	C81.996712,74.599709 80.617424,74.935097 79.783722,75.797745 
	C74.097137,81.681770 68.500351,87.653664 62.951794,93.668427 
	C62.341606,94.329895 62.220249,95.442299 61.872169,96.345551 
	C60.718872,95.408638 59.565571,94.471718 58.572800,93.080170 
	C64.582069,86.490242 70.510971,80.428024 76.220642,74.165932 
	C77.571388,72.684494 78.185570,70.531487 79.138573,68.687401 
	C80.638977,69.932793 82.139374,71.178177 83.823044,72.689339 
z"/>
<path fill="#017BBA" opacity="1.000000" stroke="none" 
	d="
M53.959930,89.116409 
	C53.362072,88.638855 52.764217,88.161293 52.097282,87.058891 
	C58.274361,79.533722 64.486107,72.601547 70.809006,65.772255 
	C71.625671,64.890182 73.017563,64.540672 74.142998,63.944473 
	C74.515694,64.229973 74.888390,64.515472 75.154556,65.382416 
	C69.085060,72.090538 63.078129,78.175491 57.193310,84.376335 
	C55.893642,85.745796 55.026329,87.525574 53.959930,89.116409 
z"/>
<path fill="#0166A3" opacity="1.000000" stroke="none" 
	d="
M79.081657,68.476624 
	C78.185570,70.531487 77.571388,72.684494 76.220642,74.165932 
	C70.510971,80.428024 64.582069,86.490242 58.448631,92.787430 
	C57.192505,92.161362 56.221077,91.373398 55.451950,90.267685 
	C58.220894,87.648232 60.885342,85.445427 63.333736,83.024139 
	C68.375015,78.038673 73.300850,72.936462 78.274185,67.882286 
	C78.592674,67.876434 78.842857,68.004288 79.081657,68.476624 
z"/>
<path fill="#0197D6" opacity="1.000000" stroke="none" 
	d="
M60.026207,60.290642 
	C61.413464,60.232780 62.800724,60.174923 64.595314,60.378227 
	C65.002647,60.639389 65.017921,61.012127 64.978073,61.355721 
	C60.728725,66.425140 56.628925,71.255791 52.259655,75.828987 
	C50.312523,77.866997 47.822975,79.386772 45.579613,81.141762 
	C45.132870,80.887581 44.686123,80.633392 44.295349,79.839890 
	C48.657757,74.609612 53.036415,69.981750 57.225403,65.188141 
	C58.438534,63.799915 59.107681,61.936314 60.026207,60.290642 
z"/>
<path fill="#008BCA" opacity="1.000000" stroke="none" 
	d="
M45.725685,81.423767 
	C47.822975,79.386772 50.312523,77.866997 52.259655,75.828987 
	C56.628925,71.255791 60.728725,66.425140 65.375412,61.347424 
	C66.873627,61.003708 67.934677,61.011879 68.992737,61.383995 
	C68.549194,62.769447 68.351700,64.024445 67.629929,64.775833 
	C61.387024,71.274948 55.049778,77.683426 48.740635,84.118912 
	C47.784340,83.314529 46.828049,82.510147 45.725685,81.423767 
z"/>
<path fill="#015490" opacity="1.000000" stroke="none" 
	d="
M61.988716,96.607635 
	C62.220249,95.442299 62.341606,94.329895 62.951794,93.668427 
	C68.500351,87.653664 74.097137,81.681770 79.783722,75.797745 
	C80.617424,74.935097 81.996712,74.599709 83.473190,74.020447 
	C84.111130,74.516785 84.399445,75.013031 84.458038,75.947357 
	C77.453667,83.670082 70.679016,90.954720 63.904354,98.239357 
	C63.304657,97.782806 62.704960,97.326263 61.988716,96.607635 
z"/>
<path fill="#004A86" opacity="1.000000" stroke="none" 
	d="
M64.011383,98.509567 
	C70.679016,90.954720 77.453667,83.670082 84.500793,76.230240 
	C85.194962,77.151093 85.616669,78.227142 85.652618,79.692429 
	C78.832947,86.758957 72.399025,93.436256 65.965103,100.113548 
	C65.349541,99.668953 64.733971,99.224365 64.011383,98.509567 
z"/>
<path fill="#0186C4" opacity="1.000000" stroke="none" 
	d="
M48.877274,84.410202 
	C55.049778,77.683426 61.387024,71.274948 67.629929,64.775833 
	C68.351700,64.024445 68.549194,62.769447 69.320572,61.368095 
	C70.087601,60.971115 70.523827,60.953979 70.960052,60.936844 
	C71.933662,61.744759 72.907280,62.552670 74.011948,63.652527 
	C73.017563,64.540672 71.625671,64.890182 70.809006,65.772255 
	C64.486107,72.601547 58.274361,79.533722 51.982399,86.792099 
	C50.962368,86.333923 49.988140,85.517700 48.877274,84.410202 
z"/>
<path fill="#006CA9" opacity="1.000000" stroke="none" 
	d="
M78.108627,67.576805 
	C73.300850,72.936462 68.375015,78.038673 63.333736,83.024139 
	C60.885342,85.445427 58.220894,87.648232 55.307343,89.987862 
	C54.670658,89.884636 54.380882,89.743477 54.025520,89.359360 
	C55.026329,87.525574 55.893642,85.745796 57.193310,84.376335 
	C63.078129,78.175491 69.085060,72.090538 75.247627,65.608292 
	C76.279175,65.925598 77.111130,66.598465 78.108627,67.576805 
z"/>
<path fill="#023776" opacity="1.000000" stroke="none" 
	d="
M86.928101,84.008179 
	C87.013908,85.725456 87.099716,87.442741 86.722221,89.585175 
	C85.038689,90.908653 83.741440,91.720039 82.611977,92.720795 
	C78.400307,96.452461 74.243675,100.246254 70.066399,104.016739 
	C69.442337,103.541046 68.818275,103.065353 68.393112,102.158188 
	C71.966064,98.110611 75.225418,94.377586 78.752670,90.917679 
	C81.292877,88.425980 84.190117,86.298256 86.928101,84.008179 
z"/>
<path fill="#01407E" opacity="1.000000" stroke="none" 
	d="
M86.966179,83.656624 
	C84.190117,86.298256 81.292877,88.425980 78.752670,90.917679 
	C75.225418,94.377586 71.966064,98.110611 68.293289,101.875076 
	C67.389633,101.565971 66.784691,101.108513 66.072433,100.382294 
	C72.399025,93.436256 78.832947,86.758957 85.607780,80.044296 
	C86.300545,81.106300 86.652397,82.205681 86.966179,83.656624 
z"/>
<path fill="#062F70" opacity="1.000000" stroke="none" 
	d="
M70.173264,104.304298 
	C74.243675,100.246254 78.400307,96.452461 82.611977,92.720795 
	C83.741440,91.720039 85.038689,90.908653 86.626862,90.006058 
	C86.585815,92.225006 86.176826,94.448235 85.067596,96.848007 
	C80.922142,100.572945 77.476936,104.121338 74.031731,107.669731 
	C72.781197,106.643776 71.530663,105.617821 70.173264,104.304298 
z"/>
<path fill="#01A5E5" opacity="1.000000" stroke="none" 
	d="
M59.629337,60.206444 
	C59.107681,61.936314 58.438534,63.799915 57.225403,65.188141 
	C53.036415,69.981750 48.657757,74.609612 44.202629,79.592438 
	C43.447624,79.414635 42.841305,78.944954 42.123680,78.204460 
	C43.810043,75.652435 45.570595,73.340714 47.414043,71.097115 
	C50.215935,67.687027 53.075314,64.324181 55.958145,60.608471 
	C57.081501,60.224529 58.156986,60.173386 59.629337,60.206444 
z"/>
<path fill="#072468" opacity="1.000000" stroke="none" 
	d="
M74.199203,107.947510 
	C77.476936,104.121338 80.922142,100.572945 84.744148,97.032349 
	C84.891113,102.828461 81.763802,107.074135 77.440239,110.928604 
	C76.199028,110.075912 75.282852,109.150604 74.199203,107.947510 
z"/>
<path fill="#06AFEF" opacity="1.000000" stroke="none" 
	d="
M70.739960,60.617165 
	C70.523827,60.953979 70.087601,60.971115 69.323547,61.004150 
	C67.934677,61.011879 66.873627,61.003708 65.415253,61.003830 
	C65.017921,61.012127 65.002647,60.639389 65.006653,60.452900 
	C66.847069,60.276768 68.683464,60.287125 70.739960,60.617165 
z"/>
<path fill="#58C6D0" opacity="1.000000" stroke="none" 
	d="
M93.753731,62.308075 
	C94.008598,62.639606 94.013634,62.971157 94.043686,63.550526 
	C93.872681,63.301716 93.684410,62.804966 93.753731,62.308075 
z"/>
<path fill="#0166A3" opacity="1.000000" stroke="none" 
	d="
M153.153519,171.732452 
	C153.080093,171.292862 153.235245,170.822678 153.588257,170.203339 
	C153.786148,170.054199 153.882248,170.532272 153.931213,170.771286 
	C153.840576,171.292511 153.641205,171.523041 153.153519,171.732452 
z"/>
</svg>
