<svg version="1.1" id="Layer_1" xmlns="http://www.w3.org/2000/svg" xmlns:xlink="http://www.w3.org/1999/xlink" x="0px" y="0px"
	 width="100%" viewBox="0 0 1859 659" enable-background="new 0 0 1859 659" xml:space="preserve">
<path fill="#FFFFFF" opacity="1.000000" stroke="none" 
	d="
M1205.000000,660.000000 
	C803.333313,660.000000 402.166656,660.000000 1.000000,660.000000 
	C1.000000,440.333344 1.000000,220.666672 1.000000,1.000000 
	C620.666687,1.000000 1240.333374,1.000000 1860.000000,1.000000 
	C1860.000000,220.666672 1860.000000,440.333344 1860.000000,660.000000 
	C1641.833374,660.000000 1423.666626,660.000000 1205.000000,660.000000 
M1466.343262,226.640976 
	C1466.343262,226.640976 1466.340576,226.562973 1466.197266,226.116974 
	C1465.999390,225.840225 1465.730469,225.699387 1465.320435,225.674225 
	C1465.320435,225.674225 1465.311035,225.601959 1465.153198,225.120987 
	C1464.866455,224.959595 1464.579834,224.798203 1464.026367,224.273148 
	C1463.815918,224.029556 1463.549805,223.907074 1462.950806,223.282440 
	C1460.196533,220.860168 1457.442383,218.437897 1454.525635,215.395065 
	C1451.724609,212.914825 1448.923462,210.434586 1445.837280,207.341843 
	C1442.226196,204.548950 1438.615234,201.756058 1434.093628,198.753525 
	C1429.730469,198.828918 1425.367432,198.904312 1420.089355,198.776932 
	C1415.394531,198.847092 1410.699707,198.917267 1405.205444,198.791794 
	C1401.602295,199.314316 1399.030762,197.773895 1396.420288,195.302094 
	C1383.856079,183.404953 1371.173218,171.628891 1358.314575,160.051834 
	C1356.465210,158.386826 1353.439453,157.231049 1350.944214,157.205734 
	C1329.314575,156.986267 1307.681641,157.075653 1286.049683,157.087936 
	C1284.664917,157.088730 1283.280029,157.212753 1281.006592,157.322250 
	C1294.260010,169.616302 1306.776733,181.273041 1319.344849,192.873978 
	C1336.083740,208.324524 1352.862549,223.731674 1369.957153,239.754425 
	C1372.300171,241.839127 1374.643188,243.923828 1377.259033,246.618500 
	C1380.134644,249.175644 1383.010132,251.732788 1386.177002,254.871735 
	C1388.796387,257.214691 1391.415771,259.557648 1394.324097,262.507782 
	C1397.201416,265.050781 1400.078857,267.593750 1403.229980,270.735626 
	C1406.099487,273.306396 1408.968872,275.877167 1412.154419,278.998474 
	C1414.771973,281.337036 1417.389648,283.675598 1420.278076,286.622406 
	C1423.153687,289.170074 1426.029297,291.717743 1429.174805,294.851379 
	C1431.136841,296.567474 1433.098877,298.283569 1435.316528,300.607697 
	C1437.587524,302.600983 1439.858521,304.594269 1442.513428,307.139832 
	C1445.723755,310.160889 1448.934082,313.181976 1452.096924,316.898651 
	C1449.599121,319.513519 1447.230469,322.267609 1444.584351,324.722626 
	C1392.072632,373.442261 1339.533325,422.132111 1286.973389,470.799622 
	C1285.117188,472.518341 1282.992310,473.946838 1280.992676,475.510651 
	C1281.395752,475.934845 1281.798706,476.359070 1282.201782,476.783295 
	C1317.684448,476.783295 1353.167480,476.828217 1388.649414,476.666260 
	C1390.672974,476.657043 1393.104248,475.405212 1394.648682,473.977631 
	C1451.036499,421.856903 1507.341431,369.646576 1563.789673,317.326477 
	C1563.222534,316.702606 1562.613403,315.930328 1561.903198,315.266235 
	C1539.031982,293.877136 1516.175537,272.471924 1493.258301,251.132156 
	C1484.738647,243.199005 1476.072998,235.422668 1467.415039,227.536926 
	C1467.415039,227.536926 1467.352295,227.505142 1467.195312,227.082794 
	C1467.000366,226.821320 1466.739746,226.685333 1466.343262,226.640976 
M1570.885376,352.905823 
	C1567.976318,355.762695 1565.067261,358.619568 1561.610107,361.790619 
	C1558.732422,364.501984 1555.854858,367.213348 1552.485718,370.138733 
	C1552.301636,370.434937 1552.117432,370.731110 1551.456299,371.183716 
	C1551.380859,371.333038 1551.305420,371.482391 1550.667725,371.915924 
	C1547.122314,375.297180 1543.576904,378.678436 1539.402100,382.282928 
	C1536.110840,385.459930 1532.819702,388.636932 1528.934082,392.057983 
	C1525.585693,395.277618 1522.237305,398.497223 1518.264038,401.995697 
	C1514.826782,405.295410 1511.389404,408.595123 1507.323730,412.139435 
	C1504.559814,414.802124 1501.795898,417.464844 1498.412964,420.355377 
	C1494.792725,423.842896 1491.172607,427.330444 1486.957520,431.064423 
	C1440.169800,474.443237 1393.382202,517.822021 1346.294434,561.479004 
	C1347.255127,561.798706 1347.403320,561.891235 1347.551514,561.891296 
	C1402.830688,561.917969 1458.109985,561.947388 1513.389160,561.905640 
	C1514.761841,561.904602 1516.506226,561.512939 1517.451538,560.631958 
	C1535.101440,544.182556 1552.656372,527.631287 1570.839844,510.856659 
	C1574.011108,507.822754 1577.182373,504.788849 1580.963257,501.418304 
	C1584.260742,498.262878 1587.558228,495.107483 1591.484741,491.704651 
	C1594.362305,488.891327 1597.239868,486.077972 1600.743408,482.994232 
	C1604.900024,479.020508 1609.056641,475.046753 1613.822021,470.832611 
	C1616.880005,467.886017 1619.937988,464.939423 1623.612549,461.761780 
	C1625.059692,460.175934 1626.506836,458.590118 1628.547607,457.105621 
	C1628.760620,456.793213 1628.973633,456.480804 1629.204224,456.152191 
	C1629.204224,456.152191 1629.218018,456.185455 1629.886353,456.077515 
	C1651.354370,436.135437 1672.833862,416.205627 1694.287354,396.247955 
	C1717.085327,375.039398 1739.867798,353.814392 1762.635986,332.573853 
	C1768.287231,327.301727 1773.857178,321.942413 1779.593140,316.501190 
	C1776.990967,314.183685 1774.860352,312.351593 1772.801270,310.442200 
	C1735.556396,275.904572 1698.293579,241.386093 1661.133789,206.757294 
	C1658.261841,204.080902 1655.459839,202.770477 1651.459106,202.830215 
	C1636.638306,203.051544 1621.812134,202.918671 1606.988037,202.918869 
	C1605.245850,202.918884 1603.503540,202.918869 1600.584351,202.918869 
	C1624.113037,224.939178 1646.728638,246.104965 1670.148804,268.023621 
	C1651.106812,268.023621 1633.177002,268.087311 1615.249390,267.910034 
	C1613.715210,267.894897 1611.973022,266.522827 1610.705933,265.366364 
	C1599.759033,255.375076 1588.847168,245.344040 1578.027100,235.215668 
	C1566.619995,224.537674 1555.325195,213.739639 1544.920898,202.956207 
	C1562.973633,202.956207 1581.026367,202.956207 1599.986938,202.956207 
	C1598.764526,201.565475 1598.213989,200.817276 1597.545166,200.196396 
	C1586.705566,190.131302 1575.821411,180.114029 1565.007568,170.021469 
	C1553.597290,159.372131 1542.250977,148.654404 1531.824585,137.855270 
	C1549.578003,137.855270 1567.331543,137.855270 1585.784546,137.855270 
	C1584.995117,136.702667 1584.736328,136.126587 1584.310059,135.730682 
	C1562.223877,115.218605 1540.154541,94.687752 1517.949585,74.304962 
	C1516.561035,73.030281 1514.103882,72.396240 1512.130859,72.367500 
	C1500.140991,72.192787 1488.147583,72.280205 1476.155273,72.280128 
	C1471.226929,72.280098 1466.298584,72.280121 1460.211060,72.280121 
	C1461.999268,74.227791 1462.881714,75.332268 1463.906250,76.283516 
	C1484.654297,95.545235 1505.429810,114.777451 1526.149170,134.070038 
	C1527.268433,135.112198 1527.945068,136.629852 1527.925415,137.799683 
	C1510.107788,137.799683 1492.290161,137.799683 1473.080933,137.799683 
	C1486.427002,150.196045 1498.628174,161.471191 1510.762695,172.817444 
	C1521.441162,182.802368 1532.045288,192.866959 1541.784668,202.882980 
	C1523.769531,202.882980 1505.754395,202.882980 1487.739136,202.882980 
	C1487.560181,203.320206 1487.381104,203.757416 1487.202026,204.194641 
	C1488.253296,204.981720 1489.385498,205.681213 1490.343994,206.568451 
	C1528.580322,241.963547 1566.807495,277.368500 1604.999390,312.811462 
	C1606.532471,314.234344 1607.712646,316.037415 1608.487915,318.106842 
	C1603.320190,323.042084 1598.152466,327.977325 1592.348022,333.143707 
	C1587.879395,337.417664 1583.410889,341.691620 1578.312622,346.186981 
	C1576.053833,348.391113 1573.795044,350.595215 1570.885376,352.905823 
M352.292389,283.764221 
	C345.416992,299.530365 338.541626,315.296539 331.666229,331.062683 
	C331.238129,330.935150 330.810059,330.807617 330.381958,330.680084 
	C330.381958,324.226135 330.381958,317.772217 330.381958,310.938354 
	C307.037201,310.938354 284.109070,310.938354 260.703064,310.938354 
	C260.703064,256.324921 260.703064,202.108780 260.703064,147.886749 
	C253.175766,147.886749 246.137741,147.886749 239.096863,147.886749 
	C239.096863,209.382401 239.096863,270.485077 239.096863,331.673462 
	C239.745010,331.806763 240.208878,331.985565 240.672791,331.985748 
	C277.790253,332.000763 314.907928,331.949036 352.024811,332.097229 
	C355.235840,332.110016 355.872864,330.290314 356.776123,328.149475 
	C363.621246,311.925598 370.538727,295.731720 377.268707,279.460266 
	C378.515076,276.446869 380.019714,275.246704 383.484283,275.279602 
	C404.480927,275.479126 425.481476,275.484772 446.478027,275.281860 
	C450.316589,275.244781 451.873749,276.612610 453.279816,280.036102 
	C460.408875,297.394104 467.857330,314.620941 475.123413,331.727814 
	C483.105652,331.727814 490.825104,331.727814 498.948029,331.727814 
	C471.026276,267.994110 443.272217,204.643204 415.032837,140.184555 
	C393.936279,188.539581 373.306793,235.824066 352.292389,283.764221 
M987.237366,154.212952 
	C957.130737,139.994324 926.987366,139.582733 896.723938,153.798233 
	C853.625977,174.042480 831.794128,226.153809 847.750732,270.893951 
	C865.134949,319.637207 916.111084,346.523010 966.634949,333.595856 
	C1010.267517,322.431915 1040.399536,284.387390 1039.914429,239.953705 
	C1039.493896,201.425674 1021.472046,173.143204 987.237366,154.212952 
M655.464905,319.040466 
	C661.382080,325.415558 667.299316,331.790680 673.868774,338.868561 
	C673.868774,274.481964 673.868774,211.243469 673.868774,147.766449 
	C666.988159,147.766449 660.235046,147.766449 652.921509,147.766449 
	C652.921509,194.187714 652.921509,240.341675 652.921509,287.361542 
	C607.768250,238.089798 563.304871,189.570892 518.292480,140.452850 
	C518.292480,204.900650 518.292480,268.278900 518.292480,331.728668 
	C525.277039,331.728668 532.007751,331.728668 539.219421,331.728668 
	C539.219421,285.785492 539.219421,240.114716 539.219421,193.615570 
	C578.232910,235.710678 616.606873,277.115814 655.464905,319.040466 
M138.513062,240.945129 
	C159.438416,240.945129 180.363754,240.945129 201.296814,240.945129 
	C201.296814,233.816391 201.296814,227.282166 201.296814,220.382278 
	C176.130463,220.382278 151.362305,220.382278 126.453522,220.382278 
	C126.453522,202.627396 126.453522,185.254761 126.453522,167.335571 
	C151.691147,167.335571 176.586777,167.335571 201.418182,167.335571 
	C201.418182,160.518875 201.418182,154.255722 201.418182,147.790131 
	C168.909286,147.790131 136.680771,147.790131 104.447876,147.790131 
	C104.447876,209.308121 104.447876,270.522369 104.447876,331.667572 
	C136.973221,331.667572 169.189407,331.667572 201.416077,331.667572 
	C201.416077,324.915161 201.416077,318.505585 201.416077,311.566772 
	C176.251099,311.566772 151.360840,311.566772 126.368088,311.566772 
	C126.368088,287.791260 126.368088,264.550751 126.368088,240.945129 
	C130.256088,240.945129 133.888168,240.945129 138.513062,240.945129 
M734.585388,191.698181 
	C733.063477,177.678177 740.313232,166.103622 753.389282,162.670120 
	C764.945068,159.635773 775.604980,161.780319 784.273560,170.437897 
	C787.774841,173.934753 790.658020,178.050491 794.136292,182.264755 
	C799.867920,178.600937 805.817871,174.797531 811.813538,170.964935 
	C805.335022,158.293777 795.977234,149.807343 782.828064,145.869995 
	C769.705627,141.940674 756.443604,141.845413 743.516663,146.368469 
	C729.120483,151.405609 718.369263,160.671585 713.924927,175.786118 
	C707.036926,199.210861 717.859253,222.237473 741.226379,233.710007 
	C750.312561,238.171066 759.898682,241.614410 768.981934,246.080765 
	C775.349548,249.211761 781.857483,252.565506 787.251099,257.077026 
	C805.983398,272.745850 803.068359,302.548584 782.112732,313.620483 
	C761.789856,324.358063 739.172180,316.566315 729.982788,295.569519 
	C728.400208,291.953522 727.271423,288.138947 725.820862,284.104126 
	C719.117249,287.432373 712.673096,290.631805 706.190430,293.850372 
	C711.395996,313.597046 722.494507,327.811890 741.869080,333.319092 
	C751.078064,335.936768 761.287415,336.499847 770.913696,335.902008 
	C796.938171,334.285736 816.008789,317.154358 820.760010,292.594269 
	C825.833496,266.368042 815.313782,244.743454 791.426575,232.393600 
	C788.921814,231.098618 786.291992,230.047272 783.732361,228.856628 
	C772.440918,223.604218 760.955017,218.722778 749.931641,212.957169 
	C741.853210,208.731842 736.052124,202.110245 734.585388,191.698181 
M1097.882812,254.500031 
	C1097.882812,218.952698 1097.882812,183.405380 1097.882812,147.711975 
	C1090.256104,147.711975 1083.317139,147.711975 1076.278931,147.711975 
	C1076.278931,209.240234 1076.278931,270.551422 1076.278931,331.673615 
	C1106.852295,331.673615 1137.067627,331.673615 1167.184814,331.673615 
	C1167.184814,324.630615 1167.184814,317.923981 1167.184814,310.821533 
	C1143.877930,310.821533 1120.973389,310.821533 1097.882812,310.821533 
	C1097.882812,292.105591 1097.882812,273.802826 1097.882812,254.500031 
M1230.044189,389.500000 
	C1230.044189,451.257324 1230.044189,513.014648 1230.044189,574.663696 
	C1233.176025,574.663696 1235.610229,574.663696 1237.975830,574.663696 
	C1237.975830,402.835632 1237.975830,231.290436 1237.975830,59.740814 
	C1235.154785,59.740814 1232.734863,59.740814 1230.044189,59.740814 
	C1230.044189,169.536804 1230.044189,279.018402 1230.044189,389.500000 
M1422.554932,90.956688 
	C1416.825317,85.624313 1411.215576,80.152863 1405.290527,75.047195 
	C1403.589844,73.581726 1400.988892,72.429176 1398.783203,72.398628 
	C1382.796631,72.177147 1366.805542,72.271111 1350.815796,72.297783 
	C1349.614990,72.299789 1348.414795,72.553925 1346.684448,72.751282 
	C1347.542847,73.807114 1347.895508,74.364876 1348.363281,74.798599 
	C1370.342407,95.180962 1392.305542,115.580826 1414.385986,135.853027 
	C1415.671143,137.032883 1417.906738,137.673477 1419.715088,137.705231 
	C1429.705566,137.880722 1439.700806,137.789261 1449.694336,137.789276 
	C1456.947510,137.789291 1464.200806,137.789276 1473.082275,137.789276 
	C1455.642944,121.626312 1439.358398,106.533714 1422.554932,90.956688 
M562.316406,435.979218 
	C562.490051,440.621277 562.238525,445.325470 562.906494,449.895264 
	C567.236938,479.521454 597.399231,499.997894 627.107788,493.652405 
	C658.294250,486.991272 676.826660,457.262817 668.468384,427.304352 
	C661.792236,403.374725 638.940186,387.231049 613.787109,388.675110 
	C586.621460,390.234680 566.637756,408.323059 562.316406,435.979218 
M853.059082,436.705780 
	C850.568970,409.617676 829.040894,389.796509 800.811523,388.600769 
	C763.564087,387.023041 735.976196,423.128723 747.686646,458.127930 
	C756.103821,483.284454 782.316284,498.734802 809.035095,493.802612 
	C835.370667,488.941193 855.277832,466.343201 853.059082,436.705780 
M913.709839,483.111481 
	C894.885498,479.874298 882.868591,465.638397 881.447266,444.891602 
	C879.328308,413.961365 904.539001,392.568359 933.017395,401.122131 
	C942.017334,403.825317 948.516235,409.742096 953.671753,417.750793 
	C957.203247,414.897034 960.386414,412.324707 963.522522,409.790466 
	C949.221008,386.586578 917.722900,384.931671 898.965515,392.495270 
	C879.333984,400.411346 867.141296,421.378937 868.361450,443.999451 
	C869.239075,460.269501 874.690430,474.221527 887.850281,484.389740 
	C900.350647,494.048401 914.780640,496.043335 929.982971,493.959747 
	C957.447815,490.195435 972.661438,466.833008 969.968018,440.038727 
	C956.380737,440.038727 942.787354,440.038727 929.006714,440.038727 
	C929.006714,443.535522 929.006714,446.790710 929.006714,450.542603 
	C938.463257,450.542603 947.719238,450.542603 956.937073,450.542603 
	C957.877319,471.107910 937.213257,486.789642 913.709839,483.111481 
M477.403320,409.091370 
	C470.822906,401.942200 464.242493,394.793030 457.212463,387.155365 
	C457.212463,422.609802 457.212463,457.173340 457.212463,491.873352 
	C460.947083,491.873352 464.407379,491.873352 468.510986,491.873352 
	C468.510986,466.940277 468.510986,442.126465 468.510986,416.107269 
	C493.484192,443.044891 517.553650,469.007690 542.226929,495.621735 
	C542.226929,460.191254 542.226929,425.672424 542.226929,391.176025 
	C538.370300,391.176025 534.800720,391.176025 530.779663,391.176025 
	C530.779663,416.522369 530.779663,441.543549 530.779663,467.368652 
	C512.735901,447.666901 495.309845,428.639557 477.403320,409.091370 
M366.671295,468.500061 
	C366.671295,459.540924 366.671295,450.581818 366.671295,441.381653 
	C384.703156,441.381653 402.278442,441.381653 420.410339,441.381653 
	C420.410339,458.314697 420.410339,475.047882 420.410339,491.800751 
	C424.750763,491.800751 428.530823,491.800751 432.549194,491.800751 
	C432.549194,458.184113 432.549194,424.783478 432.549194,391.158997 
	C428.482452,391.158997 424.613037,391.158997 420.135864,391.158997 
	C420.135864,404.179352 420.135864,416.889832 420.135864,429.563171 
	C402.080963,429.563171 384.637451,429.563171 366.624817,429.563171 
	C366.624817,416.614471 366.624817,403.870178 366.624817,391.171600 
	C362.311096,391.171600 358.572266,391.171600 354.798523,391.171600 
	C354.798523,424.923645 354.798523,458.344482 354.798523,491.711426 
	C358.829407,491.711426 362.581818,491.711426 366.671265,491.711426 
	C366.671265,484.107513 366.671265,476.803772 366.671295,468.500061 
M283.469666,390.939331 
	C261.982727,398.682251 249.421158,413.863617 247.370239,436.590088 
	C245.405518,458.361298 253.888458,475.851959 272.845428,487.090240 
	C292.455780,498.715820 312.213928,496.904175 331.373779,485.296967 
	C332.405884,484.671631 333.793304,483.539612 333.847046,482.578156 
	C334.105804,477.948639 333.963440,473.296692 333.963440,467.762360 
	C314.300964,489.306244 287.871277,486.387299 273.233398,473.094849 
	C257.214233,458.548096 255.003311,432.053497 268.506897,415.100250 
	C275.102325,406.819916 283.703064,401.608307 294.170135,400.128571 
	C309.499603,397.961395 322.562225,402.942444 333.986389,415.030090 
	C333.986389,410.356049 333.722412,406.908142 334.061432,403.520569 
	C334.393311,400.204163 333.059875,398.458679 330.306732,396.828430 
	C315.783264,388.228424 300.474121,386.140167 283.469666,390.939331 
M1066.482910,480.869232 
	C1056.733765,480.869232 1046.984619,480.869232 1037.385620,480.869232 
	C1037.385620,467.481323 1037.385620,454.885529 1037.385620,441.788330 
	C1051.223999,441.788330 1064.777710,441.788330 1078.196411,441.788330 
	C1078.196411,437.878845 1078.196411,434.491394 1078.196411,430.733398 
	C1064.384644,430.733398 1050.946777,430.733398 1037.381836,430.733398 
	C1037.381836,420.950989 1037.381836,411.553467 1037.381836,401.805359 
	C1051.106812,401.805359 1064.548584,401.805359 1078.279053,401.805359 
	C1078.279053,398.046967 1078.279053,394.640778 1078.279053,391.158264 
	C1060.479980,391.158264 1042.916382,391.158264 1025.317261,391.158264 
	C1025.317261,424.868317 1025.317261,458.274628 1025.317261,491.690399 
	C1043.140259,491.690399 1060.695435,491.690399 1078.255493,491.690399 
	C1078.255493,487.956482 1078.255493,484.546509 1078.255493,480.869232 
	C1074.450195,480.869232 1070.961792,480.869232 1066.482910,480.869232 
M216.494888,401.845428 
	C221.278198,401.845428 226.061523,401.845428 230.922165,401.845428 
	C230.922165,397.908722 230.922165,394.518127 230.922165,391.080078 
	C213.188812,391.080078 195.768173,391.080078 178.296463,391.080078 
	C178.296463,424.826660 178.296463,458.351013 178.296463,491.737549 
	C196.095154,491.737549 213.532730,491.737549 230.974792,491.737549 
	C230.974792,488.056427 230.974792,484.644470 230.974792,480.852234 
	C217.298889,480.852234 203.875626,480.852234 190.225983,480.852234 
	C190.225983,467.745880 190.225983,455.030243 190.225983,441.802185 
	C204.030502,441.802185 217.583725,441.802185 230.874298,441.802185 
	C230.874298,437.876862 230.874298,434.468262 230.874298,430.690552 
	C217.095917,430.690552 203.673752,430.690552 190.263824,430.690552 
	C190.263824,420.887299 190.263824,411.477386 190.263824,401.845428 
	C198.871964,401.845428 207.184067,401.845428 216.494888,401.845428 
M1139.235352,477.632996 
	C1126.478394,490.164978 1112.422607,485.754608 1102.745850,465.932220 
	C1099.392212,467.597687 1096.041504,469.261658 1092.789062,470.876862 
	C1095.312744,485.177887 1106.349976,493.783325 1122.706177,494.530029 
	C1139.198364,495.283020 1152.540161,485.301941 1155.130615,470.273132 
	C1157.777832,454.914368 1152.067871,443.730804 1137.895020,436.841675 
	C1130.731079,433.359406 1123.214111,430.530762 1116.304932,426.615387 
	C1107.311157,421.518524 1105.119995,411.379364 1110.743530,404.103851 
	C1116.231934,397.003021 1127.645020,396.405060 1134.752686,402.998169 
	C1136.913330,405.002289 1138.681885,407.428986 1140.720337,409.765747 
	C1143.888306,407.713318 1147.042603,405.669739 1150.157349,403.651886 
	C1143.278809,391.017212 1130.490234,385.750397 1115.791748,389.316803 
	C1105.821045,391.736084 1098.386597,397.447845 1096.241211,407.746399 
	C1094.006714,418.473663 1097.015747,428.008942 1106.253052,434.644897 
	C1109.854858,437.232361 1114.039917,439.036285 1118.041382,441.032410 
	C1123.381226,443.696228 1129.129272,445.686859 1134.118286,448.878937 
	C1144.396362,455.455292 1146.401489,466.720917 1139.235352,477.632996 
M123.831360,436.499969 
	C123.831360,454.908813 123.831360,473.317657 123.831360,491.744141 
	C128.160309,491.744141 131.904343,491.744141 136.145660,491.744141 
	C136.145660,461.799347 136.145660,432.107849 136.145660,401.914978 
	C145.864090,401.914978 155.084686,401.914978 164.110138,401.914978 
	C164.110138,397.987030 164.110138,394.570801 164.110138,391.226685 
	C140.933945,391.226685 118.074921,391.226685 95.321259,391.226685 
	C95.321259,395.022614 95.321259,398.448303 95.321259,402.269104 
	C104.843193,402.269104 114.095665,402.269104 123.831352,402.269104 
	C123.831352,413.613739 123.831352,424.556854 123.831360,436.499969 
M702.080688,396.572357 
	C702.080688,394.789948 702.080688,393.007538 702.080688,391.114197 
	C697.874451,391.114197 694.145874,391.114197 690.413696,391.114197 
	C690.413696,424.875946 690.413696,458.382111 690.413696,491.741455 
	C707.214111,491.741455 723.648254,491.741455 739.974121,491.741455 
	C739.974121,487.912872 739.974121,484.352661 739.974121,480.365875 
	C727.185059,480.365875 714.758850,480.365875 702.080688,480.365875 
	C702.080688,452.471375 702.080688,425.013031 702.080688,396.572357 
M988.526123,482.436890 
	C988.526123,485.552063 988.526123,488.667236 988.526123,491.696167 
	C992.853821,491.696167 996.602966,491.696167 1000.352905,491.696167 
	C1000.352905,457.962921 1000.352905,424.551392 1000.352905,391.180176 
	C996.295044,391.180176 992.560120,391.180176 988.526245,391.180176 
	C988.526245,421.497284 988.526245,451.476532 988.526123,482.436890 
z"/>
<path fill="#3CB3C3" opacity="1.000000" stroke="none" 
	d="
M1543.981445,202.994049 
	C1555.325195,213.739639 1566.619995,224.537674 1578.027100,235.215668 
	C1588.847168,245.344040 1599.759033,255.375076 1610.705933,265.366364 
	C1611.973022,266.522827 1613.715210,267.894897 1615.249390,267.910034 
	C1633.177002,268.087311 1651.106812,268.023621 1670.148804,268.023621 
	C1646.728638,246.104965 1624.113037,224.939178 1600.584351,202.918869 
	C1603.503540,202.918869 1605.245850,202.918884 1606.988037,202.918869 
	C1621.812134,202.918671 1636.638306,203.051544 1651.459106,202.830215 
	C1655.459839,202.770477 1658.261841,204.080902 1661.133789,206.757294 
	C1698.293579,241.386093 1735.556396,275.904572 1772.801270,310.442200 
	C1774.860352,312.351593 1776.990967,314.183685 1779.593140,316.501190 
	C1773.857178,321.942413 1768.287231,327.301727 1762.635986,332.573853 
	C1739.867798,353.814392 1717.085327,375.039398 1694.287354,396.247955 
	C1672.833862,416.205627 1651.354370,436.135437 1629.477539,455.775085 
	C1630.340210,452.975739 1631.611572,450.478821 1633.050293,447.670227 
	C1635.190063,442.921631 1637.162476,438.484772 1639.379883,433.780457 
	C1640.707886,429.004028 1641.791016,424.495026 1642.958008,419.554932 
	C1643.394287,414.768341 1643.746948,410.412811 1644.308960,405.709961 
	C1643.800049,397.209656 1643.081909,389.056641 1642.315918,380.492493 
	C1638.642456,360.619232 1631.229126,342.810242 1618.760620,327.325104 
	C1615.915283,323.791260 1612.311890,320.867706 1609.057373,317.663269 
	C1607.712646,316.037415 1606.532471,314.234344 1604.999390,312.811462 
	C1566.807495,277.368500 1528.580322,241.963547 1490.343994,206.568451 
	C1489.385498,205.681213 1488.253296,204.981720 1487.202026,204.194641 
	C1487.381104,203.757416 1487.560181,203.320206 1487.739136,202.882980 
	C1505.754395,202.882980 1523.769531,202.882980 1542.558105,202.922134 
	C1543.548218,202.972183 1543.764771,202.983093 1543.981445,202.994049 
z"/>
<path fill="#3CB3C3" opacity="1.000000" stroke="none" 
	d="
M1467.473999,227.574829 
	C1476.072998,235.422668 1484.738647,243.199005 1493.258301,251.132156 
	C1516.175537,272.471924 1539.031982,293.877136 1561.903198,315.266235 
	C1562.613403,315.930328 1563.222534,316.702606 1563.789673,317.326477 
	C1507.341431,369.646576 1451.036499,421.856903 1394.648682,473.977631 
	C1393.104248,475.405212 1390.672974,476.657043 1388.649414,476.666260 
	C1353.167480,476.828217 1317.684448,476.783295 1282.201782,476.783295 
	C1281.798706,476.359070 1281.395752,475.934845 1280.992676,475.510651 
	C1282.992310,473.946838 1285.117188,472.518341 1286.973389,470.799622 
	C1339.533325,422.132111 1392.072632,373.442261 1444.584351,324.722626 
	C1447.230469,322.267609 1449.599121,319.513519 1452.462891,316.506775 
	C1454.313354,314.854248 1455.962280,313.741974 1457.255859,312.308899 
	C1466.108398,302.502655 1470.652588,290.589050 1473.949951,277.620697 
	C1474.338745,271.818634 1474.593872,266.416290 1474.911255,260.558777 
	C1474.637573,255.737320 1474.301758,251.370956 1473.988037,246.612640 
	C1472.625732,242.488556 1471.241455,238.756439 1469.807861,234.674271 
	C1468.997070,232.074417 1468.235474,229.824615 1467.473999,227.574829 
z"/>
<path fill="#0193DD" opacity="1.000000" stroke="none" 
	d="
M1570.231323,511.101440 
	C1552.656372,527.631287 1535.101440,544.182556 1517.451538,560.631958 
	C1516.506226,561.512939 1514.761841,561.904602 1513.389160,561.905640 
	C1458.109985,561.947388 1402.830688,561.917969 1347.551514,561.891296 
	C1347.403320,561.891235 1347.255127,561.798706 1346.294434,561.479004 
	C1393.382202,517.822021 1440.169800,474.443237 1487.597168,431.083374 
	C1492.348145,435.424866 1496.350586,439.857727 1500.599609,444.040161 
	C1505.208740,448.576996 1510.141235,452.784485 1514.769409,457.302917 
	C1532.378174,474.494507 1549.916992,491.757507 1567.500610,508.974976 
	C1568.319580,509.776917 1569.317017,510.396759 1570.231323,511.101440 
z"/>
<path fill="#211C19" opacity="1.000000" stroke="none" 
	d="
M352.484863,283.436401 
	C373.306793,235.824066 393.936279,188.539581 415.032837,140.184555 
	C443.272217,204.643204 471.026276,267.994110 498.948029,331.727814 
	C490.825104,331.727814 483.105652,331.727814 475.123413,331.727814 
	C467.857330,314.620941 460.408875,297.394104 453.279816,280.036102 
	C451.873749,276.612610 450.316589,275.244781 446.478027,275.281860 
	C425.481476,275.484772 404.480927,275.479126 383.484283,275.279602 
	C380.019714,275.246704 378.515076,276.446869 377.268707,279.460266 
	C370.538727,295.731720 363.621246,311.925598 356.776123,328.149475 
	C355.872864,330.290314 355.235840,332.110016 352.024811,332.097229 
	C314.907928,331.949036 277.790253,332.000763 240.672791,331.985748 
	C240.208878,331.985565 239.745010,331.806763 239.096863,331.673462 
	C239.096863,270.485077 239.096863,209.382401 239.096863,147.886749 
	C246.137741,147.886749 253.175766,147.886749 260.703064,147.886749 
	C260.703064,202.108780 260.703064,256.324921 260.703064,310.938354 
	C284.109070,310.938354 307.037201,310.938354 330.381958,310.938354 
	C330.381958,317.772217 330.381958,324.226135 330.381958,330.680084 
	C330.810059,330.807617 331.238129,330.935150 331.666229,331.062683 
	C338.541626,315.296539 345.416992,299.530365 352.484863,283.436401 
M432.478607,228.995300 
	C426.805573,215.903046 421.132568,202.810776 415.017517,188.698349 
	C404.938049,212.034561 395.384583,234.152954 385.746185,256.467957 
	C405.568146,256.467957 424.629028,256.467957 444.306427,256.467957 
	C440.361481,247.253250 436.597626,238.461472 432.478607,228.995300 
z"/>
<path fill="#211C19" opacity="1.000000" stroke="none" 
	d="
M987.555420,154.406372 
	C1021.472046,173.143204 1039.493896,201.425674 1039.914429,239.953705 
	C1040.399536,284.387390 1010.267517,322.431915 966.634949,333.595856 
	C916.111084,346.523010 865.134949,319.637207 847.750732,270.893951 
	C831.794128,226.153809 853.625977,174.042480 896.723938,153.798233 
	C926.987366,139.582733 957.130737,139.994324 987.555420,154.406372 
M1000.424255,192.123474 
	C980.413757,168.624878 955.015991,159.273315 924.958374,165.667038 
	C890.026184,173.097687 867.020203,202.168625 865.736694,238.313568 
	C863.754333,294.139587 922.957153,333.021454 973.362122,308.997284 
	C1017.757996,287.837189 1030.658569,233.282013 1000.424255,192.123474 
z"/>
<path fill="#211C19" opacity="1.000000" stroke="none" 
	d="
M655.222900,318.780701 
	C616.606873,277.115814 578.232910,235.710678 539.219421,193.615570 
	C539.219421,240.114716 539.219421,285.785492 539.219421,331.728668 
	C532.007751,331.728668 525.277039,331.728668 518.292480,331.728668 
	C518.292480,268.278900 518.292480,204.900650 518.292480,140.452850 
	C563.304871,189.570892 607.768250,238.089798 652.921509,287.361542 
	C652.921509,240.341675 652.921509,194.187714 652.921509,147.766449 
	C660.235046,147.766449 666.988159,147.766449 673.868774,147.766449 
	C673.868774,211.243469 673.868774,274.481964 673.868774,338.868561 
	C667.299316,331.790680 661.382080,325.415558 655.222900,318.780701 
z"/>
<path fill="#231E1B" opacity="1.000000" stroke="none" 
	d="
M138.016663,240.945129 
	C133.888168,240.945129 130.256088,240.945129 126.368088,240.945129 
	C126.368088,264.550751 126.368088,287.791260 126.368088,311.566772 
	C151.360840,311.566772 176.251099,311.566772 201.416077,311.566772 
	C201.416077,318.505585 201.416077,324.915161 201.416077,331.667572 
	C169.189407,331.667572 136.973221,331.667572 104.447876,331.667572 
	C104.447876,270.522369 104.447876,209.308121 104.447876,147.790131 
	C136.680771,147.790131 168.909286,147.790131 201.418182,147.790131 
	C201.418182,154.255722 201.418182,160.518875 201.418182,167.335571 
	C176.586777,167.335571 151.691147,167.335571 126.453522,167.335571 
	C126.453522,185.254761 126.453522,202.627396 126.453522,220.382278 
	C151.362305,220.382278 176.130463,220.382278 201.296814,220.382278 
	C201.296814,227.282166 201.296814,233.816391 201.296814,240.945129 
	C180.363754,240.945129 159.438416,240.945129 138.016663,240.945129 
z"/>
<path fill="#221D1A" opacity="1.000000" stroke="none" 
	d="
M734.639404,192.113327 
	C736.052124,202.110245 741.853210,208.731842 749.931641,212.957169 
	C760.955017,218.722778 772.440918,223.604218 783.732361,228.856628 
	C786.291992,230.047272 788.921814,231.098618 791.426575,232.393600 
	C815.313782,244.743454 825.833496,266.368042 820.760010,292.594269 
	C816.008789,317.154358 796.938171,334.285736 770.913696,335.902008 
	C761.287415,336.499847 751.078064,335.936768 741.869080,333.319092 
	C722.494507,327.811890 711.395996,313.597046 706.190430,293.850372 
	C712.673096,290.631805 719.117249,287.432373 725.820862,284.104126 
	C727.271423,288.138947 728.400208,291.953522 729.982788,295.569519 
	C739.172180,316.566315 761.789856,324.358063 782.112732,313.620483 
	C803.068359,302.548584 805.983398,272.745850 787.251099,257.077026 
	C781.857483,252.565506 775.349548,249.211761 768.981934,246.080765 
	C759.898682,241.614410 750.312561,238.171066 741.226379,233.710007 
	C717.859253,222.237473 707.036926,199.210861 713.924927,175.786118 
	C718.369263,160.671585 729.120483,151.405609 743.516663,146.368469 
	C756.443604,141.845413 769.705627,141.940674 782.828064,145.869995 
	C795.977234,149.807343 805.335022,158.293777 811.813538,170.964935 
	C805.817871,174.797531 799.867920,178.600937 794.136292,182.264755 
	C790.658020,178.050491 787.774841,173.934753 784.273560,170.437897 
	C775.604980,161.780319 764.945068,159.635773 753.389282,162.670120 
	C740.313232,166.103622 733.063477,177.678177 734.639404,192.113327 
z"/>
<path fill="#211C19" opacity="1.000000" stroke="none" 
	d="
M1097.882812,255.000046 
	C1097.882812,273.802826 1097.882812,292.105591 1097.882812,310.821533 
	C1120.973389,310.821533 1143.877930,310.821533 1167.184814,310.821533 
	C1167.184814,317.923981 1167.184814,324.630615 1167.184814,331.673615 
	C1137.067627,331.673615 1106.852295,331.673615 1076.278931,331.673615 
	C1076.278931,270.551422 1076.278931,209.240234 1076.278931,147.711975 
	C1083.317139,147.711975 1090.256104,147.711975 1097.882812,147.711975 
	C1097.882812,183.405380 1097.882812,218.952698 1097.882812,255.000046 
z"/>
<path fill="#0294DD" opacity="1.000000" stroke="none" 
	d="
M1369.624268,239.157440 
	C1352.862549,223.731674 1336.083740,208.324524 1319.344849,192.873978 
	C1306.776733,181.273041 1294.260010,169.616302 1281.006592,157.322250 
	C1283.280029,157.212753 1284.664917,157.088730 1286.049683,157.087936 
	C1307.681641,157.075653 1329.314575,156.986267 1350.944214,157.205734 
	C1353.439453,157.231049 1356.465210,158.386826 1358.314575,160.051834 
	C1371.173218,171.628891 1383.856079,183.404953 1396.420288,195.302094 
	C1399.030762,197.773895 1401.602295,199.314316 1405.600098,199.255981 
	C1405.441528,200.866623 1405.125366,202.232452 1404.298340,203.125427 
	C1396.410767,211.643127 1388.482666,220.124786 1380.466187,228.521103 
	C1376.971924,232.180862 1373.245239,235.618744 1369.624268,239.157440 
z"/>
<path fill="#221D1A" opacity="1.000000" stroke="none" 
	d="
M1230.044189,389.000000 
	C1230.044189,279.018402 1230.044189,169.536804 1230.044189,59.740814 
	C1232.734863,59.740814 1235.154785,59.740814 1237.975830,59.740814 
	C1237.975830,231.290436 1237.975830,402.835632 1237.975830,574.663696 
	C1235.610229,574.663696 1233.176025,574.663696 1230.044189,574.663696 
	C1230.044189,513.014648 1230.044189,451.257324 1230.044189,389.000000 
z"/>
<path fill="#3EB4C4" opacity="1.000000" stroke="none" 
	d="
M1422.814453,91.198898 
	C1439.358398,106.533714 1455.642944,121.626312 1473.082275,137.789276 
	C1464.200806,137.789276 1456.947510,137.789291 1449.694336,137.789276 
	C1439.700806,137.789261 1429.705566,137.880722 1419.715088,137.705231 
	C1417.906738,137.673477 1415.671143,137.032883 1414.385986,135.853027 
	C1392.305542,115.580826 1370.342407,95.180962 1348.363281,74.798599 
	C1347.895508,74.364876 1347.542847,73.807114 1346.684448,72.751282 
	C1348.414795,72.553925 1349.614990,72.299789 1350.815796,72.297783 
	C1366.805542,72.271111 1382.796631,72.177147 1398.783203,72.398628 
	C1400.988892,72.429176 1403.589844,73.581726 1405.290527,75.047195 
	C1411.215576,80.152863 1416.825317,85.624313 1422.814453,91.198898 
z"/>
<path fill="#3EB4C4" opacity="1.000000" stroke="none" 
	d="
M1528.827637,137.926147 
	C1527.945068,136.629852 1527.268433,135.112198 1526.149170,134.070038 
	C1505.429810,114.777451 1484.654297,95.545235 1463.906250,76.283516 
	C1462.881714,75.332268 1461.999268,74.227791 1460.211060,72.280121 
	C1466.298584,72.280121 1471.226929,72.280098 1476.155273,72.280128 
	C1488.147583,72.280205 1500.140991,72.192787 1512.130859,72.367500 
	C1514.103882,72.396240 1516.561035,73.030281 1517.949585,74.304962 
	C1540.154541,94.687752 1562.223877,115.218605 1584.310059,135.730682 
	C1584.736328,136.126587 1584.995117,136.702667 1585.784546,137.855270 
	C1567.331543,137.855270 1549.578003,137.855270 1531.009521,137.919907 
	C1529.738892,137.965073 1529.283325,137.945602 1528.827637,137.926147 
z"/>
<path fill="#3DB4C3" opacity="1.000000" stroke="none" 
	d="
M1528.376587,137.862900 
	C1529.283325,137.945602 1529.738892,137.965073 1530.535645,137.975586 
	C1542.250977,148.654404 1553.597290,159.372131 1565.007568,170.021469 
	C1575.821411,180.114029 1586.705566,190.131302 1597.545166,200.196396 
	C1598.213989,200.817276 1598.764526,201.565475 1599.986938,202.956207 
	C1581.026367,202.956207 1562.973633,202.956207 1544.451172,202.975113 
	C1543.764771,202.983093 1543.548218,202.972183 1543.006836,202.928833 
	C1532.045288,192.866959 1521.441162,182.802368 1510.762695,172.817444 
	C1498.628174,161.471191 1486.427002,150.196045 1473.080933,137.799683 
	C1492.290161,137.799683 1510.107788,137.799683 1528.376587,137.862900 
z"/>
<path fill="#241F1C" opacity="1.000000" stroke="none" 
	d="
M562.406494,435.540222 
	C566.637756,408.323059 586.621460,390.234680 613.787109,388.675110 
	C638.940186,387.231049 661.792236,403.374725 668.468384,427.304352 
	C676.826660,457.262817 658.294250,486.991272 627.107788,493.652405 
	C597.399231,499.997894 567.236938,479.521454 562.906494,449.895264 
	C562.238525,445.325470 562.490051,440.621277 562.406494,435.540222 
M582.968628,466.462738 
	C591.979858,477.984375 603.637939,483.815887 618.418640,483.169495 
	C641.787231,482.147522 660.505981,460.394287 657.616211,437.514587 
	C654.419006,412.200928 631.938843,395.457245 607.976074,400.541626 
	C578.279968,406.842468 565.327881,440.103088 582.968628,466.462738 
z"/>
<path fill="#241F1C" opacity="1.000000" stroke="none" 
	d="
M853.076050,437.180878 
	C855.277832,466.343201 835.370667,488.941193 809.035095,493.802612 
	C782.316284,498.734802 756.103821,483.284454 747.686646,458.127930 
	C735.976196,423.128723 763.564087,387.023041 800.811523,388.600769 
	C829.040894,389.796509 850.568970,409.617676 853.076050,437.180878 
M836.506653,423.166229 
	C828.028992,407.302582 814.920593,399.117950 796.817871,399.960052 
	C780.135742,400.736053 768.103638,409.310364 761.438538,424.290680 
	C754.627686,439.598633 756.327332,454.610016 767.061279,467.830170 
	C777.516663,480.707153 791.414246,485.707214 807.552307,482.370056 
	C834.131653,476.873871 847.454651,449.778351 836.506653,423.166229 
z"/>
<path fill="#231E1B" opacity="1.000000" stroke="none" 
	d="
M914.137024,483.162323 
	C937.213257,486.789642 957.877319,471.107910 956.937073,450.542603 
	C947.719238,450.542603 938.463257,450.542603 929.006714,450.542603 
	C929.006714,446.790710 929.006714,443.535522 929.006714,440.038727 
	C942.787354,440.038727 956.380737,440.038727 969.968018,440.038727 
	C972.661438,466.833008 957.447815,490.195435 929.982971,493.959747 
	C914.780640,496.043335 900.350647,494.048401 887.850281,484.389740 
	C874.690430,474.221527 869.239075,460.269501 868.361450,443.999451 
	C867.141296,421.378937 879.333984,400.411346 898.965515,392.495270 
	C917.722900,384.931671 949.221008,386.586578 963.522522,409.790466 
	C960.386414,412.324707 957.203247,414.897034 953.671753,417.750793 
	C948.516235,409.742096 942.017334,403.825317 933.017395,401.122131 
	C904.539001,392.568359 879.328308,413.961365 881.447266,444.891602 
	C882.868591,465.638397 894.885498,479.874298 914.137024,483.162323 
z"/>
<path fill="#241F1D" opacity="1.000000" stroke="none" 
	d="
M477.643555,409.351807 
	C495.309845,428.639557 512.735901,447.666901 530.779663,467.368652 
	C530.779663,441.543549 530.779663,416.522369 530.779663,391.176025 
	C534.800720,391.176025 538.370300,391.176025 542.226929,391.176025 
	C542.226929,425.672424 542.226929,460.191254 542.226929,495.621735 
	C517.553650,469.007690 493.484192,443.044891 468.510986,416.107269 
	C468.510986,442.126465 468.510986,466.940277 468.510986,491.873352 
	C464.407379,491.873352 460.947083,491.873352 457.212463,491.873352 
	C457.212463,457.173340 457.212463,422.609802 457.212463,387.155365 
	C464.242493,394.793030 470.822906,401.942200 477.643555,409.351807 
z"/>
<path fill="#27221F" opacity="1.000000" stroke="none" 
	d="
M366.671265,469.000061 
	C366.671265,476.803772 366.671265,484.107513 366.671265,491.711426 
	C362.581818,491.711426 358.829407,491.711426 354.798523,491.711426 
	C354.798523,458.344482 354.798523,424.923645 354.798523,391.171600 
	C358.572266,391.171600 362.311096,391.171600 366.624817,391.171600 
	C366.624817,403.870178 366.624817,416.614471 366.624817,429.563171 
	C384.637451,429.563171 402.080963,429.563171 420.135864,429.563171 
	C420.135864,416.889832 420.135864,404.179352 420.135864,391.158997 
	C424.613037,391.158997 428.482452,391.158997 432.549194,391.158997 
	C432.549194,424.783478 432.549194,458.184113 432.549194,491.800751 
	C428.530823,491.800751 424.750763,491.800751 420.410339,491.800751 
	C420.410339,475.047882 420.410339,458.314697 420.410339,441.381653 
	C402.278442,441.381653 384.703156,441.381653 366.671295,441.381653 
	C366.671295,450.581818 366.671295,459.540924 366.671265,469.000061 
z"/>
<path fill="#241F1D" opacity="1.000000" stroke="none" 
	d="
M283.855591,390.828979 
	C300.474121,386.140167 315.783264,388.228424 330.306732,396.828430 
	C333.059875,398.458679 334.393311,400.204163 334.061432,403.520569 
	C333.722412,406.908142 333.986389,410.356049 333.986389,415.030090 
	C322.562225,402.942444 309.499603,397.961395 294.170135,400.128571 
	C283.703064,401.608307 275.102325,406.819916 268.506897,415.100250 
	C255.003311,432.053497 257.214233,458.548096 273.233398,473.094849 
	C287.871277,486.387299 314.300964,489.306244 333.963440,467.762360 
	C333.963440,473.296692 334.105804,477.948639 333.847046,482.578156 
	C333.793304,483.539612 332.405884,484.671631 331.373779,485.296967 
	C312.213928,496.904175 292.455780,498.715820 272.845428,487.090240 
	C253.888458,475.851959 245.405518,458.361298 247.370239,436.590088 
	C249.421158,413.863617 261.982727,398.682251 283.855591,390.828979 
z"/>
<path fill="#221D1A" opacity="1.000000" stroke="none" 
	d="
M1066.978149,480.869232 
	C1070.961792,480.869232 1074.450195,480.869232 1078.255493,480.869232 
	C1078.255493,484.546509 1078.255493,487.956482 1078.255493,491.690399 
	C1060.695435,491.690399 1043.140259,491.690399 1025.317261,491.690399 
	C1025.317261,458.274628 1025.317261,424.868317 1025.317261,391.158264 
	C1042.916382,391.158264 1060.479980,391.158264 1078.279053,391.158264 
	C1078.279053,394.640778 1078.279053,398.046967 1078.279053,401.805359 
	C1064.548584,401.805359 1051.106812,401.805359 1037.381836,401.805359 
	C1037.381836,411.553467 1037.381836,420.950989 1037.381836,430.733398 
	C1050.946777,430.733398 1064.384644,430.733398 1078.196411,430.733398 
	C1078.196411,434.491394 1078.196411,437.878845 1078.196411,441.788330 
	C1064.777710,441.788330 1051.223999,441.788330 1037.385620,441.788330 
	C1037.385620,454.885529 1037.385620,467.481323 1037.385620,480.869232 
	C1046.984619,480.869232 1056.733765,480.869232 1066.978149,480.869232 
z"/>
<path fill="#201B18" opacity="1.000000" stroke="none" 
	d="
M215.995514,401.845428 
	C207.184067,401.845428 198.871964,401.845428 190.263824,401.845428 
	C190.263824,411.477386 190.263824,420.887299 190.263824,430.690552 
	C203.673752,430.690552 217.095917,430.690552 230.874298,430.690552 
	C230.874298,434.468262 230.874298,437.876862 230.874298,441.802185 
	C217.583725,441.802185 204.030502,441.802185 190.225983,441.802185 
	C190.225983,455.030243 190.225983,467.745880 190.225983,480.852234 
	C203.875626,480.852234 217.298889,480.852234 230.974792,480.852234 
	C230.974792,484.644470 230.974792,488.056427 230.974792,491.737549 
	C213.532730,491.737549 196.095154,491.737549 178.296463,491.737549 
	C178.296463,458.351013 178.296463,424.826660 178.296463,391.080078 
	C195.768173,391.080078 213.188812,391.080078 230.922165,391.080078 
	C230.922165,394.518127 230.922165,397.908722 230.922165,401.845428 
	C226.061523,401.845428 221.278198,401.845428 215.995514,401.845428 
z"/>
<path fill="#241F1C" opacity="1.000000" stroke="none" 
	d="
M1139.491699,477.356659 
	C1146.401489,466.720917 1144.396362,455.455292 1134.118286,448.878937 
	C1129.129272,445.686859 1123.381226,443.696228 1118.041382,441.032410 
	C1114.039917,439.036285 1109.854858,437.232361 1106.253052,434.644897 
	C1097.015747,428.008942 1094.006714,418.473663 1096.241211,407.746399 
	C1098.386597,397.447845 1105.821045,391.736084 1115.791748,389.316803 
	C1130.490234,385.750397 1143.278809,391.017212 1150.157349,403.651886 
	C1147.042603,405.669739 1143.888306,407.713318 1140.720337,409.765747 
	C1138.681885,407.428986 1136.913330,405.002289 1134.752686,402.998169 
	C1127.645020,396.405060 1116.231934,397.003021 1110.743530,404.103851 
	C1105.119995,411.379364 1107.311157,421.518524 1116.304932,426.615387 
	C1123.214111,430.530762 1130.731079,433.359406 1137.895020,436.841675 
	C1152.067871,443.730804 1157.777832,454.914368 1155.130615,470.273132 
	C1152.540161,485.301941 1139.198364,495.283020 1122.706177,494.530029 
	C1106.349976,493.783325 1095.312744,485.177887 1092.789062,470.876862 
	C1096.041504,469.261658 1099.392212,467.597687 1102.745850,465.932220 
	C1112.422607,485.754608 1126.478394,490.164978 1139.491699,477.356659 
z"/>
<path fill="#096BAD" opacity="1.000000" stroke="none" 
	d="
M1613.213257,471.072998 
	C1609.056641,475.046753 1604.900024,479.020508 1600.288086,482.807343 
	C1594.672485,477.697174 1589.451538,472.835541 1584.362305,467.839844 
	C1563.462524,447.324615 1542.588135,426.783417 1521.765015,406.190399 
	C1520.534790,404.973816 1519.835327,403.220459 1518.888916,401.716858 
	C1522.237305,398.497223 1525.585693,395.277618 1529.573730,392.072235 
	C1537.459961,398.875641 1544.822876,405.545471 1551.930542,412.477020 
	C1570.805786,430.884399 1589.555054,449.420898 1608.413330,467.845825 
	C1609.769653,469.170929 1611.602173,470.008636 1613.213257,471.072998 
z"/>
<path fill="#201B18" opacity="1.000000" stroke="none" 
	d="
M123.831360,435.999939 
	C123.831352,424.556854 123.831352,413.613739 123.831352,402.269104 
	C114.095665,402.269104 104.843193,402.269104 95.321259,402.269104 
	C95.321259,398.448303 95.321259,395.022614 95.321259,391.226685 
	C118.074921,391.226685 140.933945,391.226685 164.110138,391.226685 
	C164.110138,394.570801 164.110138,397.987030 164.110138,401.914978 
	C155.084686,401.914978 145.864090,401.914978 136.145660,401.914978 
	C136.145660,432.107849 136.145660,461.799347 136.145660,491.744141 
	C131.904343,491.744141 128.160309,491.744141 123.831360,491.744141 
	C123.831360,473.317657 123.831360,454.908813 123.831360,435.999939 
z"/>
<path fill="#0C5694" opacity="1.000000" stroke="none" 
	d="
M1632.882935,447.981873 
	C1631.611572,450.478821 1630.340210,452.975739 1629.143311,455.829071 
	C1629.218018,456.185455 1629.204224,456.152191 1628.914795,456.149841 
	C1628.401611,456.433075 1628.177734,456.718658 1627.953979,457.004272 
	C1626.506836,458.590118 1625.059692,460.175934 1622.959961,461.842651 
	C1621.247559,461.158112 1620.068359,460.514587 1619.145752,459.609375 
	C1598.943970,439.787750 1578.779175,419.928558 1558.587036,400.097137 
	C1552.432983,394.052948 1546.218262,388.070465 1540.031372,382.059692 
	C1543.576904,378.678436 1547.122314,375.297180 1551.313965,371.940613 
	C1552.858765,372.695862 1553.823975,373.358459 1554.645752,374.166901 
	C1576.915161,396.077942 1599.170776,418.002930 1621.425537,439.928772 
	C1623.202515,441.679565 1624.773438,443.709717 1626.775513,445.140747 
	C1628.570923,446.424103 1630.828979,447.060242 1632.882935,447.981873 
z"/>
<path fill="#0387D0" opacity="1.000000" stroke="none" 
	d="
M1570.535645,510.979065 
	C1569.317017,510.396759 1568.319580,509.776917 1567.500610,508.974976 
	C1549.916992,491.757507 1532.378174,474.494507 1514.769409,457.302917 
	C1510.141235,452.784485 1505.208740,448.576996 1500.599609,444.040161 
	C1496.350586,439.857727 1492.348145,435.424866 1487.894653,430.960144 
	C1491.172607,427.330444 1494.792725,423.842896 1498.756836,420.584229 
	C1500.359253,422.518860 1501.397949,424.457977 1502.916016,425.888245 
	C1508.223755,430.889435 1513.833618,435.573486 1519.081055,440.634796 
	C1532.948120,454.010193 1546.759033,467.445953 1560.443237,481.008118 
	C1567.249023,487.753265 1573.727173,494.828857 1580.353516,501.754944 
	C1577.182373,504.788849 1574.011108,507.822754 1570.535645,510.979065 
z"/>
<path fill="#0676BB" opacity="1.000000" stroke="none" 
	d="
M1518.576416,401.856262 
	C1519.835327,403.220459 1520.534790,404.973816 1521.765015,406.190399 
	C1542.588135,426.783417 1563.462524,447.324615 1584.362305,467.839844 
	C1589.451538,472.835541 1594.672485,477.697174 1599.975098,482.942535 
	C1597.239868,486.077972 1594.362305,488.891327 1590.827637,491.799774 
	C1588.284912,490.601074 1586.170166,489.542908 1584.553223,487.972382 
	C1577.826660,481.438995 1571.304077,474.696167 1564.607056,468.131897 
	C1551.876953,455.653992 1539.023560,443.301544 1526.332031,430.784790 
	C1520.078003,424.617126 1514.070923,418.199341 1507.952026,411.894775 
	C1511.389404,408.595123 1514.826782,405.295410 1518.576416,401.856262 
z"/>
<path fill="#0F4A87" opacity="1.000000" stroke="none" 
	d="
M1633.050293,447.670197 
	C1630.828979,447.060242 1628.570923,446.424103 1626.775513,445.140747 
	C1624.773438,443.709717 1623.202515,441.679565 1621.425537,439.928772 
	C1599.170776,418.002930 1576.915161,396.077942 1554.645752,374.166901 
	C1553.823975,373.358459 1552.858765,372.695862 1551.595093,371.798523 
	C1551.305420,371.482391 1551.380859,371.333038 1551.935059,370.991272 
	C1552.601685,370.507477 1552.789551,370.216125 1552.977295,369.924744 
	C1555.854858,367.213348 1558.732422,364.501984 1562.246338,361.835571 
	C1565.136719,364.281494 1567.281006,366.797852 1569.663452,369.064087 
	C1581.188721,380.027771 1592.858398,390.840576 1604.316895,401.873169 
	C1612.225830,409.488251 1619.749512,417.504913 1627.696289,425.078888 
	C1631.187378,428.406219 1635.302979,431.078339 1639.135010,434.047913 
	C1637.162476,438.484772 1635.190063,442.921631 1633.050293,447.670197 
z"/>
<path fill="#201B18" opacity="1.000000" stroke="none" 
	d="
M702.080688,397.063538 
	C702.080688,425.013031 702.080688,452.471375 702.080688,480.365875 
	C714.758850,480.365875 727.185059,480.365875 739.974121,480.365875 
	C739.974121,484.352661 739.974121,487.912872 739.974121,491.741455 
	C723.648254,491.741455 707.214111,491.741455 690.413696,491.741455 
	C690.413696,458.382111 690.413696,424.875946 690.413696,391.114197 
	C694.145874,391.114197 697.874451,391.114197 702.080688,391.114197 
	C702.080688,393.007538 702.080688,394.789948 702.080688,397.063538 
z"/>
<path fill="#0B60A1" opacity="1.000000" stroke="none" 
	d="
M1539.716797,382.171295 
	C1546.218262,388.070465 1552.432983,394.052948 1558.587036,400.097137 
	C1578.779175,419.928558 1598.943970,439.787750 1619.145752,459.609375 
	C1620.068359,460.514587 1621.247559,461.158112 1622.651611,461.958130 
	C1619.937988,464.939423 1616.880005,467.886017 1613.517578,470.952789 
	C1611.602173,470.008636 1609.769653,469.170929 1608.413330,467.845825 
	C1589.555054,449.420898 1570.805786,430.884399 1551.930542,412.477020 
	C1544.822876,405.545471 1537.459961,398.875641 1529.870972,391.950195 
	C1532.819702,388.636932 1536.110840,385.459930 1539.716797,382.171295 
z"/>
<path fill="#047FC5" opacity="1.000000" stroke="none" 
	d="
M1507.637939,412.017090 
	C1514.070923,418.199341 1520.078003,424.617126 1526.332031,430.784790 
	C1539.023560,443.301544 1551.876953,455.653992 1564.607056,468.131897 
	C1571.304077,474.696167 1577.826660,481.438995 1584.553223,487.972382 
	C1586.170166,489.542908 1588.284912,490.601074 1590.513184,491.923462 
	C1587.558228,495.107483 1584.260742,498.262878 1580.658447,501.586609 
	C1573.727173,494.828857 1567.249023,487.753265 1560.443237,481.008118 
	C1546.759033,467.445953 1532.948120,454.010193 1519.081055,440.634796 
	C1513.833618,435.573486 1508.223755,430.889435 1502.916016,425.888245 
	C1501.397949,424.457977 1500.359253,422.518860 1499.066406,420.470337 
	C1501.795898,417.464844 1504.559814,414.802124 1507.637939,412.017090 
z"/>
<path fill="#153067" opacity="1.000000" stroke="none" 
	d="
M1642.363770,380.903625 
	C1643.081909,389.056641 1643.800049,397.209656 1643.990234,405.568848 
	C1642.231445,404.938568 1640.865112,404.246765 1639.791870,403.242004 
	C1633.119751,396.995361 1626.422363,390.771088 1619.906250,384.363373 
	C1610.047485,374.668671 1600.436035,364.720581 1590.495972,355.111359 
	C1586.981812,351.714142 1582.812500,348.994507 1578.942261,345.965576 
	C1583.410889,341.691620 1587.879395,337.417664 1592.703613,333.378662 
	C1593.243774,334.071960 1593.307251,334.653503 1593.630249,334.970947 
	C1608.937866,350.010529 1624.257324,365.038116 1639.634644,380.006226 
	C1640.251221,380.606476 1641.440918,380.617889 1642.363770,380.903625 
z"/>
<path fill="#27221F" opacity="1.000000" stroke="none" 
	d="
M988.526184,481.946320 
	C988.526245,451.476532 988.526245,421.497284 988.526245,391.180176 
	C992.560120,391.180176 996.295044,391.180176 1000.352905,391.180176 
	C1000.352905,424.551392 1000.352905,457.962921 1000.352905,491.696167 
	C996.602966,491.696167 992.853821,491.696167 988.526123,491.696167 
	C988.526123,488.667236 988.526123,485.552063 988.526184,481.946320 
z"/>
<path fill="#11417C" opacity="1.000000" stroke="none" 
	d="
M1639.379883,433.780487 
	C1635.302979,431.078339 1631.187378,428.406219 1627.696289,425.078888 
	C1619.749512,417.504913 1612.225830,409.488251 1604.316895,401.873169 
	C1592.858398,390.840576 1581.188721,380.027771 1569.663452,369.064087 
	C1567.281006,366.797852 1565.136719,364.281494 1562.520386,361.678467 
	C1565.067261,358.619568 1567.976318,355.762695 1571.537109,353.021545 
	C1573.598145,354.499207 1574.984985,355.885498 1576.421143,357.218689 
	C1581.716675,362.135376 1587.163086,366.898163 1592.308350,371.966797 
	C1605.749390,385.207336 1618.991211,398.650665 1632.477539,411.844330 
	C1635.604858,414.903931 1639.391113,417.289978 1642.874146,419.986023 
	C1641.791016,424.495026 1640.707886,429.004028 1639.379883,433.780487 
z"/>
<path fill="#182358" opacity="1.000000" stroke="none" 
	d="
M1642.315918,380.492493 
	C1641.440918,380.617889 1640.251221,380.606476 1639.634644,380.006226 
	C1624.257324,365.038116 1608.937866,350.010529 1593.630249,334.970947 
	C1593.307251,334.653503 1593.243774,334.071960 1593.021973,333.263092 
	C1598.152466,327.977325 1603.320190,323.042084 1608.772705,317.885040 
	C1612.311890,320.867706 1615.915283,323.791260 1618.760620,327.325104 
	C1631.229126,342.810242 1638.642456,360.619232 1642.315918,380.492493 
z"/>
<path fill="#123973" opacity="1.000000" stroke="none" 
	d="
M1642.958008,419.554932 
	C1639.391113,417.289978 1635.604858,414.903931 1632.477539,411.844330 
	C1618.991211,398.650665 1605.749390,385.207336 1592.308350,371.966797 
	C1587.163086,366.898163 1581.716675,362.135376 1576.421143,357.218689 
	C1574.984985,355.885498 1573.598145,354.499207 1571.862549,352.968292 
	C1573.795044,350.595215 1576.053833,348.391113 1578.627441,346.076294 
	C1582.812500,348.994507 1586.981812,351.714142 1590.495972,355.111359 
	C1600.436035,364.720581 1610.047485,374.668671 1619.906250,384.363373 
	C1626.422363,390.771088 1633.119751,396.995361 1639.791870,403.242004 
	C1640.865112,404.246765 1642.231445,404.938568 1643.781006,405.916138 
	C1643.746948,410.412811 1643.394287,414.768341 1642.958008,419.554932 
z"/>
<path fill="#0A67A9" opacity="1.000000" stroke="none" 
	d="
M1402.956177,270.136749 
	C1400.078857,267.593750 1397.201416,265.050781 1394.210693,261.866455 
	C1394.298584,260.778076 1394.396606,260.232178 1394.716064,259.898041 
	C1410.591431,243.295151 1426.470581,226.695984 1442.414917,210.159393 
	C1443.377441,209.160965 1444.874268,208.677444 1446.122437,207.954346 
	C1448.923462,210.434586 1451.724609,212.914825 1454.284180,215.753738 
	C1449.667969,220.602036 1445.290527,225.089035 1440.918945,229.581726 
	C1428.987183,241.844238 1417.040039,254.091797 1405.160889,266.405182 
	C1404.185181,267.416718 1403.680054,268.882202 1402.956177,270.136749 
z"/>
<path fill="#0C5B9B" opacity="1.000000" stroke="none" 
	d="
M1403.093018,270.436188 
	C1403.680054,268.882202 1404.185181,267.416718 1405.160889,266.405182 
	C1417.040039,254.091797 1428.987183,241.844238 1440.918945,229.581726 
	C1445.290527,225.089035 1449.667969,220.602036 1454.365479,216.064026 
	C1457.442383,218.437897 1460.196533,220.860168 1462.770264,223.736267 
	C1447.819824,239.205978 1432.985840,254.159775 1418.340454,269.296021 
	C1415.768066,271.954681 1413.985596,275.377838 1411.838379,278.447937 
	C1408.968872,275.877167 1406.099487,273.306396 1403.093018,270.436188 
z"/>
<path fill="#0773B8" opacity="1.000000" stroke="none" 
	d="
M1445.979858,207.648102 
	C1444.874268,208.677444 1443.377441,209.160965 1442.414917,210.159393 
	C1426.470581,226.695984 1410.591431,243.295151 1394.716064,259.898041 
	C1394.396606,260.232178 1394.298584,260.778076 1394.066162,261.562866 
	C1391.415771,259.557648 1388.796387,257.214691 1386.086182,254.213547 
	C1387.719238,251.148407 1389.178589,248.486908 1391.209961,246.376022 
	C1404.009766,233.075470 1416.991089,219.949570 1429.767090,206.626526 
	C1431.879517,204.423706 1433.276611,201.534973 1435.004150,198.963165 
	C1438.615234,201.756058 1442.226196,204.548950 1445.979858,207.648102 
z"/>
<path fill="#0E4F8D" opacity="1.000000" stroke="none" 
	d="
M1411.996338,278.723206 
	C1413.985596,275.377838 1415.768066,271.954681 1418.340454,269.296021 
	C1432.985840,254.159775 1447.819824,239.205978 1462.908813,224.047913 
	C1463.549805,223.907074 1463.815918,224.029556 1464.180908,224.738800 
	C1464.660645,225.336975 1464.985840,225.469482 1465.311035,225.601990 
	C1465.311035,225.601959 1465.320435,225.674225 1465.337646,225.972229 
	C1465.683350,226.367798 1466.011963,226.465378 1466.340576,226.562973 
	C1466.340576,226.562973 1466.343262,226.640976 1466.319336,226.972351 
	C1466.647583,227.370880 1467.000000,227.438019 1467.352295,227.505157 
	C1467.352295,227.505142 1467.415039,227.536926 1467.444580,227.555878 
	C1468.235474,229.824615 1468.997070,232.074417 1469.463989,234.708374 
	C1467.818359,235.989166 1466.235596,236.668137 1465.154663,237.818741 
	C1459.392090,243.952805 1453.898804,250.344498 1448.040283,256.383148 
	C1439.438599,265.249207 1430.585205,273.870575 1421.906616,282.662811 
	C1421.035645,283.545197 1420.629150,284.886047 1420.007202,286.014099 
	C1417.389648,283.675598 1414.771973,281.337036 1411.996338,278.723206 
z"/>
<path fill="#11437E" opacity="1.000000" stroke="none" 
	d="
M1420.142578,286.318237 
	C1420.629150,284.886047 1421.035645,283.545197 1421.906616,282.662811 
	C1430.585205,273.870575 1439.438599,265.249207 1448.040283,256.383148 
	C1453.898804,250.344498 1459.392090,243.952805 1465.154663,237.818741 
	C1466.235596,236.668137 1467.818359,235.989166 1469.513306,235.058411 
	C1471.241455,238.756439 1472.625732,242.488556 1473.645508,246.648788 
	C1471.466187,248.938751 1469.650269,250.799484 1467.836792,252.662689 
	C1455.684448,265.147797 1443.511963,277.613464 1431.415405,290.152466 
	C1430.327026,291.280701 1429.730225,292.883209 1428.905029,294.265411 
	C1426.029297,291.717743 1423.153687,289.170074 1420.142578,286.318237 
z"/>
<path fill="#047FC5" opacity="1.000000" stroke="none" 
	d="
M1434.548828,198.858368 
	C1433.276611,201.534973 1431.879517,204.423706 1429.767090,206.626526 
	C1416.991089,219.949570 1404.009766,233.075470 1391.209961,246.376022 
	C1389.178589,248.486908 1387.719238,251.148407 1385.940552,253.922638 
	C1383.010132,251.732788 1380.134644,249.175644 1377.423462,246.169434 
	C1390.921875,232.113586 1404.295898,218.545441 1417.536133,204.847992 
	C1419.072021,203.259018 1419.866211,200.953171 1421.004272,198.979706 
	C1425.367432,198.904312 1429.730469,198.828918 1434.548828,198.858368 
z"/>
<path fill="#0387D0" opacity="1.000000" stroke="none" 
	d="
M1420.546875,198.878326 
	C1419.866211,200.953171 1419.072021,203.259018 1417.536133,204.847992 
	C1404.295898,218.545441 1390.921875,232.113586 1377.287109,245.864441 
	C1374.643188,243.923828 1372.300171,241.839127 1369.790771,239.455917 
	C1373.245239,235.618744 1376.971924,232.180862 1380.466187,228.521103 
	C1388.482666,220.124786 1396.410767,211.643127 1404.298340,203.125427 
	C1405.125366,202.232452 1405.441528,200.866623 1405.999756,199.353790 
	C1410.699707,198.917267 1415.394531,198.847092 1420.546875,198.878326 
z"/>
<path fill="#123973" opacity="1.000000" stroke="none" 
	d="
M1429.039917,294.558411 
	C1429.730225,292.883209 1430.327026,291.280701 1431.415405,290.152466 
	C1443.511963,277.613464 1455.684448,265.147797 1467.836792,252.662689 
	C1469.650269,250.799484 1471.466187,248.938751 1473.623535,247.040756 
	C1474.301758,251.370956 1474.637573,255.737320 1474.557861,260.558899 
	C1472.770020,261.833954 1471.154663,262.415497 1470.072632,263.519806 
	C1467.184570,266.467072 1464.571777,269.681610 1461.767334,272.713837 
	C1453.627075,281.515259 1445.459229,290.291290 1437.251221,299.029297 
	C1436.747559,299.565491 1435.801270,299.685852 1435.060913,299.999695 
	C1433.098877,298.283569 1431.136841,296.567474 1429.039917,294.558411 
z"/>
<path fill="#153067" opacity="1.000000" stroke="none" 
	d="
M1435.188721,300.303680 
	C1435.801270,299.685852 1436.747559,299.565491 1437.251221,299.029297 
	C1445.459229,290.291290 1453.627075,281.515259 1461.767334,272.713837 
	C1464.571777,269.681610 1467.184570,266.467072 1470.072632,263.519806 
	C1471.154663,262.415497 1472.770020,261.833954 1474.495605,261.014008 
	C1474.593872,266.416290 1474.338745,271.818634 1473.581299,277.616089 
	C1472.114624,278.191681 1470.818237,278.034760 1470.238159,278.605774 
	C1465.394775,283.373016 1460.726440,288.317139 1455.919800,293.122650 
	C1451.376831,297.664673 1446.730469,302.103424 1442.129517,306.587585 
	C1439.858521,304.594269 1437.587524,302.600983 1435.188721,300.303680 
z"/>
<path fill="#182358" opacity="1.000000" stroke="none" 
	d="
M1442.321533,306.863708 
	C1446.730469,302.103424 1451.376831,297.664673 1455.919800,293.122650 
	C1460.726440,288.317139 1465.394775,283.373016 1470.238159,278.605774 
	C1470.818237,278.034760 1472.114624,278.191681 1473.447754,278.015808 
	C1470.652588,290.589050 1466.108398,302.502655 1457.255859,312.308899 
	C1455.962280,313.741974 1454.313354,314.854248 1452.486572,316.158997 
	C1448.934082,313.181976 1445.723755,310.160889 1442.321533,306.863708 
z"/>
<path fill="#3CB3C3" opacity="1.000000" stroke="none" 
	d="
M1465.232178,225.361496 
	C1464.985840,225.469482 1464.660645,225.336975 1464.314209,224.920624 
	C1464.579834,224.798203 1464.866455,224.959595 1465.232178,225.361496 
z"/>
<path fill="#3CB3C3" opacity="1.000000" stroke="none" 
	d="
M1466.268921,226.339966 
	C1466.011963,226.465378 1465.683350,226.367798 1465.372559,225.982330 
	C1465.730469,225.699387 1465.999390,225.840225 1466.268921,226.339966 
z"/>
<path fill="#3CB3C3" opacity="1.000000" stroke="none" 
	d="
M1467.273804,227.293976 
	C1467.000000,227.438019 1466.647583,227.370880 1466.354492,226.989288 
	C1466.739746,226.685333 1467.000366,226.821320 1467.273804,227.293976 
z"/>
<path fill="#0C5694" opacity="1.000000" stroke="none" 
	d="
M1552.731567,370.031769 
	C1552.789551,370.216125 1552.601685,370.507477 1552.173584,370.913086 
	C1552.117432,370.731110 1552.301636,370.434937 1552.731567,370.031769 
z"/>
<path fill="#3CB3C3" opacity="1.000000" stroke="none" 
	d="
M1628.250732,457.054932 
	C1628.177734,456.718658 1628.401611,456.433075 1628.906006,456.157928 
	C1628.973633,456.480804 1628.760620,456.793213 1628.250732,457.054932 
z"/>
<path fill="#FBFBFA" opacity="1.000000" stroke="none" 
	d="
M432.656189,229.332489 
	C436.597626,238.461472 440.361481,247.253250 444.306427,256.467957 
	C424.629028,256.467957 405.568146,256.467957 385.746185,256.467957 
	C395.384583,234.152954 404.938049,212.034561 415.017517,188.698349 
	C421.132568,202.810776 426.805573,215.903046 432.656189,229.332489 
z"/>
<path fill="#FEFEFE" opacity="1.000000" stroke="none" 
	d="
M1000.645264,192.404633 
	C1030.658569,233.282013 1017.757996,287.837189 973.362122,308.997284 
	C922.957153,333.021454 863.754333,294.139587 865.736694,238.313568 
	C867.020203,202.168625 890.026184,173.097687 924.958374,165.667038 
	C955.015991,159.273315 980.413757,168.624878 1000.645264,192.404633 
z"/>
<path fill="#FEFEFE" opacity="1.000000" stroke="none" 
	d="
M582.746826,466.180908 
	C565.327881,440.103088 578.279968,406.842468 607.976074,400.541626 
	C631.938843,395.457245 654.419006,412.200928 657.616211,437.514587 
	C660.505981,460.394287 641.787231,482.147522 618.418640,483.169495 
	C603.637939,483.815887 591.979858,477.984375 582.746826,466.180908 
z"/>
<path fill="#FEFEFE" opacity="1.000000" stroke="none" 
	d="
M836.683777,423.503967 
	C847.454651,449.778351 834.131653,476.873871 807.552307,482.370056 
	C791.414246,485.707214 777.516663,480.707153 767.061279,467.830170 
	C756.327332,454.610016 754.627686,439.598633 761.438538,424.290680 
	C768.103638,409.310364 780.135742,400.736053 796.817871,399.960052 
	C814.920593,399.117950 828.028992,407.302582 836.683777,423.503967 
z"/>
</svg>
