<svg version="1.1" id="Layer_1" xmlns="http://www.w3.org/2000/svg" xmlns:xlink="http://www.w3.org/1999/xlink" x="0px" y="0px"
	 width="100%" viewBox="0 0 1859 659" enable-background="new 0 0 1859 659" xml:space="preserve">
<path fill="#FFFFFF" opacity="1.000000" stroke="none" 
	d="
M1205.000000,660.000000 
	C803.333313,660.000000 402.166656,660.000000 1.000000,660.000000 
	C1.000000,440.333344 1.000000,220.666672 1.000000,1.000000 
	C620.666687,1.000000 1240.333374,1.000000 1860.000000,1.000000 
	C1860.000000,220.666672 1860.000000,440.333344 1860.000000,660.000000 
	C1641.833374,660.000000 1423.666626,660.000000 1205.000000,660.000000 
M1580.467529,343.101379 
	C1580.305054,343.389496 1580.142700,343.677612 1579.995117,343.995392 
	C1579.995117,343.995392 1579.965332,343.980743 1579.465698,344.103180 
	C1579.303101,344.390869 1579.140503,344.678558 1578.995239,344.996643 
	C1578.995239,344.996643 1578.965698,344.978363 1578.465332,345.102448 
	C1578.301880,345.390533 1578.138428,345.678619 1578.000000,345.998779 
	C1578.000000,345.998779 1577.966553,345.975067 1577.465576,346.101471 
	C1577.300781,346.390076 1577.135986,346.678680 1576.993164,346.996368 
	C1576.993164,346.996368 1576.961426,346.973328 1576.333740,347.204651 
	C1573.558838,349.873413 1570.783813,352.542175 1567.500244,355.118835 
	C1567.328003,355.399750 1567.155640,355.680664 1566.991089,355.990479 
	C1566.991089,355.990479 1566.962524,355.982513 1566.463501,356.103668 
	C1566.300171,356.390564 1566.136963,356.677460 1565.993408,356.998260 
	C1565.993408,356.998260 1565.958862,356.978302 1565.332031,357.206696 
	C1562.209717,360.436279 1559.087402,363.665894 1555.334595,367.149170 
	C1553.542236,368.728943 1551.749756,370.308685 1549.343994,372.145599 
	C1547.550659,374.059662 1545.757202,375.973755 1543.364624,378.146362 
	C1542.242065,379.159973 1541.119629,380.173584 1539.479980,381.113098 
	C1539.298584,381.395752 1539.117188,381.678436 1538.976807,381.980347 
	C1538.976807,381.980347 1538.947021,381.943420 1538.325806,382.188721 
	C1535.869141,384.754730 1533.412598,387.320709 1530.354370,390.138885 
	C1529.230835,391.148285 1528.107300,392.157684 1526.461792,393.100555 
	C1526.278076,393.385742 1526.094360,393.670929 1525.987915,393.988342 
	C1525.987915,393.988342 1525.945190,393.916565 1525.356201,394.159943 
	C1524.225830,395.403259 1523.095337,396.646576 1521.421509,398.100861 
	C1521.211792,398.423737 1521.002075,398.746613 1520.323608,399.206635 
	C1520.323608,399.206635 1520.111694,399.646423 1519.656982,399.917389 
	C1519.090454,400.574097 1518.523926,401.230774 1517.359985,402.141754 
	C1516.205200,403.410950 1515.050415,404.680115 1513.301270,405.998474 
	C1512.853027,406.294281 1512.404785,406.590088 1511.366211,407.136688 
	C1510.231201,408.385040 1509.096313,409.633362 1507.369751,411.133881 
	C1506.231079,412.385834 1505.092407,413.637787 1503.348267,415.151337 
	C1501.903198,416.492584 1500.458252,417.833832 1498.346680,419.214600 
	C1494.882080,422.773102 1491.417480,426.331604 1487.326050,430.169952 
	C1481.183105,435.646027 1474.964966,441.040619 1468.912231,446.614716 
	C1455.057251,459.373932 1441.244751,472.179993 1427.487305,485.044434 
	C1415.398804,496.348267 1403.416016,507.765350 1391.370972,519.115845 
	C1386.317261,523.877991 1381.259766,528.637207 1376.140503,533.328308 
	C1365.900635,542.711670 1355.616821,552.047058 1345.197510,561.542358 
	C1345.811401,561.819519 1345.943726,561.931641 1346.076172,561.931702 
	C1402.349609,561.959412 1458.623047,561.992676 1514.896362,561.926147 
	C1516.340576,561.924438 1518.109253,561.177124 1519.174805,560.184998 
	C1527.057129,552.846741 1534.774414,545.331482 1542.592163,537.923279 
	C1552.052734,528.958252 1561.561035,520.043518 1571.665771,510.828766 
	C1575.147461,507.566833 1578.629150,504.304901 1582.713989,500.788788 
	C1584.515869,498.872314 1586.317749,496.955811 1588.715332,494.791534 
	C1589.838013,493.872162 1590.960815,492.952789 1592.682739,491.786713 
	C1593.160400,490.872192 1593.637939,489.957672 1594.691162,488.815399 
	C1595.498779,487.891479 1596.306519,486.967560 1597.773315,485.994171 
	C1598.791992,484.994537 1599.810669,483.994934 1601.110962,482.392975 
	C1602.109741,481.608643 1603.108398,480.824341 1604.723022,479.781647 
	C1606.513672,478.199646 1608.304443,476.617615 1610.687622,474.798767 
	C1611.822632,473.544830 1612.957642,472.290863 1614.705688,470.778900 
	C1617.480835,468.201996 1620.255859,465.625092 1623.010132,463.013641 
	C1623.010132,463.013641 1623.041992,463.031555 1623.538696,462.898376 
	C1623.625854,462.601471 1623.713013,462.304565 1624.075317,461.412720 
	C1625.079834,460.286957 1626.084351,459.161194 1627.573608,457.891571 
	C1627.773682,457.623352 1627.973755,457.355164 1628.861084,457.045929 
	C1633.796021,452.676331 1638.792603,448.374054 1643.652588,443.922577 
	C1652.799194,435.544830 1661.898315,427.114563 1670.960327,418.645264 
	C1687.047241,403.610352 1703.119263,388.559113 1719.142334,373.455963 
	C1726.744141,366.290405 1734.193970,358.963531 1741.759155,351.758698 
	C1747.154297,346.620544 1752.576050,341.508179 1758.077881,336.484802 
	C1765.364380,329.831940 1772.740723,323.277191 1780.344971,316.440643 
	C1767.208862,304.451355 1754.334351,292.790741 1741.561768,281.019409 
	C1727.316284,267.890594 1713.123413,254.704178 1698.982788,241.462463 
	C1686.638428,229.902924 1674.403198,218.226959 1662.109863,206.612778 
	C1658.793823,203.479858 1655.214600,201.742661 1650.263672,201.864639 
	C1635.109741,202.237946 1619.938965,202.114990 1604.779541,201.879654 
	C1602.439941,201.843323 1599.622559,200.762131 1597.882446,199.206360 
	C1588.132568,190.488419 1578.692139,181.425568 1569.049683,172.585510 
	C1563.824829,167.795502 1558.303955,163.327087 1553.103760,158.511444 
	C1546.105591,152.030746 1539.287964,145.354980 1531.410889,137.824249 
	C1550.606323,137.824249 1568.535889,137.824249 1587.805420,137.824249 
	C1578.287476,129.198822 1569.741455,121.634659 1561.399292,113.852188 
	C1548.911499,102.202240 1536.562378,90.403770 1524.164062,78.657974 
	C1519.392212,74.137161 1514.379395,71.423050 1507.156494,71.785172 
	C1492.696167,72.510139 1478.174194,71.993202 1463.677612,72.011963 
	C1462.298584,72.013748 1460.919678,72.177826 1458.689575,72.321327 
	C1482.118652,94.024246 1504.873413,115.102577 1528.512695,137.000305 
	C1525.772095,137.000305 1524.180786,137.000305 1522.589478,137.000305 
	C1507.926270,137.000305 1493.260498,136.846191 1478.601685,137.097855 
	C1474.415039,137.169724 1471.370972,135.695633 1468.492065,133.009979 
	C1459.657104,124.768112 1450.715454,116.640190 1441.898560,108.379059 
	C1429.922363,97.157738 1418.088257,85.783379 1406.012695,74.670853 
	C1404.405151,73.191620 1401.748413,72.141884 1399.562378,72.114853 
	C1382.735596,71.906799 1365.905151,71.993355 1349.075806,72.015266 
	C1347.881226,72.016815 1346.686890,72.231171 1344.639771,72.428970 
	C1352.811523,79.793106 1360.374756,86.460396 1367.772461,93.306671 
	C1382.723633,107.143631 1397.520874,121.148056 1412.566528,134.880768 
	C1414.403564,136.557449 1417.362427,137.825195 1419.824097,137.864548 
	C1436.149414,138.125565 1452.481445,137.931778 1468.809448,138.090378 
	C1470.730225,138.109039 1473.094238,138.873306 1474.480835,140.138153 
	C1485.251221,149.963409 1495.785278,160.047012 1506.489868,169.945343 
	C1512.427124,175.435471 1518.875610,180.408432 1524.495972,186.194992 
	C1529.627197,191.477936 1533.952881,197.543243 1537.732056,202.161957 
	C1522.282593,202.161957 1504.282715,202.161957 1485.423828,202.161957 
	C1486.672241,203.772247 1487.224976,204.751938 1488.017456,205.464844 
	C1493.907227,210.762756 1499.926270,215.919083 1505.750732,221.286987 
	C1519.873535,234.303024 1533.953735,247.366058 1547.973389,260.493134 
	C1560.318481,272.052124 1572.505249,283.780121 1584.867310,295.320770 
	C1590.777954,300.838623 1597.023071,305.998535 1602.925049,311.525269 
	C1604.867676,313.344330 1606.208130,315.806580 1607.266479,318.295044 
	C1603.839233,321.842072 1600.411987,325.389099 1596.309692,329.031403 
	C1594.864990,330.330353 1593.420166,331.629303 1591.483643,333.094696 
	C1591.319824,333.384766 1591.156128,333.674835 1590.987183,333.987305 
	C1590.987183,333.987305 1590.964478,333.992462 1590.468506,334.110046 
	C1590.308228,334.395233 1590.148071,334.680389 1589.990234,334.990845 
	C1589.990234,334.990845 1589.965454,334.988098 1589.468262,335.108795 
	C1589.306030,335.394775 1589.143799,335.680756 1588.995117,335.995453 
	C1588.995117,335.995453 1588.966431,335.981812 1588.468018,336.106659 
	C1588.303955,336.393646 1588.140015,336.680603 1587.994507,336.996429 
	C1587.994507,336.996429 1587.963135,336.977234 1587.341064,337.203766 
	C1585.564819,338.870392 1583.788574,340.536987 1581.494507,342.103424 
	C1581.320801,342.390686 1581.147095,342.677979 1581.000000,342.998260 
	C1581.000000,342.998260 1580.966431,342.973053 1580.467529,343.101379 
M1421.000000,288.000000 
	C1421.000000,288.000000 1420.963867,288.039581 1421.169922,288.637726 
	C1421.771484,288.795776 1422.373169,288.953857 1423.215332,289.701660 
	C1424.471680,290.828003 1425.727905,291.954376 1427.232544,293.690796 
	C1429.476807,295.832214 1431.721069,297.973633 1434.233521,300.723572 
	C1435.813232,301.843750 1437.392944,302.963928 1439.238892,304.687805 
	C1441.488159,306.809113 1443.737427,308.930420 1446.207520,311.690277 
	C1448.132935,313.431458 1450.058472,315.172638 1451.362671,317.177185 
	C1446.155640,322.038208 1440.961670,326.913361 1435.738892,331.757385 
	C1422.144165,344.366302 1408.532593,356.957153 1394.935547,369.563660 
	C1381.094360,382.396484 1367.218628,395.192505 1353.439941,408.092010 
	C1340.971191,419.764984 1328.665039,431.611572 1316.182861,443.269928 
	C1310.394775,448.675964 1304.283081,453.734314 1298.456177,459.100281 
	C1292.330566,464.741364 1286.369873,470.561676 1279.605591,476.999817 
	C1282.402954,476.999817 1284.038086,476.999847 1285.673218,476.999847 
	C1317.668579,476.999847 1349.671143,476.628815 1381.654541,477.248474 
	C1390.147461,477.413055 1395.928223,474.299255 1401.598389,468.960815 
	C1415.340454,456.022369 1429.245239,443.256836 1443.082642,430.419586 
	C1456.919800,417.582458 1470.793701,404.784607 1484.578979,391.892151 
	C1496.688721,380.566772 1508.649414,369.082153 1520.773315,357.772156 
	C1526.321533,352.596252 1532.206787,347.781555 1537.756104,342.606689 
	C1546.576294,334.381561 1555.243042,325.992035 1563.567993,318.059509 
	C1558.990356,313.164978 1554.919189,308.398346 1550.411621,304.088104 
	C1543.373291,297.357941 1535.967407,291.013733 1528.849854,284.364075 
	C1521.404907,277.408813 1514.179443,270.218689 1506.742065,263.255005 
	C1499.027710,256.031830 1491.231689,248.893265 1483.362915,241.838638 
	C1477.696655,236.758636 1471.852417,231.876984 1465.833740,226.346924 
	C1464.924683,225.552841 1464.015503,224.758774 1462.979004,223.268433 
	C1460.262207,220.850662 1457.545288,218.432892 1454.801880,215.343689 
	C1451.882202,212.858566 1448.962402,210.373428 1445.813477,207.302612 
	C1444.580688,206.186935 1443.347900,205.071259 1441.998413,203.272675 
	C1440.371826,201.834976 1438.745117,200.397278 1436.647583,198.229614 
	C1432.765747,198.208694 1428.883911,198.187775 1424.079712,198.021347 
	C1419.387329,198.069717 1414.694824,198.118088 1409.111938,198.021866 
	C1405.667603,197.433853 1401.192261,198.025833 1398.947876,196.064545 
	C1385.277588,184.118668 1372.167236,171.534134 1358.708374,159.340958 
	C1357.210938,157.984299 1354.698364,157.112747 1352.648804,157.098450 
	C1330.181274,156.941727 1307.712402,157.000122 1285.243774,157.000107 
	C1283.673340,157.000107 1282.102905,157.000122 1279.437500,157.000122 
	C1310.534912,185.581284 1340.744385,213.346497 1371.216919,241.718033 
	C1373.804199,244.182510 1376.391357,246.646973 1379.273926,249.706894 
	C1381.169434,251.177475 1383.064941,252.648041 1385.201782,254.706512 
	C1386.452026,255.838684 1387.702148,256.970856 1389.213745,258.714203 
	C1391.128174,260.180420 1393.042480,261.646667 1395.215820,263.721619 
	C1397.798340,266.184692 1400.380737,268.647766 1403.224609,271.730743 
	C1406.142212,274.189117 1409.059937,276.647491 1412.232178,279.713043 
	C1414.808350,282.147919 1417.384399,284.582794 1419.990967,287.007782 
	C1419.990967,287.007782 1419.984863,287.036163 1420.114380,287.531921 
	C1420.398926,287.701843 1420.683472,287.871735 1421.000000,288.000000 
M495.566315,322.052551 
	C493.897552,318.396332 492.201782,314.752136 490.564728,311.081757 
	C484.078156,296.538605 477.537994,282.018738 471.152252,267.431305 
	C462.192505,246.963837 453.333893,226.451996 444.468781,205.943253 
	C439.240540,193.848114 434.166870,181.685593 428.868286,169.621613 
	C424.496521,159.667877 419.896515,149.814392 414.958862,138.951172 
	C386.924774,203.124161 359.285248,266.393890 331.645721,329.663635 
	C331.334808,329.581085 331.023895,329.498505 330.712982,329.415955 
	C330.712982,323.323547 330.712982,317.231140 330.712982,310.741272 
	C307.274017,310.741272 284.202271,310.741272 260.719116,310.741272 
	C260.719116,255.918945 260.719116,201.516373 260.719116,147.362244 
	C252.889328,147.362244 245.481644,147.362244 238.372726,147.362244 
	C238.372726,209.126083 238.372726,270.527344 238.372726,331.876587 
	C277.733185,331.876587 316.720795,331.876587 355.863770,331.876587 
	C363.268799,314.175507 370.609009,296.505005 378.130432,278.912018 
	C378.669373,277.651398 380.527740,276.132538 381.783295,276.122955 
	C403.947845,275.953613 426.114166,275.972137 448.279541,276.076172 
	C449.504944,276.081909 451.442474,276.880493 451.841705,277.821838 
	C459.478088,295.827454 466.933289,313.909912 474.297180,331.665710 
	C482.766022,331.665710 490.818298,331.665710 499.292511,331.665710 
	C498.075104,328.402100 497.018768,325.570312 495.566315,322.052551 
M991.492859,155.995255 
	C970.445374,143.895493 947.649414,140.233475 924.067688,144.227173 
	C898.658203,148.530396 877.488159,161.002441 861.730164,181.794281 
	C843.425049,205.946793 838.254578,233.031326 844.807678,262.334869 
	C850.683838,288.611389 866.054626,308.108856 888.706482,322.359314 
	C910.802612,336.260162 934.985291,340.037384 960.037292,335.684937 
	C980.815674,332.074921 998.950256,322.228790 1013.955139,306.718292 
	C1032.106445,287.955261 1040.411865,265.271240 1040.644653,239.867889 
	C1040.780640,225.047958 1037.464966,210.455505 1030.514404,196.825226 
	C1021.650269,179.442490 1009.100281,165.911423 991.492859,155.995255 
M534.008972,156.514069 
	C528.914612,151.049500 523.820312,145.584930 518.263855,139.624680 
	C518.263855,204.291702 518.263855,268.001434 518.263855,331.725922 
	C525.599182,331.725922 532.667847,331.725922 540.160828,331.725922 
	C540.160828,286.441223 540.160828,241.428909 540.160828,195.661499 
	C541.296326,196.810684 541.873718,197.357346 542.409119,197.942398 
	C552.978333,209.491394 563.521118,221.064560 574.114685,232.591141 
	C582.491394,241.705673 590.897461,250.793671 599.346741,259.840973 
	C614.122803,275.663055 628.975769,291.413391 643.727600,307.257996 
	C650.234253,314.246674 656.516174,321.444397 663.008667,328.446564 
	C666.655823,332.380066 670.524414,336.108246 674.723389,340.365021 
	C674.723389,275.355988 674.723389,211.309540 674.723389,147.286880 
	C667.374329,147.286880 660.304810,147.286880 652.810303,147.286880 
	C652.810303,193.579391 652.810303,239.586563 652.810303,286.779358 
	C649.993591,283.369812 648.034973,280.782776 645.855774,278.397369 
	C634.510742,265.978882 623.092041,253.627716 611.732910,241.222046 
	C601.385132,229.921005 591.109070,218.554184 580.750488,207.263123 
	C565.364014,190.491562 549.932617,173.761215 534.008972,156.514069 
M122.500633,332.000000 
	C148.919296,332.000000 175.337967,332.000000 201.706116,332.000000 
	C201.706116,324.691345 201.706116,317.955658 201.706116,310.821381 
	C176.684509,310.821381 151.954300,310.821381 127.293869,310.821381 
	C127.293869,287.350159 127.293869,264.288422 127.293869,240.821442 
	C152.315445,240.821442 177.045639,240.821442 201.697632,240.821442 
	C201.697632,233.673767 201.697632,226.937698 201.697632,219.804443 
	C176.667374,219.804443 151.937164,219.804443 127.305466,219.804443 
	C127.305466,202.330276 127.305466,185.265991 127.305466,167.798248 
	C152.338913,167.798248 177.069077,167.798248 201.686035,167.798248 
	C201.686035,160.649689 201.686035,153.913208 201.686035,147.309509 
	C168.979385,147.309509 136.587555,147.309509 104.289871,147.309509 
	C104.289871,209.000793 104.289871,270.382172 104.289871,332.000000 
	C110.218994,332.000000 115.860123,332.000000 122.500633,332.000000 
M752.335388,336.057739 
	C753.250732,336.371155 754.187744,337.007721 755.078003,336.947876 
	C763.736938,336.365234 772.604065,336.643616 780.994507,334.788574 
	C796.571594,331.344666 808.495361,322.463409 816.091431,307.947845 
	C821.544189,297.527954 822.550720,286.509583 821.961060,275.169983 
	C821.183105,260.206055 815.199646,247.351273 802.664246,239.216858 
	C791.679810,232.088837 779.479797,226.776428 767.617859,221.075882 
	C757.637146,216.279373 747.129639,212.692932 739.822449,203.465332 
	C731.536377,193.001709 733.672058,173.581039 747.642883,165.642868 
	C760.132812,158.546173 778.249023,161.963959 787.390015,174.828964 
	C789.421143,177.687485 791.652588,180.403671 793.789429,183.182373 
	C799.268677,179.682098 804.303040,176.146820 809.654114,173.183441 
	C812.294067,171.721436 812.376831,170.508362 811.049744,168.222885 
	C806.288818,160.023697 800.009766,153.537964 791.604126,148.869873 
	C781.411499,143.209351 770.490601,142.753601 759.323975,142.987823 
	C745.755310,143.272385 733.926697,148.077957 724.239563,157.400818 
	C714.786255,166.498611 711.484253,177.970016 711.854797,191.100510 
	C712.316772,207.467667 719.104675,220.404129 732.557800,228.803482 
	C743.516602,235.645569 755.738953,240.504272 767.532288,245.958542 
	C780.082397,251.762772 791.962708,257.999115 797.112793,272.245270 
	C800.905945,282.737885 798.901611,297.050140 790.811584,305.912750 
	C780.894287,316.777191 768.361084,318.358032 755.273621,316.712494 
	C747.869019,315.781525 740.649353,312.280457 736.581848,305.048920 
	C732.767761,298.267944 729.196960,291.350159 725.315552,284.112976 
	C720.468933,286.301819 714.806458,288.951843 709.063904,291.415100 
	C705.997742,292.730377 705.748474,294.269409 706.702515,297.549835 
	C710.010925,308.925262 716.208008,318.330811 725.287048,325.636047 
	C732.817322,331.695068 741.649048,335.241302 752.335388,336.057739 
M1075.000000,275.500000 
	C1075.000000,294.257111 1075.000000,313.014191 1075.000000,331.708710 
	C1106.311523,331.708710 1137.039429,331.708710 1167.698975,331.708710 
	C1167.698975,324.677582 1167.698975,317.941040 1167.698975,310.803558 
	C1144.334229,310.803558 1121.268188,310.803558 1097.810303,310.803558 
	C1097.810303,256.003784 1097.810303,201.614822 1097.810303,147.303802 
	C1090.005249,147.303802 1082.602661,147.303802 1075.000000,147.303802 
	C1075.000000,189.904846 1075.000000,232.202423 1075.000000,275.500000 
M1230.000000,198.500000 
	C1230.000000,323.922485 1230.000000,449.344940 1230.000000,574.707886 
	C1233.305054,574.707886 1236.040039,574.707886 1238.720581,574.707886 
	C1238.720581,402.688141 1238.720581,230.960602 1238.720581,59.292065 
	C1235.694946,59.292065 1232.959961,59.292065 1230.000000,59.292065 
	C1230.000000,105.555809 1230.000000,151.527908 1230.000000,198.500000 
M828.973083,396.466949 
	C816.948608,389.483734 804.330872,386.603638 790.271545,388.842072 
	C775.109436,391.256042 762.984253,398.504822 754.303833,410.580383 
	C738.699158,432.288727 741.969238,464.954590 763.522888,482.084229 
	C782.146057,496.884827 802.378845,499.035370 823.748596,489.570587 
	C843.321228,480.901703 857.443298,457.238525 853.133911,433.238068 
	C850.322266,417.579346 842.858582,405.507141 828.973083,396.466949 
M665.048401,465.570770 
	C672.162964,452.540070 672.824524,438.771515 668.393066,424.992554 
	C659.585022,397.605530 631.757935,382.757812 603.936096,389.342316 
	C574.402405,396.331940 557.832031,419.842255 562.334351,450.535217 
	C565.985046,475.422791 585.228638,492.291260 610.264832,494.752594 
	C634.022339,497.088226 652.839294,487.567902 665.048401,465.570770 
M881.580566,479.067627 
	C884.015930,481.374420 886.224060,483.998779 888.926575,485.932068 
	C899.591309,493.561157 911.726990,495.757507 924.573914,495.001007 
	C940.360046,494.071411 953.635803,488.244659 962.625183,474.745605 
	C969.816650,463.946320 971.566223,451.804596 970.869019,439.000000 
	C963.279785,439.000000 956.286987,439.000000 949.294250,439.000000 
	C942.214050,439.000000 935.133789,439.000000 928.199219,439.000000 
	C928.199219,443.353882 928.199219,446.975006 928.199219,450.963501 
	C937.819458,450.963501 947.248230,450.963501 956.700073,450.963501 
	C956.838196,451.788879 957.044006,452.269806 956.973694,452.706238 
	C953.373840,475.049530 934.680847,486.529053 913.507019,482.536194 
	C896.649353,479.357239 886.270874,468.521942 882.850464,451.030182 
	C878.636414,429.480072 889.265991,404.316803 914.070923,400.467957 
	C925.638245,398.673096 936.465881,400.710938 945.374390,408.958130 
	C948.452759,411.807953 951.111694,415.110779 954.098206,418.354370 
	C957.105591,415.790710 959.937927,413.563110 962.504395,411.062531 
	C963.181030,410.403259 963.619446,408.520355 963.178406,407.844421 
	C958.711853,400.998108 952.484314,396.256226 945.025269,392.946930 
	C933.800842,387.967102 922.249939,387.077209 910.181030,388.925049 
	C894.656433,391.301971 883.118896,399.326538 875.162354,412.574219 
	C868.532166,423.613647 866.921021,435.951691 868.150757,448.440887 
	C869.253967,459.644165 872.461426,470.362488 881.580566,479.067627 
M457.700165,491.993927 
	C461.444885,491.993927 465.189606,491.993927 469.160095,491.993927 
	C469.160095,467.009735 469.160095,442.757782 469.160095,417.688538 
	C493.803864,444.275299 517.929993,470.303680 542.765442,497.097260 
	C542.765442,460.526733 542.765442,425.433807 542.765442,390.245361 
	C538.791138,390.245361 535.055481,390.245361 530.890381,390.245361 
	C530.890381,415.512817 530.890381,440.538635 530.890381,466.589569 
	C505.787445,439.183960 481.395020,412.553986 456.392700,385.258179 
	C456.206848,387.136719 456.013641,388.181610 456.013123,389.226562 
	C455.997253,422.387482 455.993164,455.548401 456.031403,488.709290 
	C456.032654,489.782928 456.495575,490.856018 457.700165,491.993927 
M407.489746,442.000000 
	C411.589691,442.000000 415.689636,442.000000 420.173218,442.000000 
	C420.173218,458.979431 420.173218,475.378479 420.173218,491.700684 
	C424.654083,491.700684 428.722473,491.700684 432.717163,491.700684 
	C432.717163,457.681824 432.717163,423.963074 432.717163,390.292145 
	C428.359955,390.292145 424.291595,390.292145 419.823395,390.292145 
	C419.823395,403.313904 419.823395,416.048248 419.823395,428.707733 
	C402.016602,428.707733 384.622742,428.707733 366.823364,428.707733 
	C366.823364,415.684570 366.823364,402.949066 366.823364,390.302612 
	C362.339569,390.302612 358.271210,390.302612 354.286041,390.302612 
	C354.286041,424.324768 354.286041,458.043579 354.286041,491.704590 
	C358.646454,491.704590 362.714813,491.704590 367.180054,491.704590 
	C367.180054,475.015045 367.180054,458.617188 367.180054,442.000000 
	C380.555511,442.000000 393.523773,442.000000 407.489746,442.000000 
M210.499878,390.000000 
	C199.410461,390.000000 188.321045,390.000000 177.267090,390.000000 
	C177.267090,424.290527 177.267090,458.004425 177.267090,491.739777 
	C195.594650,491.739777 213.653931,491.739777 231.731232,491.739777 
	C231.731232,487.739105 231.731232,484.004272 231.731232,479.871948 
	C217.735504,479.871948 204.003113,479.871948 190.268616,479.871948 
	C190.268616,467.400055 190.268616,455.338196 190.268616,443.000000 
	C200.497147,443.000000 210.461868,443.141205 220.420990,442.965393 
	C233.866241,442.728058 231.891968,445.787292 231.924072,431.039154 
	C231.924652,430.774506 231.610352,430.509155 231.189209,429.842346 
	C217.704453,429.842346 203.972168,429.842346 190.286713,429.842346 
	C190.286713,420.366302 190.286713,411.301788 190.286713,401.838257 
	C204.302658,401.838257 218.036575,401.838257 231.706940,401.838257 
	C231.706940,397.689636 231.706940,393.953583 231.706940,390.000000 
	C224.776978,390.000000 218.138382,390.000000 210.499878,390.000000 
M248.362671,456.880676 
	C252.170807,469.730988 259.736633,480.032440 271.071930,486.887177 
	C290.566345,498.675995 310.496155,497.640961 330.175171,486.910400 
	C331.695221,486.081573 333.705688,484.451782 333.823029,483.054474 
	C334.258362,477.869263 333.996521,472.625519 333.996521,466.788544 
	C311.970703,490.918549 285.748413,485.136139 271.862946,471.096069 
	C256.110168,455.167877 256.161865,430.915466 269.697327,414.936584 
	C285.289490,396.529724 310.123230,393.535675 333.999939,414.893524 
	C333.999939,410.100128 334.188385,405.674103 333.892273,401.280762 
	C333.795563,399.845764 332.779510,397.996735 331.600311,397.188049 
	C324.022614,391.991394 315.509735,388.855682 306.419891,388.095123 
	C291.890625,386.879517 278.139648,389.782227 266.627655,399.180481 
	C254.808975,408.829071 247.227188,421.095032 247.067307,436.876678 
	C247.002472,443.276123 247.686310,449.683167 248.362671,456.880676 
M1061.498779,492.000000 
	C1067.260986,492.000000 1073.023315,492.000000 1078.699097,492.000000 
	C1078.699097,487.674194 1078.699097,483.937836 1078.699097,479.808289 
	C1065.003052,479.808289 1051.603882,479.808289 1038.301880,479.808289 
	C1038.301880,467.333374 1038.301880,455.270325 1038.301880,442.806488 
	C1052.000244,442.806488 1065.400879,442.806488 1078.690430,442.806488 
	C1078.690430,438.323090 1078.690430,434.254730 1078.690430,429.791351 
	C1064.985474,429.791351 1051.586304,429.791351 1038.312988,429.791351 
	C1038.312988,420.313080 1038.312988,411.247467 1038.312988,401.785156 
	C1052.024048,401.785156 1065.425537,401.785156 1078.678955,401.785156 
	C1078.678955,397.637207 1078.678955,393.901428 1078.678955,390.316406 
	C1060.630737,390.316406 1042.904907,390.316406 1025.297241,390.316406 
	C1025.297241,424.348846 1025.297241,458.064117 1025.297241,492.000000 
	C1037.228638,492.000000 1048.864014,492.000000 1061.498779,492.000000 
M1097.364502,467.959320 
	C1095.526367,468.836517 1093.688232,469.713715 1091.728638,470.648956 
	C1092.547974,473.287048 1092.983887,475.704895 1094.010498,477.838531 
	C1103.914185,498.420410 1129.591431,498.957153 1143.942017,489.309784 
	C1155.047852,481.843750 1157.722046,469.885559 1155.794067,457.445099 
	C1154.050171,446.191956 1145.870728,439.523560 1135.859375,435.011719 
	C1129.266602,432.040527 1122.554810,429.288910 1116.156982,425.941010 
	C1108.448730,421.907318 1106.031372,413.265961 1109.976196,405.989899 
	C1113.645020,399.223053 1124.820435,396.745300 1130.114868,400.683289 
	C1133.748779,403.386200 1137.028320,406.565826 1141.030151,410.019073 
	C1143.913696,408.280640 1147.460083,406.142639 1151.302856,403.825989 
	C1149.680664,401.446655 1148.562134,399.273163 1146.961792,397.546204 
	C1137.271362,387.089233 1125.568604,386.380371 1112.475952,389.761566 
	C1103.663940,392.037292 1094.552856,403.723511 1094.839966,413.541229 
	C1095.225708,426.727264 1103.760498,435.655487 1116.120728,441.053101 
	C1122.719238,443.934631 1129.262329,447.120087 1135.367432,450.913300 
	C1144.610596,456.656281 1144.714844,468.627930 1140.229858,475.271027 
	C1134.563110,483.664917 1122.286865,486.442841 1114.061279,481.483704 
	C1107.961670,477.806366 1105.296875,471.572968 1103.469971,464.790833 
	C1101.449585,465.792206 1099.723389,466.647705 1097.364502,467.959320 
M101.579468,403.000000 
	C108.667702,403.000000 115.755928,403.000000 123.222397,403.000000 
	C123.222397,433.032318 123.222397,462.423187 123.222397,491.680420 
	C127.693275,491.680420 131.761795,491.680420 136.218109,491.680420 
	C136.218109,461.973145 136.218109,432.583832 136.218109,402.787750 
	C146.018402,402.787750 155.424759,402.787750 164.677612,402.787750 
	C164.677612,398.301392 164.677612,394.232819 164.677612,390.314880 
	C141.294907,390.314880 118.235748,390.314880 95.325500,390.314880 
	C95.325500,394.703186 95.325500,398.771210 95.325500,403.000000 
	C97.299553,403.000000 98.951599,403.000000 101.579468,403.000000 
M703.000000,430.500000 
	C703.000000,417.075775 703.000000,403.651550 703.000000,390.297852 
	C698.347656,390.297852 694.278320,390.297852 690.285645,390.297852 
	C690.285645,424.316254 690.285645,458.036041 690.285645,491.715881 
	C707.303223,491.715881 724.033630,491.715881 740.705444,491.715881 
	C740.705444,487.688110 740.705444,483.951477 740.705444,479.817078 
	C728.013367,479.817078 715.610901,479.817078 703.000000,479.817078 
	C703.000000,463.436584 703.000000,447.468292 703.000000,430.500000 
M1001.000000,456.500000 
	C1001.000000,434.413116 1001.000000,412.326202 1001.000000,390.293945 
	C996.357422,390.293945 992.288574,390.293945 988.283691,390.293945 
	C988.283691,424.310455 988.283691,458.033051 988.283691,491.706177 
	C992.642334,491.706177 996.711182,491.706177 1001.000000,491.706177 
	C1001.000000,480.109039 1001.000000,468.804504 1001.000000,456.500000 
z"/>
<path fill="#3BB3C2" opacity="1.000000" stroke="none" 
	d="
M1607.823853,317.974731 
	C1606.208130,315.806580 1604.867676,313.344330 1602.925049,311.525269 
	C1597.023071,305.998535 1590.777954,300.838623 1584.867310,295.320770 
	C1572.505249,283.780121 1560.318481,272.052124 1547.973389,260.493134 
	C1533.953735,247.366058 1519.873535,234.303024 1505.750732,221.286987 
	C1499.926270,215.919083 1493.907227,210.762756 1488.017456,205.464844 
	C1487.224976,204.751938 1486.672241,203.772247 1485.423828,202.161957 
	C1504.282715,202.161957 1522.282593,202.161957 1537.732056,202.161957 
	C1533.952881,197.543243 1529.627197,191.477936 1524.495972,186.194992 
	C1518.875610,180.408432 1512.427124,175.435471 1506.489868,169.945343 
	C1495.785278,160.047012 1485.251221,149.963409 1474.480835,140.138153 
	C1473.094238,138.873306 1470.730225,138.109039 1468.809448,138.090378 
	C1452.481445,137.931778 1436.149414,138.125565 1419.824097,137.864548 
	C1417.362427,137.825195 1414.403564,136.557449 1412.566528,134.880768 
	C1397.520874,121.148056 1382.723633,107.143631 1367.772461,93.306671 
	C1360.374756,86.460396 1352.811523,79.793106 1344.639771,72.428970 
	C1346.686890,72.231171 1347.881226,72.016815 1349.075806,72.015266 
	C1365.905151,71.993355 1382.735596,71.906799 1399.562378,72.114853 
	C1401.748413,72.141884 1404.405151,73.191620 1406.012695,74.670853 
	C1418.088257,85.783379 1429.922363,97.157738 1441.898560,108.379059 
	C1450.715454,116.640190 1459.657104,124.768112 1468.492065,133.009979 
	C1471.370972,135.695633 1474.415039,137.169724 1478.601685,137.097855 
	C1493.260498,136.846191 1507.926270,137.000305 1522.589478,137.000305 
	C1524.180786,137.000305 1525.772095,137.000305 1528.512695,137.000305 
	C1504.873413,115.102577 1482.118652,94.024246 1458.689575,72.321327 
	C1460.919678,72.177826 1462.298584,72.013748 1463.677612,72.011963 
	C1478.174194,71.993202 1492.696167,72.510139 1507.156494,71.785172 
	C1514.379395,71.423050 1519.392212,74.137161 1524.164062,78.657974 
	C1536.562378,90.403770 1548.911499,102.202240 1561.399292,113.852188 
	C1569.741455,121.634659 1578.287476,129.198822 1587.805420,137.824249 
	C1568.535889,137.824249 1550.606323,137.824249 1531.410889,137.824249 
	C1539.287964,145.354980 1546.105591,152.030746 1553.103760,158.511444 
	C1558.303955,163.327087 1563.824829,167.795502 1569.049683,172.585510 
	C1578.692139,181.425568 1588.132568,190.488419 1597.882446,199.206360 
	C1599.622559,200.762131 1602.439941,201.843323 1604.779541,201.879654 
	C1619.938965,202.114990 1635.109741,202.237946 1650.263672,201.864639 
	C1655.214600,201.742661 1658.793823,203.479858 1662.109863,206.612778 
	C1674.403198,218.226959 1686.638428,229.902924 1698.982788,241.462463 
	C1713.123413,254.704178 1727.316284,267.890594 1741.561768,281.019409 
	C1754.334351,292.790741 1767.208862,304.451355 1780.344971,316.440643 
	C1772.740723,323.277191 1765.364380,329.831940 1758.077881,336.484802 
	C1752.576050,341.508179 1747.154297,346.620544 1741.759155,351.758698 
	C1734.193970,358.963531 1726.744141,366.290405 1719.142334,373.455963 
	C1703.119263,388.559113 1687.047241,403.610352 1670.960327,418.645264 
	C1661.898315,427.114563 1652.799194,435.544830 1643.652588,443.922577 
	C1638.792603,448.374054 1633.796021,452.676331 1628.523926,456.723877 
	C1628.484009,455.313263 1628.781128,454.224731 1629.383057,452.972870 
	C1631.461060,449.874084 1633.234131,446.938599 1635.274658,443.778046 
	C1637.016235,439.366760 1638.490601,435.180573 1640.018311,430.617615 
	C1641.308594,424.819641 1642.545776,419.398438 1643.861938,413.515808 
	C1643.932129,406.365570 1643.923584,399.676788 1643.958252,392.572083 
	C1643.665283,389.908295 1643.456787,387.632141 1642.967285,385.418152 
	C1641.751465,379.918457 1640.407471,374.447174 1639.077881,368.563904 
	C1634.675781,349.079285 1624.757324,333.098480 1611.433472,319.067871 
	C1610.680908,318.275482 1609.047363,318.319824 1607.823853,317.974731 
M1596.940186,251.472885 
	C1600.358398,254.880783 1603.764893,258.300507 1607.197754,261.693634 
	C1611.521851,265.967621 1616.135986,268.521179 1622.828125,268.194183 
	C1636.278687,267.536957 1649.783569,267.990265 1663.265991,267.985474 
	C1664.987793,267.984863 1666.709595,267.985382 1669.921509,267.985382 
	C1659.746338,258.702881 1650.676514,250.560654 1641.756104,242.257904 
	C1630.243286,231.542389 1618.808594,220.741623 1607.424194,209.889587 
	C1602.514038,205.209122 1597.392212,202.417633 1590.027222,202.798416 
	C1576.414673,203.502151 1562.739868,202.991287 1549.090942,203.014374 
	C1547.892578,203.016403 1546.694580,203.224701 1544.919800,203.391312 
	C1557.242065,215.027954 1568.992432,226.208878 1580.846069,237.279068 
	C1585.900269,241.999252 1591.170288,246.488190 1596.940186,251.472885 
z"/>
<path fill="#3BB3C2" opacity="1.000000" stroke="none" 
	d="
M1466.087646,226.906860 
	C1471.852417,231.876984 1477.696655,236.758636 1483.362915,241.838638 
	C1491.231689,248.893265 1499.027710,256.031830 1506.742065,263.255005 
	C1514.179443,270.218689 1521.404907,277.408813 1528.849854,284.364075 
	C1535.967407,291.013733 1543.373291,297.357941 1550.411621,304.088104 
	C1554.919189,308.398346 1558.990356,313.164978 1563.567993,318.059509 
	C1555.243042,325.992035 1546.576294,334.381561 1537.756104,342.606689 
	C1532.206787,347.781555 1526.321533,352.596252 1520.773315,357.772156 
	C1508.649414,369.082153 1496.688721,380.566772 1484.578979,391.892151 
	C1470.793701,404.784607 1456.919800,417.582458 1443.082642,430.419586 
	C1429.245239,443.256836 1415.340454,456.022369 1401.598389,468.960815 
	C1395.928223,474.299255 1390.147461,477.413055 1381.654541,477.248474 
	C1349.671143,476.628815 1317.668579,476.999847 1285.673218,476.999847 
	C1284.038086,476.999847 1282.402954,476.999817 1279.605591,476.999817 
	C1286.369873,470.561676 1292.330566,464.741364 1298.456177,459.100281 
	C1304.283081,453.734314 1310.394775,448.675964 1316.182861,443.269928 
	C1328.665039,431.611572 1340.971191,419.764984 1353.439941,408.092010 
	C1367.218628,395.192505 1381.094360,382.396484 1394.935547,369.563660 
	C1408.532593,356.957153 1422.144165,344.366302 1435.738892,331.757385 
	C1440.961670,326.913361 1446.155640,322.038208 1452.000977,316.979065 
	C1462.980347,307.751038 1468.605591,296.008240 1472.370728,282.779602 
	C1473.399170,277.365173 1474.119385,272.189270 1474.903809,266.611389 
	C1474.926514,262.811737 1474.885010,259.413971 1474.906250,255.589798 
	C1474.439209,251.726837 1473.909180,248.290329 1473.324707,244.466339 
	C1471.888794,240.634064 1470.507324,237.189270 1469.073975,233.405853 
	C1468.043945,231.013779 1467.065796,228.960327 1466.087646,226.906860 
z"/>
<path fill="#0093DD" opacity="1.000000" stroke="none" 
	d="
M1571.048706,511.107056 
	C1561.561035,520.043518 1552.052734,528.958252 1542.592163,537.923279 
	C1534.774414,545.331482 1527.057129,552.846741 1519.174805,560.184998 
	C1518.109253,561.177124 1516.340576,561.924438 1514.896362,561.926147 
	C1458.623047,561.992676 1402.349609,561.959412 1346.076172,561.931702 
	C1345.943726,561.931641 1345.811401,561.819519 1345.197510,561.542358 
	C1355.616821,552.047058 1365.900635,542.711670 1376.140503,533.328308 
	C1381.259766,528.637207 1386.317261,523.877991 1391.370972,519.115845 
	C1403.416016,507.765350 1415.398804,496.348267 1427.487305,485.044434 
	C1441.244751,472.179993 1455.057251,459.373932 1468.912231,446.614716 
	C1474.964966,441.040619 1481.183105,435.646027 1487.782349,430.339081 
	C1495.403320,437.416443 1502.611206,444.280426 1509.723999,451.241577 
	C1527.776489,468.908997 1545.780640,486.625702 1563.820190,504.306488 
	C1566.182373,506.621643 1568.636963,508.842499 1571.048706,511.107056 
z"/>
<path fill="#1F1A17" opacity="1.000000" stroke="none" 
	d="
M495.764343,322.395538 
	C497.018768,325.570312 498.075104,328.402100 499.292511,331.665710 
	C490.818298,331.665710 482.766022,331.665710 474.297180,331.665710 
	C466.933289,313.909912 459.478088,295.827454 451.841705,277.821838 
	C451.442474,276.880493 449.504944,276.081909 448.279541,276.076172 
	C426.114166,275.972137 403.947845,275.953613 381.783295,276.122955 
	C380.527740,276.132538 378.669373,277.651398 378.130432,278.912018 
	C370.609009,296.505005 363.268799,314.175507 355.863770,331.876587 
	C316.720795,331.876587 277.733185,331.876587 238.372726,331.876587 
	C238.372726,270.527344 238.372726,209.126083 238.372726,147.362244 
	C245.481644,147.362244 252.889328,147.362244 260.719116,147.362244 
	C260.719116,201.516373 260.719116,255.918945 260.719116,310.741272 
	C284.202271,310.741272 307.274017,310.741272 330.712982,310.741272 
	C330.712982,317.231140 330.712982,323.323547 330.712982,329.415955 
	C331.023895,329.498505 331.334808,329.581085 331.645721,329.663635 
	C359.285248,266.393890 386.924774,203.124161 414.958862,138.951172 
	C419.896515,149.814392 424.496521,159.667877 428.868286,169.621613 
	C434.166870,181.685593 439.240540,193.848114 444.468781,205.943253 
	C453.333893,226.451996 462.192505,246.963837 471.152252,267.431305 
	C477.537994,282.018738 484.078156,296.538605 490.564728,311.081757 
	C492.201782,314.752136 493.897552,318.396332 495.764343,322.395538 
M392.711243,256.000000 
	C409.419159,256.000000 426.127075,256.000000 443.508667,256.000000 
	C433.898499,233.775986 424.634888,212.353317 415.030762,190.143219 
	C405.398010,212.472015 396.105103,234.013046 386.619812,256.000000 
	C388.793915,256.000000 390.283569,256.000000 392.711243,256.000000 
z"/>
<path fill="#1F1A17" opacity="1.000000" stroke="none" 
	d="
M991.761230,156.262970 
	C1009.100281,165.911423 1021.650269,179.442490 1030.514404,196.825226 
	C1037.464966,210.455505 1040.780640,225.047958 1040.644653,239.867889 
	C1040.411865,265.271240 1032.106445,287.955261 1013.955139,306.718292 
	C998.950256,322.228790 980.815674,332.074921 960.037292,335.684937 
	C934.985291,340.037384 910.802612,336.260162 888.706482,322.359314 
	C866.054626,308.108856 850.683838,288.611389 844.807678,262.334869 
	C838.254578,233.031326 843.425049,205.946793 861.730164,181.794281 
	C877.488159,161.002441 898.658203,148.530396 924.067688,144.227173 
	C947.649414,140.233475 970.445374,143.895493 991.761230,156.262970 
M880.519409,195.980316 
	C878.023804,199.931305 874.896301,203.622986 873.148987,207.881058 
	C867.541809,221.545700 864.361023,235.547195 866.825806,250.630615 
	C868.334045,259.860260 870.866760,268.717865 875.439819,276.569733 
	C884.185120,291.585571 896.606018,303.025513 912.792847,309.970947 
	C926.145630,315.700317 940.142273,317.489990 954.296448,314.737640 
	C973.467407,311.009735 989.055908,301.079376 1001.079651,285.488129 
	C1016.708984,265.221497 1020.026428,242.444107 1013.539612,218.494385 
	C1008.807556,201.023331 998.056580,186.973618 982.664490,176.995590 
	C965.507996,165.873779 947.062805,161.605164 926.625977,165.869522 
	C907.433228,169.874298 892.143860,179.300491 880.519409,195.980316 
z"/>
<path fill="#1F1A17" opacity="1.000000" stroke="none" 
	d="
M534.264648,156.763702 
	C549.932617,173.761215 565.364014,190.491562 580.750488,207.263123 
	C591.109070,218.554184 601.385132,229.921005 611.732910,241.222046 
	C623.092041,253.627716 634.510742,265.978882 645.855774,278.397369 
	C648.034973,280.782776 649.993591,283.369812 652.810303,286.779358 
	C652.810303,239.586563 652.810303,193.579391 652.810303,147.286880 
	C660.304810,147.286880 667.374329,147.286880 674.723389,147.286880 
	C674.723389,211.309540 674.723389,275.355988 674.723389,340.365021 
	C670.524414,336.108246 666.655823,332.380066 663.008667,328.446564 
	C656.516174,321.444397 650.234253,314.246674 643.727600,307.257996 
	C628.975769,291.413391 614.122803,275.663055 599.346741,259.840973 
	C590.897461,250.793671 582.491394,241.705673 574.114685,232.591141 
	C563.521118,221.064560 552.978333,209.491394 542.409119,197.942398 
	C541.873718,197.357346 541.296326,196.810684 540.160828,195.661499 
	C540.160828,241.428909 540.160828,286.441223 540.160828,331.725922 
	C532.667847,331.725922 525.599182,331.725922 518.263855,331.725922 
	C518.263855,268.001434 518.263855,204.291702 518.263855,139.624680 
	C523.820312,145.584930 528.914612,151.049500 534.264648,156.763702 
z"/>
<path fill="#1F1A17" opacity="1.000000" stroke="none" 
	d="
M122.000946,332.000000 
	C115.860123,332.000000 110.218994,332.000000 104.289871,332.000000 
	C104.289871,270.382172 104.289871,209.000793 104.289871,147.309509 
	C136.587555,147.309509 168.979385,147.309509 201.686035,147.309509 
	C201.686035,153.913208 201.686035,160.649689 201.686035,167.798248 
	C177.069077,167.798248 152.338913,167.798248 127.305466,167.798248 
	C127.305466,185.265991 127.305466,202.330276 127.305466,219.804443 
	C151.937164,219.804443 176.667374,219.804443 201.697632,219.804443 
	C201.697632,226.937698 201.697632,233.673767 201.697632,240.821442 
	C177.045639,240.821442 152.315445,240.821442 127.293869,240.821442 
	C127.293869,264.288422 127.293869,287.350159 127.293869,310.821381 
	C151.954300,310.821381 176.684509,310.821381 201.706116,310.821381 
	C201.706116,317.955658 201.706116,324.691345 201.706116,332.000000 
	C175.337967,332.000000 148.919296,332.000000 122.000946,332.000000 
z"/>
<path fill="#1F1A17" opacity="1.000000" stroke="none" 
	d="
M751.883667,336.031555 
	C741.649048,335.241302 732.817322,331.695068 725.287048,325.636047 
	C716.208008,318.330811 710.010925,308.925262 706.702515,297.549835 
	C705.748474,294.269409 705.997742,292.730377 709.063904,291.415100 
	C714.806458,288.951843 720.468933,286.301819 725.315552,284.112976 
	C729.196960,291.350159 732.767761,298.267944 736.581848,305.048920 
	C740.649353,312.280457 747.869019,315.781525 755.273621,316.712494 
	C768.361084,318.358032 780.894287,316.777191 790.811584,305.912750 
	C798.901611,297.050140 800.905945,282.737885 797.112793,272.245270 
	C791.962708,257.999115 780.082397,251.762772 767.532288,245.958542 
	C755.738953,240.504272 743.516602,235.645569 732.557800,228.803482 
	C719.104675,220.404129 712.316772,207.467667 711.854797,191.100510 
	C711.484253,177.970016 714.786255,166.498611 724.239563,157.400818 
	C733.926697,148.077957 745.755310,143.272385 759.323975,142.987823 
	C770.490601,142.753601 781.411499,143.209351 791.604126,148.869873 
	C800.009766,153.537964 806.288818,160.023697 811.049744,168.222885 
	C812.376831,170.508362 812.294067,171.721436 809.654114,173.183441 
	C804.303040,176.146820 799.268677,179.682098 793.789429,183.182373 
	C791.652588,180.403671 789.421143,177.687485 787.390015,174.828964 
	C778.249023,161.963959 760.132812,158.546173 747.642883,165.642868 
	C733.672058,173.581039 731.536377,193.001709 739.822449,203.465332 
	C747.129639,212.692932 757.637146,216.279373 767.617859,221.075882 
	C779.479797,226.776428 791.679810,232.088837 802.664246,239.216858 
	C815.199646,247.351273 821.183105,260.206055 821.961060,275.169983 
	C822.550720,286.509583 821.544189,297.527954 816.091431,307.947845 
	C808.495361,322.463409 796.571594,331.344666 780.994507,334.788574 
	C772.604065,336.643616 763.736938,336.365234 755.078003,336.947876 
	C754.187744,337.007721 753.250732,336.371155 751.883667,336.031555 
z"/>
<path fill="#1F1A17" opacity="1.000000" stroke="none" 
	d="
M1075.000000,275.000000 
	C1075.000000,232.202423 1075.000000,189.904846 1075.000000,147.303802 
	C1082.602661,147.303802 1090.005249,147.303802 1097.810303,147.303802 
	C1097.810303,201.614822 1097.810303,256.003784 1097.810303,310.803558 
	C1121.268188,310.803558 1144.334229,310.803558 1167.698975,310.803558 
	C1167.698975,317.941040 1167.698975,324.677582 1167.698975,331.708710 
	C1137.039429,331.708710 1106.311523,331.708710 1075.000000,331.708710 
	C1075.000000,313.014191 1075.000000,294.257111 1075.000000,275.000000 
z"/>
<path fill="#0093DD" opacity="1.000000" stroke="none" 
	d="
M1370.953979,241.111679 
	C1340.744385,213.346497 1310.534912,185.581284 1279.437500,157.000122 
	C1282.102905,157.000122 1283.673340,157.000107 1285.243774,157.000107 
	C1307.712402,157.000122 1330.181274,156.941727 1352.648804,157.098450 
	C1354.698364,157.112747 1357.210938,157.984299 1358.708374,159.340958 
	C1372.167236,171.534134 1385.277588,184.118668 1398.947876,196.064545 
	C1401.192261,198.025833 1405.667603,197.433853 1409.514160,198.429993 
	C1407.314941,202.021255 1404.888062,205.368011 1402.081299,208.358292 
	C1391.773682,219.340118 1381.340088,230.203613 1370.953979,241.111679 
z"/>
<path fill="#1F1A17" opacity="1.000000" stroke="none" 
	d="
M1230.000000,198.000000 
	C1230.000000,151.527908 1230.000000,105.555809 1230.000000,59.292065 
	C1232.959961,59.292065 1235.694946,59.292065 1238.720581,59.292065 
	C1238.720581,230.960602 1238.720581,402.688141 1238.720581,574.707886 
	C1236.040039,574.707886 1233.305054,574.707886 1230.000000,574.707886 
	C1230.000000,449.344940 1230.000000,323.922485 1230.000000,198.000000 
z"/>
<path fill="#1F1A17" opacity="1.000000" stroke="none" 
	d="
M829.260376,396.709503 
	C842.858582,405.507141 850.322266,417.579346 853.133911,433.238068 
	C857.443298,457.238525 843.321228,480.901703 823.748596,489.570587 
	C802.378845,499.035370 782.146057,496.884827 763.522888,482.084229 
	C741.969238,464.954590 738.699158,432.288727 754.303833,410.580383 
	C762.984253,398.504822 775.109436,391.256042 790.271545,388.842072 
	C804.330872,386.603638 816.948608,389.483734 829.260376,396.709503 
M764.479980,462.992889 
	C773.357483,478.948090 794.432739,487.668091 812.844177,480.476501 
	C833.044006,472.586334 844.282471,453.307709 838.858887,431.418854 
	C833.362366,409.235046 811.236450,395.878540 789.540955,401.298828 
	C762.892944,407.956421 749.515564,438.476227 764.479980,462.992889 
z"/>
<path fill="#1F1A17" opacity="1.000000" stroke="none" 
	d="
M665.006348,465.953552 
	C652.839294,487.567902 634.022339,497.088226 610.264832,494.752594 
	C585.228638,492.291260 565.985046,475.422791 562.334351,450.535217 
	C557.832031,419.842255 574.402405,396.331940 603.936096,389.342316 
	C631.757935,382.757812 659.585022,397.605530 668.393066,424.992554 
	C672.824524,438.771515 672.162964,452.540070 665.006348,465.953552 
M631.214661,479.975830 
	C632.340637,479.332642 633.444641,478.647064 634.595825,478.052612 
	C650.816345,469.675812 659.545532,453.713501 656.839905,435.609833 
	C653.313110,412.012634 631.105835,395.518799 607.033997,401.219208 
	C583.669250,406.752228 570.819214,428.966797 576.342102,451.441711 
	C581.938660,474.216309 606.471252,489.438538 631.214661,479.975830 
z"/>
<path fill="#1F1A17" opacity="1.000000" stroke="none" 
	d="
M881.311035,478.816742 
	C872.461426,470.362488 869.253967,459.644165 868.150757,448.440887 
	C866.921021,435.951691 868.532166,423.613647 875.162354,412.574219 
	C883.118896,399.326538 894.656433,391.301971 910.181030,388.925049 
	C922.249939,387.077209 933.800842,387.967102 945.025269,392.946930 
	C952.484314,396.256226 958.711853,400.998108 963.178406,407.844421 
	C963.619446,408.520355 963.181030,410.403259 962.504395,411.062531 
	C959.937927,413.563110 957.105591,415.790710 954.098206,418.354370 
	C951.111694,415.110779 948.452759,411.807953 945.374390,408.958130 
	C936.465881,400.710938 925.638245,398.673096 914.070923,400.467957 
	C889.265991,404.316803 878.636414,429.480072 882.850464,451.030182 
	C886.270874,468.521942 896.649353,479.357239 913.507019,482.536194 
	C934.680847,486.529053 953.373840,475.049530 956.973694,452.706238 
	C957.044006,452.269806 956.838196,451.788879 956.700073,450.963501 
	C947.248230,450.963501 937.819458,450.963501 928.199219,450.963501 
	C928.199219,446.975006 928.199219,443.353882 928.199219,439.000000 
	C935.133789,439.000000 942.214050,439.000000 949.294250,439.000000 
	C956.286987,439.000000 963.279785,439.000000 970.869019,439.000000 
	C971.566223,451.804596 969.816650,463.946320 962.625183,474.745605 
	C953.635803,488.244659 940.360046,494.071411 924.573914,495.001007 
	C911.726990,495.757507 899.591309,493.561157 888.926575,485.932068 
	C886.224060,483.998779 884.015930,481.374420 881.311035,478.816742 
z"/>
<path fill="#1F1A17" opacity="1.000000" stroke="none" 
	d="
M457.221741,491.961670 
	C456.495575,490.856018 456.032654,489.782928 456.031403,488.709290 
	C455.993164,455.548401 455.997253,422.387482 456.013123,389.226562 
	C456.013641,388.181610 456.206848,387.136719 456.392700,385.258179 
	C481.395020,412.553986 505.787445,439.183960 530.890381,466.589569 
	C530.890381,440.538635 530.890381,415.512817 530.890381,390.245361 
	C535.055481,390.245361 538.791138,390.245361 542.765442,390.245361 
	C542.765442,425.433807 542.765442,460.526733 542.765442,497.097260 
	C517.929993,470.303680 493.803864,444.275299 469.160095,417.688538 
	C469.160095,442.757782 469.160095,467.009735 469.160095,491.993927 
	C465.189606,491.993927 461.444885,491.993927 457.221741,491.961670 
z"/>
<path fill="#1F1A17" opacity="1.000000" stroke="none" 
	d="
M406.990875,442.000000 
	C393.523773,442.000000 380.555511,442.000000 367.180054,442.000000 
	C367.180054,458.617188 367.180054,475.015045 367.180054,491.704590 
	C362.714813,491.704590 358.646454,491.704590 354.286041,491.704590 
	C354.286041,458.043579 354.286041,424.324768 354.286041,390.302612 
	C358.271210,390.302612 362.339569,390.302612 366.823364,390.302612 
	C366.823364,402.949066 366.823364,415.684570 366.823364,428.707733 
	C384.622742,428.707733 402.016602,428.707733 419.823395,428.707733 
	C419.823395,416.048248 419.823395,403.313904 419.823395,390.292145 
	C424.291595,390.292145 428.359955,390.292145 432.717163,390.292145 
	C432.717163,423.963074 432.717163,457.681824 432.717163,491.700684 
	C428.722473,491.700684 424.654083,491.700684 420.173218,491.700684 
	C420.173218,475.378479 420.173218,458.979431 420.173218,442.000000 
	C415.689636,442.000000 411.589691,442.000000 406.990875,442.000000 
z"/>
<path fill="#1F1A17" opacity="1.000000" stroke="none" 
	d="
M210.999847,390.000000 
	C218.138382,390.000000 224.776978,390.000000 231.706940,390.000000 
	C231.706940,393.953583 231.706940,397.689636 231.706940,401.838257 
	C218.036575,401.838257 204.302658,401.838257 190.286713,401.838257 
	C190.286713,411.301788 190.286713,420.366302 190.286713,429.842346 
	C203.972168,429.842346 217.704453,429.842346 231.189209,429.842346 
	C231.610352,430.509155 231.924652,430.774506 231.924072,431.039154 
	C231.891968,445.787292 233.866241,442.728058 220.420990,442.965393 
	C210.461868,443.141205 200.497147,443.000000 190.268616,443.000000 
	C190.268616,455.338196 190.268616,467.400055 190.268616,479.871948 
	C204.003113,479.871948 217.735504,479.871948 231.731232,479.871948 
	C231.731232,484.004272 231.731232,487.739105 231.731232,491.739777 
	C213.653931,491.739777 195.594650,491.739777 177.267090,491.739777 
	C177.267090,458.004425 177.267090,424.290527 177.267090,390.000000 
	C188.321045,390.000000 199.410461,390.000000 210.999847,390.000000 
z"/>
<path fill="#1F1A17" opacity="1.000000" stroke="none" 
	d="
M248.196075,456.483704 
	C247.686310,449.683167 247.002472,443.276123 247.067307,436.876678 
	C247.227188,421.095032 254.808975,408.829071 266.627655,399.180481 
	C278.139648,389.782227 291.890625,386.879517 306.419891,388.095123 
	C315.509735,388.855682 324.022614,391.991394 331.600311,397.188049 
	C332.779510,397.996735 333.795563,399.845764 333.892273,401.280762 
	C334.188385,405.674103 333.999939,410.100128 333.999939,414.893524 
	C310.123230,393.535675 285.289490,396.529724 269.697327,414.936584 
	C256.161865,430.915466 256.110168,455.167877 271.862946,471.096069 
	C285.748413,485.136139 311.970703,490.918549 333.996521,466.788544 
	C333.996521,472.625519 334.258362,477.869263 333.823029,483.054474 
	C333.705688,484.451782 331.695221,486.081573 330.175171,486.910400 
	C310.496155,497.640961 290.566345,498.675995 271.071930,486.887177 
	C259.736633,480.032440 252.170807,469.730988 248.196075,456.483704 
z"/>
<path fill="#1F1A17" opacity="1.000000" stroke="none" 
	d="
M1060.999023,492.000000 
	C1048.864014,492.000000 1037.228638,492.000000 1025.297241,492.000000 
	C1025.297241,458.064117 1025.297241,424.348846 1025.297241,390.316406 
	C1042.904907,390.316406 1060.630737,390.316406 1078.678955,390.316406 
	C1078.678955,393.901428 1078.678955,397.637207 1078.678955,401.785156 
	C1065.425537,401.785156 1052.024048,401.785156 1038.312988,401.785156 
	C1038.312988,411.247467 1038.312988,420.313080 1038.312988,429.791351 
	C1051.586304,429.791351 1064.985474,429.791351 1078.690430,429.791351 
	C1078.690430,434.254730 1078.690430,438.323090 1078.690430,442.806488 
	C1065.400879,442.806488 1052.000244,442.806488 1038.301880,442.806488 
	C1038.301880,455.270325 1038.301880,467.333374 1038.301880,479.808289 
	C1051.603882,479.808289 1065.003052,479.808289 1078.699097,479.808289 
	C1078.699097,483.937836 1078.699097,487.674194 1078.699097,492.000000 
	C1073.023315,492.000000 1067.260986,492.000000 1060.999023,492.000000 
z"/>
<path fill="#1F1A17" opacity="1.000000" stroke="none" 
	d="
M1097.680908,467.731262 
	C1099.723389,466.647705 1101.449585,465.792206 1103.469971,464.790833 
	C1105.296875,471.572968 1107.961670,477.806366 1114.061279,481.483704 
	C1122.286865,486.442841 1134.563110,483.664917 1140.229858,475.271027 
	C1144.714844,468.627930 1144.610596,456.656281 1135.367432,450.913300 
	C1129.262329,447.120087 1122.719238,443.934631 1116.120728,441.053101 
	C1103.760498,435.655487 1095.225708,426.727264 1094.839966,413.541229 
	C1094.552856,403.723511 1103.663940,392.037292 1112.475952,389.761566 
	C1125.568604,386.380371 1137.271362,387.089233 1146.961792,397.546204 
	C1148.562134,399.273163 1149.680664,401.446655 1151.302856,403.825989 
	C1147.460083,406.142639 1143.913696,408.280640 1141.030151,410.019073 
	C1137.028320,406.565826 1133.748779,403.386200 1130.114868,400.683289 
	C1124.820435,396.745300 1113.645020,399.223053 1109.976196,405.989899 
	C1106.031372,413.265961 1108.448730,421.907318 1116.156982,425.941010 
	C1122.554810,429.288910 1129.266602,432.040527 1135.859375,435.011719 
	C1145.870728,439.523560 1154.050171,446.191956 1155.794067,457.445099 
	C1157.722046,469.885559 1155.047852,481.843750 1143.942017,489.309784 
	C1129.591431,498.957153 1103.914185,498.420410 1094.010498,477.838531 
	C1092.983887,475.704895 1092.547974,473.287048 1091.728638,470.648956 
	C1093.688232,469.713715 1095.526367,468.836517 1097.680908,467.731262 
z"/>
<path fill="#1F1A17" opacity="1.000000" stroke="none" 
	d="
M101.091553,403.000000 
	C98.951599,403.000000 97.299553,403.000000 95.325500,403.000000 
	C95.325500,398.771210 95.325500,394.703186 95.325500,390.314880 
	C118.235748,390.314880 141.294907,390.314880 164.677612,390.314880 
	C164.677612,394.232819 164.677612,398.301392 164.677612,402.787750 
	C155.424759,402.787750 146.018402,402.787750 136.218109,402.787750 
	C136.218109,432.583832 136.218109,461.973145 136.218109,491.680420 
	C131.761795,491.680420 127.693275,491.680420 123.222397,491.680420 
	C123.222397,462.423187 123.222397,433.032318 123.222397,403.000000 
	C115.755928,403.000000 108.667702,403.000000 101.091553,403.000000 
z"/>
<path fill="#1F1A17" opacity="1.000000" stroke="none" 
	d="
M703.000000,431.000000 
	C703.000000,447.468292 703.000000,463.436584 703.000000,479.817078 
	C715.610901,479.817078 728.013367,479.817078 740.705444,479.817078 
	C740.705444,483.951477 740.705444,487.688110 740.705444,491.715881 
	C724.033630,491.715881 707.303223,491.715881 690.285645,491.715881 
	C690.285645,458.036041 690.285645,424.316254 690.285645,390.297852 
	C694.278320,390.297852 698.347656,390.297852 703.000000,390.297852 
	C703.000000,403.651550 703.000000,417.075775 703.000000,431.000000 
z"/>
<path fill="#0287CE" opacity="1.000000" stroke="none" 
	d="
M1571.357178,510.967926 
	C1568.636963,508.842499 1566.182373,506.621643 1563.820190,504.306488 
	C1545.780640,486.625702 1527.776489,468.908997 1509.723999,451.241577 
	C1502.611206,444.280426 1495.403320,437.416443 1488.095825,430.199158 
	C1491.417480,426.331604 1494.882080,422.773102 1498.681641,419.548950 
	C1499.844360,421.255341 1500.438721,422.864838 1501.545776,423.952393 
	C1504.258667,426.617310 1507.329102,428.917908 1510.042603,431.582031 
	C1532.106201,453.243256 1554.104126,474.971466 1576.182129,496.618042 
	C1577.927002,498.328949 1580.124023,499.578857 1582.110840,501.042969 
	C1578.629150,504.304901 1575.147461,507.566833 1571.357178,510.967926 
z"/>
<path fill="#113F7A" opacity="1.000000" stroke="none" 
	d="
M1643.783081,413.977234 
	C1642.545776,419.398438 1641.308594,424.819641 1639.676758,430.584137 
	C1635.022583,427.285675 1630.545776,423.866882 1626.540283,419.964508 
	C1607.146851,401.070343 1587.841919,382.084778 1568.645142,362.991333 
	C1567.192871,361.546814 1566.828857,359.008270 1565.958862,356.978302 
	C1565.958862,356.978302 1565.993408,356.998260 1566.212158,356.891449 
	C1566.718872,356.590668 1566.896118,356.323303 1566.962524,355.982513 
	C1566.962524,355.982513 1566.991089,355.990479 1567.200195,355.917419 
	C1567.681885,355.702087 1567.881836,355.490967 1568.008911,355.210968 
	C1570.783813,352.542175 1573.558838,349.873413 1576.664429,347.488586 
	C1577.920288,349.938446 1578.325684,352.614807 1579.862549,354.180084 
	C1585.891479,360.320282 1592.336426,366.049011 1598.518188,372.042755 
	C1612.089355,385.200836 1625.567139,398.455444 1639.173706,411.576691 
	C1640.369629,412.730011 1642.230835,413.193390 1643.783081,413.977234 
z"/>
<path fill="#0F4885" opacity="1.000000" stroke="none" 
	d="
M1565.645508,357.092499 
	C1566.828857,359.008270 1567.192871,361.546814 1568.645142,362.991333 
	C1587.841919,382.084778 1607.146851,401.070343 1626.540283,419.964508 
	C1630.545776,423.866882 1635.022583,427.285675 1639.623535,430.960876 
	C1638.490601,435.180573 1637.016235,439.366760 1634.926514,443.742767 
	C1631.689941,441.937195 1628.821289,440.194580 1626.486328,437.907135 
	C1603.775879,415.659393 1581.143188,393.332031 1558.542236,370.972992 
	C1557.428589,369.871185 1556.812622,368.266144 1555.964966,366.895447 
	C1559.087402,363.665894 1562.209717,360.436279 1565.645508,357.092499 
z"/>
<path fill="#13346D" opacity="1.000000" stroke="none" 
	d="
M1643.861938,413.515808 
	C1642.230835,413.193390 1640.369629,412.730011 1639.173706,411.576691 
	C1625.567139,398.455444 1612.089355,385.200836 1598.518188,372.042755 
	C1592.336426,366.049011 1585.891479,360.320282 1579.862549,354.180084 
	C1578.325684,352.614807 1577.920288,349.938446 1576.978271,347.372925 
	C1576.961426,346.973328 1576.993164,346.996368 1577.213013,346.891174 
	C1577.723267,346.589691 1577.901123,346.319397 1577.966553,345.975067 
	C1577.966553,345.975067 1578.000000,345.998779 1578.217529,345.892731 
	C1578.724487,345.591187 1578.901367,345.321747 1578.965698,344.978363 
	C1578.965698,344.978363 1578.995239,344.996643 1579.215942,344.891846 
	C1579.725464,344.592102 1579.901611,344.323334 1579.965332,343.980743 
	C1579.965332,343.980743 1579.995117,343.995392 1580.217773,343.890137 
	C1580.729492,343.588013 1580.904785,343.317383 1580.966431,342.973053 
	C1580.966431,342.973053 1581.000000,342.998260 1581.202026,342.921326 
	C1581.678711,342.699158 1581.881470,342.485535 1582.012207,342.203613 
	C1583.788574,340.536987 1585.564819,338.870392 1587.672363,337.456299 
	C1588.677612,338.980652 1589.087402,340.520203 1590.064819,341.484589 
	C1606.975952,358.171265 1623.947998,374.796295 1640.951416,391.389008 
	C1641.723877,392.142792 1642.917480,392.464874 1643.915039,392.988037 
	C1643.923584,399.676788 1643.932129,406.365570 1643.861938,413.515808 
z"/>
<path fill="#1F1A17" opacity="1.000000" stroke="none" 
	d="
M1001.000000,457.000000 
	C1001.000000,468.804504 1001.000000,480.109039 1001.000000,491.706177 
	C996.711182,491.706177 992.642334,491.706177 988.283691,491.706177 
	C988.283691,458.033051 988.283691,424.310455 988.283691,390.293945 
	C992.288574,390.293945 996.357422,390.293945 1001.000000,390.293945 
	C1001.000000,412.326202 1001.000000,434.413116 1001.000000,457.000000 
z"/>
<path fill="#0A60A1" opacity="1.000000" stroke="none" 
	d="
M1530.956055,389.886719 
	C1533.412598,387.320709 1535.869141,384.754730 1538.657593,382.434509 
	C1540.016113,384.310089 1540.775024,386.212769 1542.112915,387.525391 
	C1550.656860,395.908600 1559.378784,404.110138 1567.947144,412.468964 
	C1584.622925,428.737366 1601.202759,445.104431 1617.947632,461.301178 
	C1619.114136,462.429443 1621.312500,462.490753 1623.031006,463.048187 
	C1620.255859,465.625092 1617.480835,468.201996 1614.089111,470.763123 
	C1611.763916,469.446777 1609.901733,468.304810 1608.370728,466.820892 
	C1594.796509,453.664276 1581.304810,440.422272 1567.738281,427.257599 
	C1560.129028,419.873688 1552.291504,412.720367 1544.810059,405.210785 
	C1539.955688,400.338196 1535.558228,395.010498 1530.956055,389.886719 
z"/>
<path fill="#0D508E" opacity="1.000000" stroke="none" 
	d="
M1555.649780,367.022308 
	C1556.812622,368.266144 1557.428589,369.871185 1558.542236,370.972992 
	C1581.143188,393.332031 1603.775879,415.659393 1626.486328,437.907135 
	C1628.821289,440.194580 1631.689941,441.937195 1634.659180,443.967834 
	C1633.234131,446.938599 1631.461060,449.874084 1629.194580,452.684692 
	C1627.664917,451.736877 1626.548096,450.996857 1625.604980,450.078522 
	C1611.568604,436.411652 1597.509521,422.767639 1583.551758,409.020721 
	C1573.248291,398.872925 1563.007568,388.658020 1552.938721,378.279083 
	C1551.392212,376.684998 1550.924194,374.044830 1549.957397,371.888458 
	C1551.749756,370.308685 1553.542236,368.728943 1555.649780,367.022308 
z"/>
<path fill="#162960" opacity="1.000000" stroke="none" 
	d="
M1643.958252,392.572113 
	C1642.917480,392.464874 1641.723877,392.142792 1640.951416,391.389008 
	C1623.947998,374.796295 1606.975952,358.171265 1590.064819,341.484589 
	C1589.087402,340.520203 1588.677612,338.980652 1587.983398,337.343018 
	C1587.963135,336.977234 1587.994507,336.996429 1588.214844,336.892273 
	C1588.724609,336.593292 1588.901611,336.324524 1588.966431,335.981812 
	C1588.966431,335.981812 1588.995117,335.995453 1589.216797,335.892548 
	C1589.726685,335.596466 1589.902344,335.329285 1589.965454,334.988098 
	C1589.965454,334.988098 1589.990234,334.990845 1590.216309,334.890625 
	C1590.729126,334.598083 1590.903076,334.332123 1590.964478,333.992462 
	C1590.964478,333.992462 1590.987183,333.987305 1591.222656,333.879089 
	C1591.630615,333.489990 1591.802979,333.209137 1591.975464,332.928284 
	C1593.420166,331.629303 1594.864990,330.330353 1596.687622,329.333374 
	C1608.770142,341.264465 1620.420654,352.949127 1632.233643,364.466980 
	C1634.158936,366.344147 1636.803101,367.483887 1639.114990,368.964478 
	C1640.407471,374.447174 1641.751465,379.918457 1642.967285,385.418152 
	C1643.456787,387.632141 1643.665283,389.908295 1643.958252,392.572113 
z"/>
<path fill="#0968AA" opacity="1.000000" stroke="none" 
	d="
M1530.655273,390.012817 
	C1535.558228,395.010498 1539.955688,400.338196 1544.810059,405.210785 
	C1552.291504,412.720367 1560.129028,419.873688 1567.738281,427.257599 
	C1581.304810,440.422272 1594.796509,453.664276 1608.370728,466.820892 
	C1609.901733,468.304810 1611.763916,469.446777 1613.782593,470.892120 
	C1612.957642,472.290863 1611.822632,473.544830 1609.986572,474.906189 
	C1607.114014,474.099213 1604.531128,473.656067 1602.845337,472.184998 
	C1596.987427,467.072845 1591.353149,461.693726 1585.791504,456.254791 
	C1566.818848,437.700409 1547.869629,419.121185 1529.060181,400.401978 
	C1527.457642,398.807068 1526.957520,396.104523 1525.945190,393.916565 
	C1525.945190,393.916565 1525.987915,393.988342 1526.170898,393.906036 
	C1526.640137,393.678070 1526.850098,393.459198 1526.983887,393.167084 
	C1528.107300,392.157684 1529.230835,391.148285 1530.655273,390.012817 
z"/>
<path fill="#0B5B9B" opacity="1.000000" stroke="none" 
	d="
M1454.828491,216.015152 
	C1457.545288,218.432892 1460.262207,220.850662 1462.700195,223.669220 
	C1447.445801,239.384262 1432.393066,254.624634 1417.572754,270.087646 
	C1415.178101,272.586151 1413.816650,276.074829 1411.977539,279.105835 
	C1409.059937,276.647491 1406.142212,274.189117 1403.109131,271.048157 
	C1403.771606,268.968170 1404.295776,267.327423 1405.366699,266.210999 
	C1416.175171,254.942856 1427.094360,243.781067 1437.929321,232.538162 
	C1440.338501,230.038284 1442.385010,227.178268 1444.874390,224.768982 
	C1448.045776,221.699524 1451.497559,218.919785 1454.828491,216.015152 
z"/>
<path fill="#0E4F8D" opacity="1.000000" stroke="none" 
	d="
M1412.104858,279.409424 
	C1413.816650,276.074829 1415.178101,272.586151 1417.572754,270.087646 
	C1432.393066,254.624634 1447.445801,239.384262 1462.763916,224.017349 
	C1464.015503,224.758774 1464.924683,225.552841 1465.960693,226.626892 
	C1467.065796,228.960327 1468.043945,231.013779 1468.891357,233.712067 
	C1467.371826,235.539719 1465.878784,236.620987 1464.610596,237.921539 
	C1453.691284,249.118683 1442.785156,260.329010 1431.937622,271.595551 
	C1428.485596,275.180878 1425.131226,278.870941 1421.925537,282.676056 
	C1420.940674,283.845276 1420.597534,285.555328 1419.960571,287.017700 
	C1417.384399,284.582794 1414.808350,282.147919 1412.104858,279.409424 
z"/>
<path fill="#047FC6" opacity="1.000000" stroke="none" 
	d="
M1582.412354,500.915894 
	C1580.124023,499.578857 1577.927002,498.328949 1576.182129,496.618042 
	C1554.104126,474.971466 1532.106201,453.243256 1510.042603,431.582031 
	C1507.329102,428.917908 1504.258667,426.617310 1501.545776,423.952393 
	C1500.438721,422.864838 1499.844360,421.255341 1499.014893,419.529175 
	C1500.458252,417.833832 1501.903198,416.492584 1503.793457,415.329712 
	C1530.155151,441.167847 1556.043213,466.856598 1582.062866,492.411346 
	C1583.528442,493.850800 1586.075928,494.188751 1588.119751,495.039337 
	C1586.317749,496.955811 1584.515869,498.872314 1582.412354,500.915894 
z"/>
<path fill="#0C5999" opacity="1.000000" stroke="none" 
	d="
M1623.020508,463.030914 
	C1621.312500,462.490753 1619.114136,462.429443 1617.947632,461.301178 
	C1601.202759,445.104431 1584.622925,428.737366 1567.947144,412.468964 
	C1559.378784,404.110138 1550.656860,395.908600 1542.112915,387.525391 
	C1540.775024,386.212769 1540.016113,384.310089 1538.968262,382.311890 
	C1538.947021,381.943420 1538.976807,381.980347 1539.175049,381.907104 
	C1539.655151,381.689545 1539.863037,381.473999 1539.997070,381.187195 
	C1541.119629,380.173584 1542.242065,379.159973 1543.705322,378.371094 
	C1546.000488,380.533783 1547.948120,382.478485 1549.910156,384.408691 
	C1570.250610,404.419006 1590.596191,424.424255 1610.932617,444.438812 
	C1613.772461,447.233917 1616.422241,450.244446 1619.437012,452.832672 
	C1621.762573,454.829102 1624.522339,456.319885 1627.088989,458.035461 
	C1626.084351,459.161194 1625.079834,460.286957 1623.753174,461.832703 
	C1623.207153,462.465302 1623.077515,462.724915 1623.041992,463.031555 
	C1623.041992,463.031555 1623.010132,463.013641 1623.020508,463.030914 
z"/>
<path fill="#0967A9" opacity="1.000000" stroke="none" 
	d="
M1454.815186,215.679428 
	C1451.497559,218.919785 1448.045776,221.699524 1444.874390,224.768982 
	C1442.385010,227.178268 1440.338501,230.038284 1437.929321,232.538162 
	C1427.094360,243.781067 1416.175171,254.942856 1405.366699,266.210999 
	C1404.295776,267.327423 1403.771606,268.968170 1402.978516,270.738190 
	C1400.380737,268.647766 1397.798340,266.184692 1395.127686,263.065369 
	C1399.847290,256.951874 1404.479858,251.327530 1409.497803,246.070969 
	C1421.098022,233.918777 1432.888672,221.948334 1444.584961,209.887543 
	C1445.153442,209.301331 1445.560425,208.558334 1446.042603,207.888306 
	C1448.962402,210.373428 1451.882202,212.858566 1454.815186,215.679428 
z"/>
<path fill="#182156" opacity="1.000000" stroke="none" 
	d="
M1639.077881,368.563904 
	C1636.803101,367.483887 1634.158936,366.344147 1632.233643,364.466980 
	C1620.420654,352.949127 1608.770142,341.264465 1597.025146,329.285706 
	C1600.411987,325.389099 1603.839233,321.842072 1607.545166,318.134888 
	C1609.047363,318.319824 1610.680908,318.275482 1611.433472,319.067871 
	C1624.757324,333.098480 1634.675781,349.079285 1639.077881,368.563904 
z"/>
<path fill="#0C5695" opacity="1.000000" stroke="none" 
	d="
M1627.331299,457.963531 
	C1624.522339,456.319885 1621.762573,454.829102 1619.437012,452.832672 
	C1616.422241,450.244446 1613.772461,447.233917 1610.932617,444.438812 
	C1590.596191,424.424255 1570.250610,404.419006 1549.910156,384.408691 
	C1547.948120,382.478485 1546.000488,380.533783 1544.004883,378.241821 
	C1545.757202,375.973755 1547.550659,374.059662 1549.650635,372.017029 
	C1550.924194,374.044830 1551.392212,376.684998 1552.938721,378.279083 
	C1563.007568,388.658020 1573.248291,398.872925 1583.551758,409.020721 
	C1597.509521,422.767639 1611.568604,436.411652 1625.604980,450.078522 
	C1626.548096,450.996857 1627.664917,451.736877 1628.889648,452.847992 
	C1628.781128,454.224731 1628.484009,455.313263 1628.180420,456.744385 
	C1627.973755,457.355164 1627.773682,457.623352 1627.331299,457.963531 
z"/>
<path fill="#0287CE" opacity="1.000000" stroke="none" 
	d="
M1371.085449,241.414856 
	C1381.340088,230.203613 1391.773682,219.340118 1402.081299,208.358292 
	C1404.888062,205.368011 1407.314941,202.021255 1409.959351,198.502289 
	C1414.694824,198.118088 1419.387329,198.069717 1424.497803,198.429901 
	C1422.436768,201.899399 1420.162231,205.156921 1417.443115,207.987473 
	C1405.410034,220.513947 1393.231689,232.900787 1381.168091,245.398071 
	C1380.197510,246.403488 1379.697388,247.863007 1378.978760,249.111481 
	C1376.391357,246.646973 1373.804199,244.182510 1371.085449,241.414856 
z"/>
<path fill="#104580" opacity="1.000000" stroke="none" 
	d="
M1419.975830,287.012756 
	C1420.597534,285.555328 1420.940674,283.845276 1421.925537,282.676056 
	C1425.131226,278.870941 1428.485596,275.180878 1431.937622,271.595551 
	C1442.785156,260.329010 1453.691284,249.118683 1464.610596,237.921539 
	C1465.878784,236.620987 1467.371826,235.539719 1468.943359,234.050659 
	C1470.507324,237.189270 1471.888794,240.634064 1472.944824,244.529510 
	C1471.892212,245.352692 1471.003784,245.567368 1470.461060,246.120987 
	C1456.965576,259.888977 1443.469482,273.657104 1430.094971,287.542297 
	C1428.673584,289.018097 1428.003174,291.217194 1426.984253,293.080719 
	C1425.727905,291.954376 1424.471680,290.828003 1422.946167,289.136292 
	C1422.105957,288.393799 1421.534912,288.216705 1420.963867,288.039612 
	C1420.963867,288.039581 1421.000000,288.000000 1420.898071,287.786926 
	C1420.603149,287.277863 1420.332764,287.098633 1419.984863,287.036163 
	C1419.984863,287.036163 1419.990967,287.007782 1419.975830,287.012756 
z"/>
<path fill="#086CAF" opacity="1.000000" stroke="none" 
	d="
M1525.650635,394.038269 
	C1526.957520,396.104523 1527.457642,398.807068 1529.060181,400.401978 
	C1547.869629,419.121185 1566.818848,437.700409 1585.791504,456.254791 
	C1591.353149,461.693726 1596.987427,467.072845 1602.845337,472.184998 
	C1604.531128,473.656067 1607.114014,474.099213 1609.690308,475.024628 
	C1608.304443,476.617615 1606.513672,478.199646 1604.063477,479.869995 
	C1597.023926,474.226562 1590.442749,468.701324 1584.300903,462.724854 
	C1564.442627,443.401184 1544.744995,423.912445 1524.987549,404.485229 
	C1523.354736,402.879852 1521.736694,401.259674 1520.111694,399.646423 
	C1520.111694,399.646423 1520.323608,399.206635 1520.820801,399.012573 
	C1521.533691,398.509033 1521.749390,398.199493 1521.965088,397.889923 
	C1523.095337,396.646576 1524.225830,395.403259 1525.650635,394.038269 
z"/>
<path fill="#0771B5" opacity="1.000000" stroke="none" 
	d="
M1445.927979,207.595459 
	C1445.560425,208.558334 1445.153442,209.301331 1444.584961,209.887543 
	C1432.888672,221.948334 1421.098022,233.918777 1409.497803,246.070969 
	C1404.479858,251.327530 1399.847290,256.951874 1394.998291,262.761017 
	C1393.042480,261.646667 1391.128174,260.180420 1389.219727,258.089844 
	C1391.746216,254.215912 1393.998535,250.708710 1396.832520,247.760605 
	C1410.138916,233.918274 1423.569824,220.194550 1437.072754,206.543793 
	C1438.335449,205.267303 1440.414917,204.799026 1442.115234,203.955551 
	C1443.347900,205.071259 1444.580688,206.186935 1445.927979,207.595459 
z"/>
<path fill="#123B75" opacity="1.000000" stroke="none" 
	d="
M1427.108398,293.385742 
	C1428.003174,291.217194 1428.673584,289.018097 1430.094971,287.542297 
	C1443.469482,273.657104 1456.965576,259.888977 1470.461060,246.120987 
	C1471.003784,245.567368 1471.892212,245.352692 1472.999390,244.916962 
	C1473.909180,248.290329 1474.439209,251.726837 1474.574707,255.625626 
	C1473.492676,256.522583 1472.687622,256.842621 1472.134644,257.408783 
	C1460.001099,269.829865 1447.845703,282.230652 1435.862305,294.795410 
	C1434.675537,296.039795 1434.571777,298.317139 1433.965332,300.115051 
	C1431.721069,297.973633 1429.476807,295.832214 1427.108398,293.385742 
z"/>
<path fill="#076FB3" opacity="1.000000" stroke="none" 
	d="
M1519.884277,399.781921 
	C1521.736694,401.259674 1523.354736,402.879852 1524.987549,404.485229 
	C1544.744995,423.912445 1564.442627,443.401184 1584.300903,462.724854 
	C1590.442749,468.701324 1597.023926,474.226562 1603.755615,479.999207 
	C1603.108398,480.824341 1602.109741,481.608643 1600.615967,482.690216 
	C1595.539917,479.283936 1590.634888,475.913116 1586.432129,471.821014 
	C1564.747559,450.707306 1543.213501,429.438293 1521.732300,408.117340 
	C1520.060181,406.457733 1519.196655,403.983185 1517.957275,401.887421 
	C1518.523926,401.230774 1519.090454,400.574097 1519.884277,399.781921 
z"/>
<path fill="#0676BB" opacity="1.000000" stroke="none" 
	d="
M1597.114258,486.043671 
	C1596.306519,486.967560 1595.498779,487.891479 1594.028809,488.913788 
	C1590.643433,487.240356 1587.561646,485.843109 1585.256470,483.635193 
	C1571.575195,470.531525 1558.028809,457.285889 1544.526978,443.996643 
	C1534.684326,434.308838 1524.859985,424.595306 1515.320190,414.613556 
	C1513.498291,412.707275 1513.042603,409.495361 1511.956543,406.885864 
	C1512.404785,406.590088 1512.853027,406.294281 1513.880859,406.158142 
	C1515.871826,407.943573 1517.182007,409.672241 1518.710327,411.179626 
	C1539.779053,431.960663 1560.878296,452.710724 1581.967896,473.470551 
	C1583.272339,474.754547 1584.454346,476.186249 1585.872192,477.326752 
	C1589.566406,480.298492 1593.360229,483.146393 1597.114258,486.043671 
z"/>
<path fill="#047EC4" opacity="1.000000" stroke="none" 
	d="
M1379.126343,249.409210 
	C1379.697388,247.863007 1380.197510,246.403488 1381.168091,245.398071 
	C1393.231689,232.900787 1405.410034,220.513947 1417.443115,207.987473 
	C1420.162231,205.156921 1422.436768,201.899399 1424.958984,198.502655 
	C1428.883911,198.187775 1432.765747,198.208694 1436.530029,198.634949 
	C1433.425049,202.043137 1430.413574,205.022354 1427.454712,208.052994 
	C1414.510498,221.311676 1401.537109,234.542709 1388.702026,247.906555 
	C1387.069214,249.606766 1386.189209,252.030151 1384.960449,254.118576 
	C1383.064941,252.648041 1381.169434,251.177475 1379.126343,249.409210 
z"/>
<path fill="#0673B7" opacity="1.000000" stroke="none" 
	d="
M1597.443848,486.018921 
	C1593.360229,483.146393 1589.566406,480.298492 1585.872192,477.326752 
	C1584.454346,476.186249 1583.272339,474.754547 1581.967896,473.470551 
	C1560.878296,452.710724 1539.779053,431.960663 1518.710327,411.179626 
	C1517.182007,409.672241 1515.871826,407.943573 1514.177979,406.133545 
	C1515.050415,404.680115 1516.205200,403.410950 1517.658691,402.014587 
	C1519.196655,403.983185 1520.060181,406.457733 1521.732300,408.117340 
	C1543.213501,429.438293 1564.747559,450.707306 1586.432129,471.821014 
	C1590.634888,475.913116 1595.539917,479.283936 1600.475220,482.991394 
	C1599.810669,483.994934 1598.791992,484.994537 1597.443848,486.018921 
z"/>
<path fill="#047CC2" opacity="1.000000" stroke="none" 
	d="
M1588.417480,494.915466 
	C1586.075928,494.188751 1583.528442,493.850800 1582.062866,492.411346 
	C1556.043213,466.856598 1530.155151,441.167847 1504.096191,415.198914 
	C1505.092407,413.637787 1506.231079,412.385834 1507.705811,411.367950 
	C1509.418945,413.625397 1510.509644,415.937408 1512.215698,417.628662 
	C1535.785400,440.993195 1559.435181,464.277069 1583.088135,487.557404 
	C1584.138916,488.591705 1585.296387,489.641937 1586.604858,490.259247 
	C1588.326904,491.071533 1590.248047,491.461761 1592.083618,492.033447 
	C1590.960815,492.952789 1589.838013,493.872162 1588.417480,494.915466 
z"/>
<path fill="#0579BF" opacity="1.000000" stroke="none" 
	d="
M1592.383179,491.910095 
	C1590.248047,491.461761 1588.326904,491.071533 1586.604858,490.259247 
	C1585.296387,489.641937 1584.138916,488.591705 1583.088135,487.557404 
	C1559.435181,464.277069 1535.785400,440.993195 1512.215698,417.628662 
	C1510.509644,415.937408 1509.418945,413.625397 1508.001709,411.241852 
	C1509.096313,409.633362 1510.231201,408.385040 1511.661377,407.011261 
	C1513.042603,409.495361 1513.498291,412.707275 1515.320190,414.613556 
	C1524.859985,424.595306 1534.684326,434.308838 1544.526978,443.996643 
	C1558.028809,457.285889 1571.575195,470.531525 1585.256470,483.635193 
	C1587.561646,485.843109 1590.643433,487.240356 1593.740967,489.027649 
	C1593.637939,489.957672 1593.160400,490.872192 1592.383179,491.910095 
z"/>
<path fill="#0577BD" opacity="1.000000" stroke="none" 
	d="
M1385.081055,254.412537 
	C1386.189209,252.030151 1387.069214,249.606766 1388.702026,247.906555 
	C1401.537109,234.542709 1414.510498,221.311676 1427.454712,208.052994 
	C1430.413574,205.022354 1433.425049,202.043137 1436.765381,198.999939 
	C1438.745117,200.397278 1440.371826,201.834976 1442.056885,203.614105 
	C1440.414917,204.799026 1438.335449,205.267303 1437.072754,206.543793 
	C1423.569824,220.194550 1410.138916,233.918274 1396.832520,247.760605 
	C1393.998535,250.708710 1391.746216,254.215912 1389.089111,257.784241 
	C1387.702148,256.970856 1386.452026,255.838684 1385.081055,254.412537 
z"/>
<path fill="#152B62" opacity="1.000000" stroke="none" 
	d="
M1474.839600,267.013306 
	C1474.119385,272.189270 1473.399170,277.365173 1472.013184,282.805603 
	C1469.442627,284.335663 1467.254761,285.322083 1465.683594,286.916321 
	C1459.630737,293.058319 1453.679565,299.309021 1447.925659,305.729919 
	C1446.756104,307.034973 1446.606445,309.254028 1445.986572,311.051727 
	C1443.737427,308.930420 1441.488159,306.809113 1439.143555,304.035522 
	C1439.235474,302.926880 1439.311279,302.366547 1439.625977,302.029297 
	C1450.026978,290.885620 1460.419556,279.733459 1470.927490,268.691254 
	C1471.826538,267.746521 1473.516846,267.554810 1474.839600,267.013306 
z"/>
<path fill="#14336B" opacity="1.000000" stroke="none" 
	d="
M1474.903809,266.611389 
	C1473.516846,267.554810 1471.826538,267.746521 1470.927490,268.691254 
	C1460.419556,279.733459 1450.026978,290.885620 1439.625977,302.029297 
	C1439.311279,302.366547 1439.235474,302.926880 1439.010498,303.733643 
	C1437.392944,302.963928 1435.813232,301.843750 1434.099365,300.419312 
	C1434.571777,298.317139 1434.675537,296.039795 1435.862305,294.795410 
	C1447.845703,282.230652 1460.001099,269.829865 1472.134644,257.408783 
	C1472.687622,256.842621 1473.492676,256.522583 1474.511841,256.052063 
	C1474.885010,259.413971 1474.926514,262.811737 1474.903809,266.611389 
z"/>
<path fill="#172257" opacity="1.000000" stroke="none" 
	d="
M1446.097046,311.371002 
	C1446.606445,309.254028 1446.756104,307.034973 1447.925659,305.729919 
	C1453.679565,299.309021 1459.630737,293.058319 1465.683594,286.916321 
	C1467.254761,285.322083 1469.442627,284.335663 1471.704834,283.044067 
	C1468.605591,296.008240 1462.980347,307.751038 1452.311646,316.847382 
	C1450.058472,315.172638 1448.132935,313.431458 1446.097046,311.371002 
z"/>
<path fill="#0E4F8D" opacity="1.000000" stroke="none" 
	d="
M1421.066895,288.338684 
	C1421.534912,288.216705 1422.105957,288.393799 1422.825928,288.841431 
	C1422.373169,288.953857 1421.771484,288.795776 1421.066895,288.338684 
z"/>
<path fill="#0F4885" opacity="1.000000" stroke="none" 
	d="
M1566.713013,356.043091 
	C1566.896118,356.323303 1566.718872,356.590668 1566.202271,356.874512 
	C1566.136963,356.677460 1566.300171,356.390564 1566.713013,356.043091 
z"/>
<path fill="#0A60A1" opacity="1.000000" stroke="none" 
	d="
M1539.738525,381.150146 
	C1539.863037,381.473999 1539.655151,381.689545 1539.154541,381.897522 
	C1539.117188,381.678436 1539.298584,381.395752 1539.738525,381.150146 
z"/>
<path fill="#13346D" opacity="1.000000" stroke="none" 
	d="
M1591.729492,333.011475 
	C1591.802979,333.209137 1591.630615,333.489990 1591.225342,333.867859 
	C1591.156128,333.674835 1591.319824,333.384766 1591.729492,333.011475 
z"/>
<path fill="#0A60A1" opacity="1.000000" stroke="none" 
	d="
M1623.290283,462.964966 
	C1623.077515,462.724915 1623.207153,462.465302 1623.615723,462.130188 
	C1623.713013,462.304565 1623.625854,462.601471 1623.290283,462.964966 
z"/>
<path fill="#13346D" opacity="1.000000" stroke="none" 
	d="
M1590.716553,334.051270 
	C1590.903076,334.332123 1590.729126,334.598083 1590.215088,334.877991 
	C1590.148071,334.680389 1590.308228,334.395233 1590.716553,334.051270 
z"/>
<path fill="#13346D" opacity="1.000000" stroke="none" 
	d="
M1589.716797,335.048462 
	C1589.902344,335.329285 1589.726685,335.596466 1589.209961,335.878204 
	C1589.143799,335.680756 1589.306030,335.394775 1589.716797,335.048462 
z"/>
<path fill="#0E4F8D" opacity="1.000000" stroke="none" 
	d="
M1420.049561,287.284058 
	C1420.332764,287.098633 1420.603149,287.277863 1420.882080,287.807739 
	C1420.683472,287.871735 1420.398926,287.701843 1420.049561,287.284058 
z"/>
<path fill="#13346D" opacity="1.000000" stroke="none" 
	d="
M1588.717285,336.044250 
	C1588.901611,336.324524 1588.724609,336.593292 1588.205566,336.877869 
	C1588.140015,336.680603 1588.303955,336.393646 1588.717285,336.044250 
z"/>
<path fill="#086CAF" opacity="1.000000" stroke="none" 
	d="
M1526.722900,393.133850 
	C1526.850098,393.459198 1526.640137,393.678070 1526.132324,393.889923 
	C1526.094360,393.670929 1526.278076,393.385742 1526.722900,393.133850 
z"/>
<path fill="#0F4885" opacity="1.000000" stroke="none" 
	d="
M1567.754639,355.164917 
	C1567.881836,355.490967 1567.681885,355.702087 1567.196289,355.902985 
	C1567.155640,355.680664 1567.328003,355.399750 1567.754639,355.164917 
z"/>
<path fill="#113F7A" opacity="1.000000" stroke="none" 
	d="
M1577.716064,346.038269 
	C1577.901123,346.319397 1577.723267,346.589691 1577.202026,346.876617 
	C1577.135986,346.678680 1577.300781,346.390076 1577.716064,346.038269 
z"/>
<path fill="#113F7A" opacity="1.000000" stroke="none" 
	d="
M1578.715576,345.040405 
	C1578.901367,345.321747 1578.724487,345.591187 1578.204834,345.876709 
	C1578.138428,345.678619 1578.301880,345.390533 1578.715576,345.040405 
z"/>
<path fill="#113F7A" opacity="1.000000" stroke="none" 
	d="
M1579.715576,344.041962 
	C1579.901611,344.323334 1579.725464,344.592102 1579.207275,344.876648 
	C1579.140503,344.678558 1579.303101,344.390869 1579.715576,344.041962 
z"/>
<path fill="#113F7A" opacity="1.000000" stroke="none" 
	d="
M1581.753418,342.153503 
	C1581.881470,342.485535 1581.678711,342.699158 1581.188721,342.904846 
	C1581.147095,342.677979 1581.320801,342.390686 1581.753418,342.153503 
z"/>
<path fill="#076FB3" opacity="1.000000" stroke="none" 
	d="
M1521.693359,397.995422 
	C1521.749390,398.199493 1521.533691,398.509033 1521.055176,398.944031 
	C1521.002075,398.746613 1521.211792,398.423737 1521.693359,397.995422 
z"/>
<path fill="#113F7A" opacity="1.000000" stroke="none" 
	d="
M1580.717041,343.037231 
	C1580.904785,343.317383 1580.729492,343.588013 1580.210327,343.875305 
	C1580.142700,343.677612 1580.305054,343.389496 1580.717041,343.037231 
z"/>
<path fill="#FFFFFF" opacity="1.000000" stroke="none" 
	d="
M1596.641235,251.277557 
	C1591.170288,246.488190 1585.900269,241.999252 1580.846069,237.279068 
	C1568.992432,226.208878 1557.242065,215.027954 1544.919800,203.391312 
	C1546.694580,203.224701 1547.892578,203.016403 1549.090942,203.014374 
	C1562.739868,202.991287 1576.414673,203.502151 1590.027222,202.798416 
	C1597.392212,202.417633 1602.514038,205.209122 1607.424194,209.889587 
	C1618.808594,220.741623 1630.243286,231.542389 1641.756104,242.257904 
	C1650.676514,250.560654 1659.746338,258.702881 1669.921509,267.985382 
	C1666.709595,267.985382 1664.987793,267.984863 1663.265991,267.985474 
	C1649.783569,267.990265 1636.278687,267.536957 1622.828125,268.194183 
	C1616.135986,268.521179 1611.521851,265.967621 1607.197754,261.693634 
	C1603.764893,258.300507 1600.358398,254.880783 1596.641235,251.277557 
z"/>
<path fill="#FFFFFF" opacity="1.000000" stroke="none" 
	d="
M392.242249,256.000000 
	C390.283569,256.000000 388.793915,256.000000 386.619812,256.000000 
	C396.105103,234.013046 405.398010,212.472015 415.030762,190.143219 
	C424.634888,212.353317 433.898499,233.775986 443.508667,256.000000 
	C426.127075,256.000000 409.419159,256.000000 392.242249,256.000000 
z"/>
<path fill="#FFFFFF" opacity="1.000000" stroke="none" 
	d="
M880.739136,195.684067 
	C892.143860,179.300491 907.433228,169.874298 926.625977,165.869522 
	C947.062805,161.605164 965.507996,165.873779 982.664490,176.995590 
	C998.056580,186.973618 1008.807556,201.023331 1013.539612,218.494385 
	C1020.026428,242.444107 1016.708984,265.221497 1001.079651,285.488129 
	C989.055908,301.079376 973.467407,311.009735 954.296448,314.737640 
	C940.142273,317.489990 926.145630,315.700317 912.792847,309.970947 
	C896.606018,303.025513 884.185120,291.585571 875.439819,276.569733 
	C870.866760,268.717865 868.334045,259.860260 866.825806,250.630615 
	C864.361023,235.547195 867.541809,221.545700 873.148987,207.881058 
	C874.896301,203.622986 878.023804,199.931305 880.739136,195.684067 
z"/>
<path fill="#FFFFFF" opacity="1.000000" stroke="none" 
	d="
M764.220764,462.717285 
	C749.515564,438.476227 762.892944,407.956421 789.540955,401.298828 
	C811.236450,395.878540 833.362366,409.235046 838.858887,431.418854 
	C844.282471,453.307709 833.044006,472.586334 812.844177,480.476501 
	C794.432739,487.668091 773.357483,478.948090 764.220764,462.717285 
z"/>
<path fill="#FFFFFF" opacity="1.000000" stroke="none" 
	d="
M630.816284,480.037964 
	C606.471252,489.438538 581.938660,474.216309 576.342102,451.441711 
	C570.819214,428.966797 583.669250,406.752228 607.033997,401.219208 
	C631.105835,395.518799 653.313110,412.012634 656.839905,435.609833 
	C659.545532,453.713501 650.816345,469.675812 634.595825,478.052612 
	C633.444641,478.647064 632.340637,479.332642 630.816284,480.037964 
z"/>
</svg>
